<?xml version="1.0" standalone="no"?>
<!DOCTYPE svg PUBLIC "-//W3C//DTD SVG 1.1//EN" "http://www.w3.org/Graphics/SVG/1.1/DTD/svg11.dtd" >
<svg xmlns="http://www.w3.org/2000/svg">
<metadata></metadata>
<defs>
<font id="bambolaregular" horiz-adv-x="1705" >
<font-face units-per-em="2048" ascent="1536" descent="-512" />
<missing-glyph horiz-adv-x="286" />
<glyph horiz-adv-x="0" />
<glyph horiz-adv-x="682" />
<glyph unicode=" "  horiz-adv-x="286" />
<glyph unicode="&#x09;" horiz-adv-x="286" />
<glyph unicode="&#xa0;" horiz-adv-x="286" />
<glyph unicode="!" horiz-adv-x="671" d="M92.5 76q1.5 -44 36.5 -64q37 -19 77.5 -3t74.5 63q62 92 -2 141q-33 26 -78.5 14t-75.5 -57q-34 -50 -32.5 -94zM246 385q1 4 4 6t11 6.5t15 8.5q153 105 291 536q34 109 70.5 186.5t67.5 120.5t67 67.5t63.5 31t63.5 6.5q49 0 73.5 -13t24.5 -32q0 -6 -5 -10t-22.5 -13 t-33.5 -20q-38 -25 -89.5 -103t-141.5 -264q-258 -524 -433 -524q-26 0 -26 10z" />
<glyph unicode="&#x22;" horiz-adv-x="507" d="M297 1016q0 14 12 28q20 -16 45 -16q39 0 76 31t43 69q0 2 -5.5 -0.5t-16.5 -6t-21 -3.5q-45 0 -45 60q0 56 42.5 97.5t96.5 41.5q37 0 59.5 -28.5t22.5 -61.5q0 -58 -34.5 -123t-90.5 -109.5t-110 -44.5q-33 0 -53.5 19t-20.5 47zM555 1016q0 14 12 28q20 -16 43 -16 q40 0 77.5 31t43.5 69q0 2 -6 -0.5t-17 -6t-20 -3.5q-23 0 -35 17.5t-12 42.5q0 56 43 97.5t98 41.5q37 0 59.5 -28.5t22.5 -61.5q0 -90 -77 -183.5t-158 -93.5q-33 0 -53.5 19t-20.5 47z" />
<glyph unicode="#" d="M-72 554q17 58 66 99q39 33 82 33l80 -2q81 141 120 201l-98 6q-35 2 -59 -9.5t-34.5 -23.5t-12.5 -12q-28 0 -14 40q18 50 70 90q46 34 91 34l125 -4q1 3 43 84q12 22 12 43q0 16 -10.5 25t-21.5 13.5t-11 8.5q0 5 18 13t46 14.5t53 6.5q100 0 100 -69q0 -28 -22 -74 l-41 -80l321 -12l43 86q29 48 29 61q0 19 -12 29t-12 12q0 8 6 11q10 7 52.5 6.5t66.5 -10.5q15 -5 35 -26t20 -50q0 -26 -12 -45l-43 -88q51 -3 84 16.5t69 77.5q10 9 18.5 -12.5t8.5 -34.5q0 -10 -2.5 -25t-16.5 -43t-37.5 -49.5t-72 -36t-113.5 -10.5h-6 q-29 -49 -63.5 -102.5t-54.5 -81.5l-19 -29l53 -4q119 -10 205 76q8 8 10 -9q1 -6 0 -10q-5 -21 -18 -46t-38 -55.5t-70.5 -50.5t-102.5 -20h-19l-80 4l-55 -94q-63 -105 -63 -135q0 -16 9 -29.5t27 -13.5l9 -3q5 -4 4 -12t-16 -19.5t-25 -16.5q-15 -9 -45.5 -14t-65.5 1 q-35 9 -59 30.5t-23 55.5q4 73 144 265q-58 5 -172.5 10t-161.5 8q-9 -15 -22 -40t-19 -36q-125 -202 -74 -227q7 -4 7 -11.5t-11 -17.5q-21 -18 -66 -18q-55 0 -86.5 25t-29.5 63q2 55 141 274q-20 4 -45 6q-49 5 -96 -55q-4 -4 -8 -4q-22 0 -9 42zM317 672l330 -27 l113 215q-53 4 -158 6t-162 6q-8 -13 -30 -47.5t-45 -71.5t-48 -81z" />
<glyph unicode="$" horiz-adv-x="1208" d="M23 279q0 29 11.5 61t34.5 62.5t64.5 50.5t93.5 20q57 0 92 -33.5t35 -77.5q0 -42 -24 -73t-64 -31q-36 0 -57 19.5t-21 50.5q0 32 25 45q2 3 0 9.5t-6 6.5q-36 0 -68.5 -31t-32.5 -75q0 -32 13.5 -64.5t42.5 -64t85 -51t132 -19.5q81 0 150 24.5t112 63.5t66.5 85 t23.5 91q0 65 -34 126t-82 111t-96 101t-82 115.5t-34 134.5q0 74 38 146.5t101.5 127.5t152 89t184.5 34q21 0 57 -4l123 230h92l-131 -248q91 -31 135.5 -97t44.5 -131q0 -79 -52.5 -134.5t-129.5 -55.5q-51 0 -89 27t-38 81q0 39 27 69t67 30q36 0 57.5 -27.5t12.5 -58.5 q-1 -3 2 -5.5t8 -2.5q14 0 29.5 20t15.5 55q0 67 -59.5 114.5t-171.5 47.5q-132 0 -227 -70t-95 -165q0 -60 34.5 -123.5t83.5 -119.5t98 -112.5t83.5 -123t34.5 -130.5q0 -167 -147 -282t-367 -115q-33 0 -49 2l-144 -272h-96l152 286q-97 27 -157 92t-60 169z" />
<glyph unicode="%" horiz-adv-x="1341" d="M199 829q0 72 44 162t111.5 167t157 130t172.5 53q60 0 94.5 -30t34.5 -80q0 -104 -94 -252q92 14 223 136.5t258 291.5q10 10 17 10q20 0 37.5 -35.5t17.5 -72.5q0 -28 -12 -43q-29 -37 -143 -186.5t-183 -239.5q-24 -32 -72 -96.5t-74.5 -100.5t-69.5 -95t-68 -96.5 t-58 -88t-52.5 -86.5t-38.5 -75t-28 -70.5t-10 -57.5q-1 -25 15.5 -46t25.5 -24q-6 -7 -17 -16.5t-49 -26t-82 -16.5q-35 0 -58.5 11.5t-33.5 30t-13 32.5t-3 28q0 73 80.5 198.5t203.5 267t250.5 281.5t242 275t157.5 213q2 2 2 8q0 8 -4 8t-6 -4q-53 -74 -101 -129.5 t-110.5 -112t-135.5 -94t-155 -53.5q-71 -98 -157 -158.5t-175 -60.5q-69 0 -105 41.5t-36 101.5zM360 852q0 -76 74 -76t176 133q-25 11 -41 34.5t-16 49.5q0 38 26.5 66t63.5 28q41 0 66 -22q49 96 49 149q0 32 -17.5 49t-48.5 17q-58 0 -137.5 -73.5t-137 -176 t-57.5 -178.5zM655 143q0 97 72 217t188 207.5t226 87.5q60 0 94.5 -30t34.5 -80q0 -69 -44.5 -164t-111.5 -179t-154 -143t-163 -59q-69 0 -105.5 41.5t-36.5 101.5zM817 166q0 -76 74 -76q61 0 139.5 83.5t131 187.5t52.5 167q0 66 -65 66q-58 0 -137.5 -73.5t-137 -176 t-57.5 -178.5z" />
<glyph unicode="&#x26;" horiz-adv-x="1933" d="M295 389q0 147 106 258.5t269 171.5q-27 34 -27 105q0 116 82 224t214 173t273 65q90 0 160 -26.5t111 -70t61.5 -94t20.5 -103.5q0 -87 -48 -136t-112 -49q-45 0 -82 33t-37 82q0 38 34.5 67t70.5 29q30 0 50.5 -20.5t20.5 -50.5q0 -5 7 -6q16 -3 16 38q0 97 -67.5 158 t-205.5 61q-101 0 -196.5 -54t-155 -145.5t-59.5 -193.5q0 -33 4 -51q101 31 186 31q108 0 171 -39t63 -90q0 -58 -62 -89.5t-172 -31.5q-72 0 -146 28t-128 85q-117 -62 -190.5 -158.5t-73.5 -200.5q0 -128 97.5 -200t270.5 -72q131 0 220 70.5t89 156.5q0 59 -31 92 t-77 33q-33 0 -60 -21t-38 -42l-11 -21q-1 0 -3 0.5t-6.5 3.5t-7.5 7.5t-6 14t-3 21.5q0 55 43 89t111.5 48.5t152 23.5t167 21t153.5 31.5t115 64t48 111.5v6q0 32 -17 54t-48 22q-8 0 -15 -2.5t-12 -6.5t-8.5 -7.5l-5.5 -5.5l-2 -2q0 40 34.5 72t92.5 32q61 0 102 -50 t41 -120q0 -150 -114 -231.5t-310 -81.5q-50 0 -120 5t-100 4.5t-30 -11.5q0 1 12 -3.5t28.5 -16.5t33.5 -30t29 -48.5t12 -67.5q0 -138 -127.5 -234t-329.5 -96q-249 0 -388.5 100t-139.5 287zM823 791q8 -26 70.5 -55t120.5 -29q48 0 80 12.5t32 36.5q0 26 -36 48.5 t-101 22.5q-94 0 -166 -36z" />
<glyph unicode="'" horiz-adv-x="329" d="M43 995q0 1 6 4q24 1 66.5 40t58.5 71q10 27 -6 35q-1 0 -15.5 2t-21.5 6q-27 11 -30 43t10 57q20 42 54.5 57t67.5 -1q32 -14 43 -44t6.5 -54.5t-14.5 -45.5q-31 -69 -84.5 -127.5t-113.5 -74.5h-13q-9 4 -13 14t-1 18z" />
<glyph unicode="(" horiz-adv-x="768" d="M303 141q0 153 37.5 304t100 276t144.5 241t172 206.5t180 165t171 123.5t143.5 75.5t98.5 26.5q16 0 20 -19q-129 -64 -270.5 -195.5t-268 -304t-229 -361.5t-163 -386.5t-60.5 -360.5q0 -66 10 -110q-1 0 -7.5 -8t-13 -13t-10.5 0q-23 36 -39 141.5t-16 198.5z" />
<glyph unicode=")" horiz-adv-x="1009" d="M-250 -182q129 64 270.5 195.5t268 303.5t229 361t163 386.5t60.5 360.5q0 67 -10 111q1 0 8 8t12.5 12.5t10.5 -0.5q23 -36 39 -141t16 -198q0 -149 -37.5 -297t-100 -272t-144.5 -240.5t-171.5 -208.5t-180 -168t-171 -126.5t-143 -78t-98.5 -27.5q-17 0 -21 19z" />
<glyph unicode="*" horiz-adv-x="411" d="M-43 924q7 24 25.5 40t40.5 19q-3 -10 1.5 -21.5t12.5 -13.5q34 -11 131 0q-28 58 -41 103t-14.5 66.5t6.5 37.5t12 18.5t12 6.5q13 5 33 2q53 -10 70 -58h-6q-14 0 -22.5 -9.5t-8.5 -24.5t4 -35.5t10 -45.5t8 -34q2 2 18.5 20.5t25.5 27.5t27 25t31 25t30 16t32 7 q21 0 35 -20.5t14 -47.5q0 -37 -26 -63q-7 24 -29 24q-30 0 -113 -67q134 -41 170 -88q7 -10 7 -23q0 -28 -21 -49t-51 -21q-13 0 -31 7q15 8 15 22q0 9 -9 18q-31 31 -104 60q-15 -132 -55 -178q-12 -13 -32.5 -12.5t-35.5 12.5q-44 40 -31 86q9 -8 21 -8t18 8 q24 24 51 129q-80 -33 -159 -33q-60 0 -68 25q-11 22 -4 47z" />
<glyph unicode="+" horiz-adv-x="894" d="M55 500q0 45 44.5 92t84.5 45l205 -6q15 27 38 66.5t31.5 56t16.5 37.5t8 36t-6 23.5t-12 9.5l-6 2q7 15 26 27t43 12q42 0 64 -22t22 -58q0 -16 -9.5 -38t-20 -40t-35 -56t-39.5 -62h90q59 0 96 12.5t50.5 24.5t15.5 12q8 -3 8 -15q0 -25 -11.5 -58.5t-43.5 -65 t-76 -31.5q-51 0 -195 4q-37 -67 -53.5 -98.5t-31.5 -69t-15 -57.5q0 -15 6 -23.5t12 -9.5l7 -2q-10 -22 -26 -30.5t-44 -8.5q-42 0 -64 22t-22 58q0 13 5 29.5t10.5 30.5t19 38t22 37.5t27.5 44.5t27 45q-26 0 -76.5 -1t-73.5 -1q-39 0 -62 -8t-31 -15.5t-9 -7.5 q-17 0 -17 19z" />
<glyph unicode="," horiz-adv-x="499" d="M-59 -201q0 13 3.5 17t11.5 3t19 1q60 10 131.5 68.5t100.5 111.5q7 11 5 12q-1 0 -8 -3q-20 -9 -34 -9q-36 0 -43 40t14 71q44 75 117 75q36 0 57 -26.5t21 -57.5q0 -60 -61 -142t-143.5 -141t-139.5 -59q-20 0 -35.5 12t-15.5 27z" />
<glyph unicode="-" horiz-adv-x="864" d="M145 346q0 41 45 93.5t76 52.5l320 -11q42 0 74 3.5t49.5 9t30 12t17 12t8 9t5.5 3.5q8 -2 8 -14q0 -32 -43 -84.5t-76 -52.5q-69 0 -191.5 4t-199.5 4q-26 0 -46 -6t-30 -14.5t-16 -17.5t-9 -15t-5 -6q-17 0 -17 18z" />
<glyph unicode="." horiz-adv-x="540" d="M104 61q0 53 44.5 98.5t99.5 45.5q27 0 44 -19t17 -49q0 -51 -41.5 -95t-93.5 -44q-28 0 -49 17t-21 46z" />
<glyph unicode="/" horiz-adv-x="641" d="M-225 -281q0 43 15.5 101.5t39.5 101.5q565 959 762 1287.5t209 328.5q18 0 18 -49q0 -31 -16 -94.5t-39 -102.5l-899 -1525q-3 -4 -9 -14l-9 -15t-9 -14t-9.5 -13.5t-8 -11.5t-8 -10.5l-7.5 -7.5t-7.5 -5.5t-6.5 -1.5q-16 0 -16 45z" />
<glyph unicode="0" horiz-adv-x="1136" d="M-84 317q0 126 48.5 254.5t119.5 225t149 173.5t140.5 117.5t89.5 40.5q26 0 26 -12q0 -2 -4 -6q-101 -81 -201.5 -219t-169.5 -300.5t-69 -287.5q0 -115 45 -165t133 -50q68 0 156 42.5t178 113.5t177 169t154 203t108.5 221.5t41.5 219.5q0 88 -41 140t-102 52 q-71 0 -131 -30t-96.5 -76t-57 -96t-20.5 -93q0 -36 12.5 -54.5t32.5 -18.5q43 0 65 63l3 2q8 0 26 -20q25 -45 25 -82q0 -48 -42 -88.5t-94 -40.5q-61 0 -105 43.5t-44 124.5q0 77 34 156.5t90 141.5t134 101.5t160 40.5q38 0 74 -6t80 -25.5t75.5 -50.5t53.5 -87t22 -130 q0 -114 -39 -237t-106.5 -235.5t-161.5 -215t-199.5 -177.5t-226 -119t-236.5 -44q-77 0 -137.5 27t-96.5 73t-54.5 102t-18.5 119z" />
<glyph unicode="1" horiz-adv-x="768" d="M-2 51q0 70 55 175.5t215 299.5q75 91 165.5 186.5t150.5 154.5t120 131.5t95 138.5q5 7 -1 9q-4 1 -10 -9q-23 -40 -121.5 -116t-219 -140t-185.5 -64q-30 0 -49.5 7t-26.5 16.5t-10 19t-2 16.5l2 7q8 0 22 0.5t60 9t93 24t115.5 50t133.5 81t142 123.5t145 172 q5 -4 13 -10.5t20.5 -22.5t11.5 -28q0 -18 -9.5 -44.5t-18.5 -45t-24 -46t-16 -28.5q-64 -106 -186 -275.5t-216.5 -298t-170 -261.5t-78.5 -205q-1 -25 15.5 -46t25.5 -24q-6 -7 -17 -16.5t-49 -26t-82 -16.5q-35 0 -58.5 11.5t-33.5 30t-13 32.5t-3 28z" />
<glyph unicode="2" horiz-adv-x="1040" d="M-221.5 37q0.5 15 6.5 37q44 154 222 296t427 238q88 34 160.5 81.5t120 97.5t80.5 104.5t47 101.5t14 88q0 70 -48 121t-144 51q-79 0 -159 -40t-137.5 -98t-93.5 -124t-36 -117q0 -31 10 -53.5t16.5 -27.5t18.5 -13q5 -2 8.5 -0.5t5 4t0.5 4.5q-10 27 12.5 60t59.5 33 q39 0 60.5 -26t21.5 -62q0 -50 -43 -83.5t-91 -33.5q-78 0 -120.5 45.5t-42.5 136.5q0 54 23 116t71 124.5t112.5 113t156.5 82t194 31.5q134 0 230.5 -67.5t96.5 -176.5q0 -370 -673 -598q-152 -52 -255 -124.5t-114 -127.5q74 50 145 50q56 0 114 -23t97.5 -50t90.5 -50 t96 -23q59 0 110.5 24t84 60.5t52.5 73t27 67.5q15 0 30 -16.5t15 -38.5q0 -28 -11.5 -64.5t-39.5 -79.5t-68.5 -78.5t-106 -59t-143.5 -23.5q-54 0 -104.5 17t-91.5 41l-82 48t-91.5 41t-103.5 17q-102 0 -206 -157l-5 -7q0 1 -4.5 1.5t-9.5 4t-9 10t-3.5 21.5z" />
<glyph unicode="3" horiz-adv-x="1095" d="M-131 262q0 67 42.5 117.5t102.5 50.5q43 0 73 -26t30 -64q0 -42 -23.5 -66t-56.5 -24q-24 0 -41 10t-22 20l-5 9q-6 6 -11 2.5t-5 -12.5q0 -95 68 -145t163 -50q144 0 272 58t206.5 159.5t78.5 220.5q0 106 -88 178t-204 72q-48 0 -80.5 -7t-45 -16.5t-12.5 -19.5 q0 -31 43 -50.5t113 -19.5q152 0 283 78q9 5 25 15t55.5 41.5t70 64.5t55.5 80t25 92q0 76 -41 127t-102 71.5t-138 20.5q-95 0 -181.5 -47t-86.5 -102q0 -28 14 -43t29 -15q9 0 20.5 4t18.5 8l8 5l4 -3q4 -7 4 -32q0 -30 -31.5 -62t-84.5 -32q-55 0 -90 28.5t-35 79.5 q0 47 30.5 96t84.5 90.5t140 68t187 26.5q84 0 151.5 -15t109 -36t72 -52.5t44.5 -56.5t21.5 -56t8.5 -43.5t1 -25.5q0 -22 -6 -49t-27.5 -69.5t-56 -83t-99 -87t-149.5 -83.5q-82 -36 -150.5 -50t-179.5 -14q-96 0 -164.5 33.5t-68.5 89.5q0 36 27 60t71 33.5t72.5 12 t58.5 2.5q110 0 203.5 -43t154 -131t60.5 -204q0 -66 -27 -130.5t-83.5 -122t-135.5 -101.5t-190 -69.5t-240 -25.5q-164 0 -252 79t-88 181z" />
<glyph unicode="4" horiz-adv-x="991" d="M-92 375q0 69 63.5 172t166 211t235.5 217t266.5 194.5t266 139t227.5 53.5q17 0 29 -9.5t12 -19.5q0 -5 -7 -12q-55 -38 -180 -216.5t-234 -362.5t-137 -257q16 -10 68 -10q48 0 81.5 16.5t33.5 51.5q0 4 -3 14.5t-1 15.5t12 5q22 0 41.5 -20t19.5 -58q0 -64 -60.5 -107 t-150.5 -43l-106 10q-68 -141 -68 -192q0 -49 15 -66q30 -26 4 -49q-16 -18 -59.5 -36.5t-75.5 -18.5q-13 0 -28.5 3t-36 11t-33.5 27t-13 47q0 36 34 114t68 138l33 59q-92 33 -192 33q-56 0 -104.5 -11t-77.5 -26.5t-50 -31t-29 -26.5l-8 -11q-22 0 -22 51zM40.5 486.5 q2.5 -2.5 8.5 0.5q86 45 227 45q41 0 78 -1.5t55 -2.5t32.5 -1.5t20 1.5t7.5 7q75 158 234.5 365t289.5 337q27 27 13 33q-275 -102 -537.5 -314t-427.5 -462q-3 -5 -0.5 -7.5z" />
<glyph unicode="5" horiz-adv-x="1056" d="M-143 209q0 47 15 88.5t54.5 72.5t98.5 31q53 0 81.5 -31.5t28.5 -68.5q0 -49 -32 -77.5t-72 -28.5q-17 0 -42.5 10.5t-33.5 30.5q-4 12 -12 -1q-6 -9 -6 -26q0 -60 52.5 -106t137.5 -46q94 0 187.5 40t165.5 103t128.5 137t86.5 145t30 124q0 87 -48.5 131.5 t-101.5 44.5q-192 0 -364 -181q-3 -4 -4 -5q-7 -7 -19 4.5t-21 29t-9 27.5q0 4 32.5 56.5t87 139t106.5 167.5t113 175.5t83 129.5q16 26 36 4q2 -1 6 -5t9 -8t18.5 -12.5t32.5 -19.5q99 -57 225 -57q55 0 104.5 17t84 44.5t56.5 51t36 46.5q3 5 12.5 -3t18 -22.5t8.5 -25.5 q0 -4 -8 -24q-4 -13 -53.5 -70t-84.5 -80q-152 -100 -290 -100q-59 0 -117.5 19t-87.5 38l-29 19q-167 -269 -235 -351q-8 -8 -7 -10q0 -1 11 6q138 80 309 80q67 0 119.5 -24t81.5 -62.5t43 -78.5t14 -79q0 -73 -34.5 -157t-103.5 -166.5t-160.5 -149t-218 -108 t-263.5 -41.5q-64 0 -115.5 20.5t-81 52.5t-44.5 68t-15 72z" />
<glyph unicode="6" horiz-adv-x="968" d="M-63 297q0 109 42 230.5t112.5 234t167 215.5t201.5 179t220.5 121.5t220.5 45.5q61 0 108.5 -15.5t74 -37.5t43.5 -51.5t22.5 -53t5.5 -45.5q0 -54 -20.5 -97t-52 -66.5t-62 -35.5t-55.5 -12q-52 0 -84.5 29t-32.5 66q0 53 30 83.5t78 30.5q32 0 52 -17t20 -40 q0 -12 -3 -23t-3.5 -12.5t4.5 -7.5q14 -6 35.5 29.5t21.5 70.5q0 67 -59 102t-121 35q-86 0 -185 -48.5t-190.5 -127.5t-177.5 -183t-149.5 -212t-101.5 -217.5t-38 -196.5q0 -55 16 -102t55 -81t95 -34q87 0 171.5 50.5t143.5 125t95.5 160t36.5 156.5q0 83 -34 124.5 t-89 41.5q-150 0 -307 -265q-11 -20 -17 -20q-8 0 -14 15t-6 40q0 39 14 64q60 101 153.5 171t207.5 70q109 0 173 -65t64 -160q0 -100 -44 -201t-118.5 -181t-184 -130.5t-230.5 -50.5q-38 0 -74.5 6t-79.5 25.5t-75.5 51t-54 87.5t-21.5 129z" />
<glyph unicode="7" horiz-adv-x="921" d="M14 72q0 82 41.5 171t105 164t148 149t161.5 128t155 100q153 94 257 203t142 176q-1 1 0 4t-3 7t-13 4q-6 0 -27 -14t-60.5 -28t-89.5 -14q-64 0 -144 24.5t-130 24.5q-151 0 -285 -186q-14 -18 -26.5 -42t-19 -37t-9.5 -13q-8 0 -19.5 19t-11.5 42q0 4 20 42t50 92 t59 104.5t53.5 94t26.5 46.5q5 6 22 11t30.5 5t15.5 -6q0 -7 -36 -67t-58 -92l5 -2q20 -1 25 4q1 1 16.5 18t27 28.5t36.5 30t49.5 29.5t61.5 20t76 9q56 0 156 -41t151 -41q45 0 73.5 21.5t51.5 62.5q10 14 27.5 4t17.5 -33q0 -81 -74 -193.5t-178.5 -212t-210.5 -169.5 q-93 -62 -188.5 -155.5t-165.5 -201t-70 -182.5q0 -38 6 -61.5t12 -29.5t15 -10t10 -5q5 -2 1 -14t-15 -19q-17 -12 -75 -27.5t-101 -15.5q-39 0 -67 21t-28 53z" />
<glyph unicode="8" horiz-adv-x="901" d="M-143 246q0 70 39 139t98 120.5t125 92t123 61.5t90 21q8 0 19 -11t19 -21l7 -11q-138 -34 -257.5 -151t-119.5 -240q0 -68 50 -120t126 -52q56 0 120.5 28t118 72t89 104.5t35.5 120.5q0 55 -27 113t-65 110.5t-76 107t-65 122t-27 135.5q0 89 68 175.5t175 140 t215 53.5q141 0 217 -66.5t76 -152.5q0 -64 -31.5 -125t-77.5 -104t-96.5 -77t-90.5 -50.5t-58 -16.5q-29 0 -57 25q-15 13 -7 16q5 3 31.5 15t44 20t47.5 26t50.5 34.5t45.5 42.5t40 53.5t25.5 64t10.5 76.5q0 63 -59.5 104t-110.5 41q-124 0 -213.5 -71.5t-89.5 -166.5 q0 -55 29 -118.5t70 -121t82.5 -115t70.5 -118.5t29 -112q0 -82 -47 -165.5t-121.5 -147t-173.5 -104t-197 -40.5q-82 0 -146.5 23.5t-100.5 61t-54 78t-18 81.5z" />
<glyph unicode="9" horiz-adv-x="1024" d="M-147 203q0 54 20.5 97t51.5 66.5t61.5 35.5t56.5 12q51 0 84 -29.5t33 -65.5q0 -53 -31 -83.5t-78 -30.5q-33 0 -53.5 16.5t-20.5 40.5q0 9 2.5 17.5t4.5 12.5t1.5 7.5t-5.5 5.5q-14 6 -35 -29.5t-21 -70.5q0 -46 32.5 -79t71 -45.5t74.5 -12.5q84 0 197.5 65.5 t224.5 175.5t206.5 240t154.5 274t59 262q0 91 -52.5 138t-119.5 47t-134.5 -37.5t-120 -96.5t-94.5 -129t-64.5 -138.5t-22.5 -120.5q0 -72 32 -106t85 -34q61 0 131.5 48t117.5 112.5t50 114.5q0 6 4 6q9 0 22 -21.5t13 -46.5q0 -19 -15.5 -53t-48 -74t-75 -75.5 t-103 -59.5t-125.5 -24q-105 0 -170.5 68.5t-65.5 148.5q0 89 32 175.5t89 157t129 124.5t157 84t169 30q38 0 74 -6t80 -25.5t75.5 -50.5t53.5 -87t22 -130q0 -108 -42 -229.5t-112 -233.5t-166.5 -215t-202 -179t-221.5 -121.5t-221 -45.5q-61 0 -107.5 15.5t-73 37.5 t-43 51.5t-22 53t-5.5 45.5z" />
<glyph unicode=":" horiz-adv-x="716" d="M168 61q0 53 44 98.5t99 45.5q27 0 44.5 -19t17.5 -49q0 -51 -41.5 -95t-93.5 -44q-28 0 -49 17t-21 46zM403 557q0 53 44.5 98t99.5 45q27 0 44 -18.5t17 -48.5q0 -51 -41.5 -95t-93.5 -44q-28 0 -49 17t-21 46z" />
<glyph unicode=";" horiz-adv-x="536" d="M-10 -201q0 -15 15.5 -27t35.5 -12q57 0 139.5 59t143.5 141t61 142q0 31 -21 57.5t-57 26.5q-73 0 -117 -75q-21 -31 -14 -71t43 -40q10 0 39 11q3 2 3 0t-5 -11q-29 -53 -100 -111.5t-131 -68.5q-12 -2 -19.5 -1t-11.5 -3t-4 -17zM373 406q0 53 44 98t99 45 q27 0 44.5 -19t17.5 -49q0 -50 -42 -94.5t-94 -44.5q-28 0 -48.5 17.5t-20.5 46.5z" />
<glyph unicode="&#x3c;" horiz-adv-x="536" d="M137 590q7 16 37 16q73 0 160 38t157 92t122.5 106t72.5 86q8 15 20 -4q7 -12 7 -25q0 -80 -126.5 -188.5t-230.5 -141.5q28 -40 41 -84.5t13 -119.5q0 -64 -31 -144.5t-76 -137t-82 -56.5q-3 0 -4.5 2t-1.5 4t-2 2q-1 0 17.5 28.5t40.5 84.5t22 108q0 207 -135 303 q-27 18 -21 31z" />
<glyph unicode="=" horiz-adv-x="944" d="M63 246q0 41 45 93t76 52l496 -10q42 0 74 3.5t49.5 9t30 12t17 12t8 9t5.5 3.5q8 -2 8 -14q0 -32 -42.5 -84.5t-75.5 -52.5q-69 0 -280 4t-288 4q-42 0 -66 -15t-31.5 -30t-8.5 -15q-17 0 -17 19zM63 473q0 41 45 93t76 52l496 -10q42 0 74 3.5t49.5 9t30 12t17 12t8 9 t5.5 3.5q8 -2 8 -14q0 -32 -42.5 -84.5t-75.5 -52.5q-69 0 -280 4t-288 4q-42 0 -66 -15t-31.5 -29.5t-8.5 -14.5q-17 0 -17 18z" />
<glyph unicode="&#x3e;" horiz-adv-x="641" d="M63 74q0 37 37 84.5t89.5 89t104.5 77.5t89 57l37 21q-53 74 -53 224q0 57 31 133t76 131t81 55q3 0 4.5 -2t1.5 -4t2 -2q1 0 -17.5 -25t-40.5 -74t-22 -96q0 -115 38.5 -201.5t96.5 -127.5q27 -18 21 -31q-7 -16 -37 -16q-73 0 -160 -38t-157 -92t-122.5 -106t-72.5 -86 q-8 -15 -20 4q-7 12 -7 25z" />
<glyph unicode="?" horiz-adv-x="823" d="M75.5 91.5q-3.5 -46.5 28.5 -68.5q27 -11 57 -11t63 19t55 53q33 50 30 93.5t-39 62.5q-36 21 -80 6t-77 -62q-34 -46 -37.5 -92.5zM207 1014q1 112 68.5 202t175.5 137.5t231 45.5q94 -1 167.5 -26.5t118 -69t67 -99.5t20.5 -119q-1 -33 -10.5 -65.5t-30.5 -63 t-43 -57.5t-58 -56t-64.5 -51t-74 -51.5t-75 -47.5t-79 -47.5t-75.5 -45.5q-98 -58 -146.5 -123t-50.5 -117q0 -16 2.5 -30t5.5 -20l2 -7q-4 0 -10.5 1t-22.5 7.5t-28.5 17.5t-22 33t-8.5 52q0 46 27 89.5t71 78.5t99.5 72.5t114 70t114.5 72.5t100 79.5t71 91t28 107.5 q1 108 -71.5 165.5t-168.5 59.5q-66 2 -135 -30.5t-116 -88.5t-48 -114q-1 -41 13.5 -64.5t37.5 -25.5q52 0 66 39q3 10 14 -10q12 -22 11 -41q0 -15 -6.5 -32.5t-21 -38.5t-46 -35t-74.5 -13q-58 0 -99 47t-40 121z" />
<glyph unicode="@" horiz-adv-x="1585" d="M127 160q2 119 44.5 241.5t124 233.5t191.5 198.5t257.5 139t310.5 51.5q116 0 212 -29t160.5 -78.5t106.5 -114.5t56.5 -137t4.5 -145q-12 -83 -65.5 -178t-132.5 -176.5t-185.5 -136t-212.5 -54.5q-65 0 -117.5 41.5t-52.5 89.5q-53 -48 -114 -77t-115 -29 q-80 0 -121 48t-41 118q0 82 50.5 186t128 193t181 150t199.5 61q49 0 83 -21t50 -55q60 76 136 76q44 0 72 -14.5t28 -32.5l-12 -5q-12 -4 -40 -30t-59 -76q-20 -31 -103.5 -174.5t-100.5 -175.5q-33 -63 -33 -90q0 -11 4.5 -23.5t22.5 -25.5t47 -13q72 0 159.5 62.5 t159 166t94.5 210.5q17 82 -10.5 157t-87.5 128t-148.5 84.5t-189.5 31.5q-119 0 -226 -27.5t-187.5 -72.5t-149 -105.5t-115.5 -123.5t-82 -128.5t-53.5 -119t-24.5 -97.5q-36 -264 103 -426t391 -162q206 0 375 108t221 251q11 35 15 38q2 1 5 1q7 0 21 -23t21.5 -50.5 t-3.5 -51.5q-87 -158 -262 -261.5t-399 -103.5q-144 0 -261.5 53.5t-188 139.5t-107.5 185.5t-35 199.5zM614 227q0 -98 74 -98q22 0 57 14.5t83.5 56t80.5 99.5q15 27 74 130t78 136q10 20 10 37q0 32 -23 56t-59 24q-66 0 -156.5 -85.5t-154.5 -194.5t-64 -175z" />
<glyph unicode="A" horiz-adv-x="1918" d="M12 18q0 77 41 126t103 49q52 0 80 -30.5t28 -72.5q0 -41 -22 -70.5t-60 -29.5q-20 0 -32 6q-13 3 -13 -12q0 -12 11.5 -25.5t42.5 -26t73 -12.5q65 0 127.5 20.5t114.5 53.5t106 86.5t97.5 108.5t93.5 131t89 141.5t90 152.5q13 22 19 33q-37 2 -127 2q-67 0 -115 -32.5 t-48 -77.5q0 -29 22 -47q26 -16 58 0q6 8 9 -5q4 -21 -14 -49q-25 -34 -60 -46q-23 -8 -44 -8q-11 0 -21 2q-30 6 -55 22q-61 42 -61 112q0 108 85 172t257 64q98 0 174 -8q52 86 95 152.5t99 143t108 132t117.5 109.5t130.5 88t143 54.5t161 20.5q136 0 226.5 -87.5 t90.5 -213.5q0 -103 -42 -194.5t-123.5 -165t-211.5 -122.5t-296 -63q-103 -177 -169.5 -321t-66.5 -199q0 -42 23.5 -62t56.5 -20q25 0 53.5 10.5t50 22.5t50.5 35.5t43 36t40 38.5l29 29q8 8 14 8t10.5 -11.5t4.5 -25.5q0 -12 -2 -20q-10 -28 -42.5 -66.5t-80 -78.5 t-114.5 -67.5t-134 -27.5q-205 0 -205 162q0 87 70.5 238t183.5 319q-60 5 -140 18t-110 17l-33 -57q-63 -110 -96.5 -165.5t-96 -151.5t-105.5 -147.5t-108 -118.5t-123 -100.5t-131 -58t-150 -24.5q-50 0 -96.5 12t-86 36t-63 64.5t-23.5 91.5zM1184 735q216 -19 270 -20 q138 188 268.5 313t202.5 125q17 0 17 -6q0 -4 -13 -17q-119 -122 -299 -409q135 16 247 72.5t180.5 149.5t68.5 204q0 84 -55.5 139t-157.5 55q-68 0 -132.5 -17t-119.5 -46t-110 -74.5t-100 -93.5t-94 -113.5t-88 -125.5t-85 -136z" />
<glyph unicode="B" horiz-adv-x="1536" d="M-80 102q0 68 40 111q39 41 94 41h5q41 -1 67 -20.5t34 -41.5t8 -45q0 -33 -24 -59.5t-58 -26.5q-9 0 -17 2.5t-12 2.5q-3 0 -6.5 -3.5t-3.5 -7.5q0 -18 29 -34.5t69 -16.5q87 0 162 41t126 103t100 151t81.5 168.5t74 173.5t73.5 150q38 67 87.5 127t111.5 113 t137.5 84.5t152.5 31.5q27 0 27 -10q0 -6 -6 -9q-103 -71 -177.5 -157t-138.5 -219q-130 -271 -169 -343q-151 -280 -310 -399q-148 -110 -330 -110q-104 0 -165.5 60.5t-61.5 141.5zM164 791q0 137 66.5 262t178.5 215t265 143t319 53h32q126 0 232 -28 q119 -32 192.5 -86.5t113 -121.5t39.5 -138q0 -51 -12.5 -96.5t-33.5 -79t-48.5 -62.5t-57.5 -49t-60.5 -36t-58 -25.5t-48.5 -15.5t-33 -8l-13 -3q5 0 27 -6.5t59 -27.5t70 -51.5t57.5 -86t24.5 -123.5q0 -84 -41.5 -169.5t-110 -153.5t-166.5 -111t-203 -43q-98 0 -184 50 t-86 122q0 28 10.5 47.5t27.5 28t31 11.5t29 3q6 0 6 -4q0 -3 -8 -16t-8 -25q0 -13 10.5 -31t31.5 -37t61.5 -32t93.5 -13q75 0 137.5 40t100 101t57.5 127.5t20 126.5q0 42 -12 77.5t-26 57.5t-43 46.5t-45 34.5t-50 30q-11 7 -32 17.5t-28.5 15.5t-14.5 17t-7 30 q0 16 7 31t13.5 22.5t8.5 7.5q18 -30 69 -30q34 0 71.5 10t76.5 33t69.5 55t50 80.5t19.5 105.5q0 86 -65 151t-159 95.5t-196 30.5q-159 -4 -297.5 -54.5t-230 -129.5t-143.5 -176.5t-52 -196.5q0 -81 30 -139t91 -58q7 0 8.5 6t-4.5 11q-35 22 -35 59q0 33 28 60.5 t63 27.5q49 0 78.5 -31t30.5 -82q0 -61 -49 -108t-120 -47q-95 0 -160 78t-65 211z" />
<glyph unicode="C" horiz-adv-x="1271" d="M82 383q0 113 48.5 241.5t128.5 246t186 227t217.5 190t227 128.5t210.5 48q66 0 118 -14.5t84 -38t53.5 -55.5t29.5 -63.5t8 -65.5q0 -104 -62.5 -217.5t-161.5 -193t-198 -89.5q-10 -2 -31 -2q-91 0 -154 48t-63 136q0 66 39.5 116t103.5 50q50 0 75.5 -30t25.5 -72 t-30 -65t-67 -23q-4 0 -14 3t-14 0.5t-6 -14.5q0 -24 24.5 -35.5t59.5 -11.5q52 0 115 34t118 88t92 129.5t37 150.5q0 59 -39.5 94t-120.5 35q-86 0 -186 -50.5t-192.5 -133t-179 -193t-150 -226.5t-102 -237.5t-38.5 -222.5q0 -99 42 -173t118 -104q30 130 112.5 242.5 t191.5 178t214 65.5q86 0 142.5 -46.5t56.5 -121.5q0 -91 -62 -173.5t-157 -137t-202.5 -87.5t-203.5 -36v-6q0 -80 44.5 -126t101.5 -46q34 0 55 18t21 39q0 16 -9.5 31.5t-27.5 19.5q-10 3 8 20q26 23 59 23q54 0 80.5 -35t26.5 -84q0 -63 -49.5 -122.5t-137.5 -59.5 q-126 0 -202 92t-76 230v14q-167 29 -252.5 151t-85.5 322zM539 2q96 2 216.5 53.5t207 127t86.5 139.5q0 37 -29 57t-76 20q-48 0 -108.5 -29.5t-119.5 -79.5t-108 -126.5t-69 -161.5z" />
<glyph unicode="D" horiz-adv-x="1888" d="M240 23q0 122 178 122q70 0 152.5 -20t125.5 -43q71 73 128 193.5t108.5 256.5t89.5 201q81 142 205 246.5t258 110.5q26 0 26 -11q0 -5 -6 -8q-107 -74 -182.5 -157t-138.5 -214q-9 -19 -46.5 -98t-51.5 -107t-48.5 -95.5t-58 -103t-57.5 -86.5t-68.5 -89t-71.5 -70 q5 -2 24.5 -13t36.5 -18.5t53 -14.5t79 -7q120 0 239 53.5t214.5 144.5t170 203.5t115.5 238t41 241.5q0 134 -41.5 239.5t-115 172.5t-171.5 101.5t-215 34.5q-166 0 -310 -88.5t-225 -224t-81 -276.5q0 -80 38 -134.5t95 -54.5q5 0 6.5 6.5t-2.5 10.5q-33 20 -33 65 q0 36 26 57t60 21q52 0 80.5 -29.5t28.5 -81.5q0 -61 -46 -107t-120 -46q-100 0 -168.5 80.5t-68.5 201.5q0 97 29 189.5t80 170t121.5 143t152 110.5t173 70.5t183.5 25.5q163 0 297.5 -52.5t222 -142t135 -206.5t47.5 -248q0 -138 -44.5 -280t-130.5 -269t-201 -227 t-266.5 -158.5t-315.5 -58.5q-26 0 -53.5 3t-51.5 9t-45 12t-40.5 13t-31 12t-23.5 11l-11 5q-4 2 -10 2q-26 0 -65 -14.5t-96.5 -28.5t-127.5 -14q-87 0 -133.5 33.5t-46.5 85.5z" />
<glyph unicode="E" horiz-adv-x="1433" d="M53 260q0 124 80.5 245.5t201 202.5t245.5 105q-93 75 -93 172q0 103 60.5 195t157.5 154t218.5 98t243.5 36q129 0 233 -32t168 -86t98 -120.5t34 -139.5q0 -95 -55.5 -162.5t-131.5 -67.5q-62 0 -106.5 29t-44.5 92q0 45 26.5 79t65.5 34q5 0 7.5 -1t3 -2t0 -5t-0.5 -5 q0 -39 37 -39q2 0 6 0.5t14 5t17.5 12.5t14 24t6.5 38q0 40 -21 78.5t-65.5 74.5t-127.5 58.5t-194 22.5q-96 0 -188 -34t-158.5 -86.5t-107 -117.5t-40.5 -127q0 -83 52 -135q105 21 229 21q30 0 69.5 -5t89 -17t82.5 -37.5t33 -61.5q0 -49 -56 -80t-175 -31 q-120 0 -185.5 24t-136.5 76q-70 -20 -134.5 -58.5t-119.5 -93.5t-87.5 -132.5t-32.5 -165.5q0 -109 79 -188t197 -103q55 193 228.5 331t351.5 138q71 0 122.5 -39.5t51.5 -114.5q0 -78 -49 -158.5t-130.5 -145.5t-199 -106.5t-244.5 -41.5h-26q-1 -12 -1 -24q0 -37 10 -67 q13 -39 37.5 -59t48.5 -29.5t46 -9.5q37 0 60.5 16t23.5 38t-9.5 33.5t-19.5 15.5t-10 6q0 11 22 29.5t50 21.5q5 1 10 1q33 -1 68 -23q40 -26 40 -80q0 -64 -61.5 -120t-157.5 -56q-125 0 -208.5 88t-86.5 248q-126 6 -231.5 47.5t-174.5 124t-69 192.5zM676 -18 q26 -5 54 -5q79 -1 174 37q128 50 216 132t88 149q0 35 -22.5 54.5t-57.5 19.5q-61 0 -131.5 -27t-136.5 -75t-117 -123t-67 -162z" />
<glyph unicode="F" horiz-adv-x="1263" d="M-23 102q0 68 41 111q39 41 94 41h5q41 -1 66.5 -20.5t33.5 -41.5t8 -45q0 -33 -24 -59.5t-58 -26.5q-9 0 -16.5 2.5t-11.5 2.5q-3 0 -7 -3.5t-4 -7.5q0 -18 29.5 -34.5t69.5 -16.5q68 0 128 25t105 63.5t87.5 99t72.5 117.5t63 133q-67 0 -135.5 26.5t-128 75t-97.5 129 t-38 177.5q0 82 27 167t82 165t131 142.5t183.5 100t229.5 37.5q77 0 177 -28t206.5 -56t200.5 -28q48 0 91.5 11.5t70.5 28t47.5 33t29.5 27.5l9 12q29 0 29 -47q0 -36 -17.5 -71.5t-51.5 -67t-93 -51t-133 -19.5q-68 0 -149.5 18.5t-146 40t-148 40t-154.5 18.5 q-116 0 -214.5 -40t-163.5 -106t-101.5 -149.5t-36.5 -171.5q0 -67 21 -121.5t53.5 -89t73 -58t77.5 -33t69 -9.5h46q6 13 27.5 63.5t30.5 70.5t25.5 53.5t30.5 58.5q38 67 87.5 127t111.5 113t138 84.5t153 31.5q26 0 26 -10q0 -6 -6 -9q-102 -71 -176.5 -156.5 t-138.5 -219.5l-72 -150q83 31 129 31q54 0 91.5 -37t37.5 -86q0 -53 -36 -100.5t-89 -47.5q-31 0 -52 11.5t-26 23t0 11.5q17 0 32 14.5t15 36.5q0 20 -14.5 36t-36.5 15q-13 -1 -28 -5.5t-41.5 -15t-44.5 -16.5q-52 -101 -98.5 -177.5t-110.5 -154.5t-130.5 -128 t-152.5 -81.5t-182 -31.5q-102 0 -165 57.5t-63 144.5z" />
<glyph unicode="G" horiz-adv-x="1370" d="M-141 -666q0 107 57.5 207.5t151.5 176t209.5 133t236 87t227.5 29.5q46 0 66 -2q151 240 385 553q9 12 -1.5 18.5t-16.5 2.5q-40 -29 -105 -99.5t-131 -141t-146 -140t-179.5 -113t-202.5 -43.5q-126 0 -209.5 82t-83.5 229q0 112 58.5 244t154.5 255.5t225 239.5 t266 202t281 138t266 52q186 0 277.5 -78t91.5 -209q0 -88 -51.5 -158.5t-135.5 -70.5q-56 0 -93.5 32t-37.5 91q0 42 33 70t68 28q54 0 75 -37q6 -6 9 -6q20 0 20 47q0 77 -61.5 127.5t-155.5 50.5q-121 0 -255.5 -51t-253.5 -134t-229 -191t-189 -220.5t-126 -225 t-47 -200.5q0 -83 47 -129.5t113 -46.5q69 0 144.5 36.5t143.5 94.5t137 128t135.5 140t129 128t127 94.5t119.5 36.5q27 0 50.5 -7t34.5 -14.5t11 -13.5q0 -2 -2 -4q-36 -28 -79 -76.5t-79.5 -97t-85 -126t-79 -127.5t-81 -141t-70 -127.5t-65.5 -122.5q127 -50 127 -163 q0 -80 -45 -119t-106 -39q-34 0 -58 21.5t-26.5 39.5t0.5 21q90 0 90 61q0 50 -41 74q-185 -337 -403.5 -513.5t-407.5 -176.5q-113 0 -171 53.5t-58 140.5zM-33 -645q0 -52 28 -77.5t71 -25.5q70 0 156 49.5t174.5 135.5t175.5 193.5t169 232.5h-18q-114 0 -247.5 -43 t-246 -111.5t-187.5 -163.5t-75 -190z" />
<glyph unicode="H" horiz-adv-x="1886" d="M-12 209q0 73 42.5 119.5t102.5 46.5q43 0 77 -29.5t34 -79.5q0 -38 -28 -66t-64 -28q-20 0 -29 6q-6 5 -11.5 0t-2.5 -14q12 -31 56.5 -54.5t110.5 -23.5q68 0 128.5 13t108 34t92 56t77 69.5t67.5 85.5t59.5 93.5t55.5 101.5q-325 61 -325 393q0 90 32.5 173.5t88 147 t125.5 111t148.5 72t153.5 24.5t144 -19.5t110 -42.5t84 -42t72 -19q84 63 166 88t139 25q34 0 53 -12t19 -31q0 -52 -57.5 -96.5t-142 -68t-169.5 -23.5q-53 -49 -91.5 -98.5t-103 -159.5t-171.5 -314l-6 -12q60 9 122.5 25t155.5 45.5t113 35.5l49 70q104 143 225 275.5 t247.5 242t252 175t223.5 65.5q63 0 103 -28.5t40 -67.5q0 -44 -46 -79q-32 -25 -42 -13q-2 2 -2 5q-6 42 -23 58t-52 16q-63 0 -152.5 -51.5t-184 -136.5t-185.5 -183.5t-171 -201.5q-34 -42 -80 -109q94 -3 144.5 -39t50.5 -102q0 -47 -30 -82t-72 -35q-64 0 -95 45 q-16 24 -7 30q2 2 5 1q4 0 10 1.5t15.5 11.5t9.5 26q0 35 -45 35q-19 0 -59 -4q-107 -173 -176.5 -334.5t-69.5 -237.5q0 -67 49.5 -113.5t116.5 -46.5q32 0 58 4t40.5 9t42.5 16q24 17 24 -12q0 -34 -22 -63q-2 -3 -4 -5q-21 -23 -79 -39t-113 -16q-40 0 -78 7t-79.5 26.5 t-72.5 50t-51 82t-20 117.5q0 162 211 491q-212 -71 -361 -78q-173 -286 -371 -414t-426 -128q-127 0 -205.5 72.5t-78.5 154.5zM662 801q21 -55 60 -88.5t85.5 -51.5t107.5 -26q88 165 168.5 279.5t148.5 183.5t159 139q-26 -3 -57.5 9.5t-63.5 29.5q-32 16 -97 30 q-61 13 -136 13h-11q-60 -1 -125.5 -26.5t-125 -72t-97.5 -122.5q-37 -75 -37 -163q0 -79 21 -134z" />
<glyph unicode="I" horiz-adv-x="1228" d="M59 127q0 72 51 121t105 49q63 0 100 -32t37 -85q0 -31 -15.5 -53.5t-36.5 -31t-42 -7.5t-31 12q18 14 13.5 38t-27.5 24q-19 0 -31 -12t-12 -33q0 -51 47.5 -82t138.5 -31q60 0 114 12.5t98.5 32.5t87 53t75 67t67 83.5t60 92t56 102t52 105t52.5 110t53 108.5 q151 293 418 492q7 7 2 14q-45 -27 -143 -27q-62 0 -174.5 33t-176.5 33q-95 0 -176 -32.5t-134 -83t-90.5 -114t-54 -124t-16.5 -113.5q0 -75 36.5 -128.5t92.5 -53.5q10 0 7 12q-21 35 -21 65q0 42 30 71.5t72 29.5t72.5 -35.5t30.5 -85.5q0 -64 -49.5 -113t-139.5 -49 q-98 0 -166.5 80t-68.5 236q0 106 54.5 213t140 187t194.5 130.5t213 50.5q68 0 231 -46q159 -45 211 -44h2q33 1 64.5 10.5t53.5 23.5t39.5 27.5t28.5 23t13 9.5q12 0 20.5 -18.5t8.5 -54.5q0 -22 -36.5 -64t-103.5 -116.5t-116 -145.5q-33 -49 -77.5 -135t-85 -172.5 t-96.5 -190.5t-113 -195.5t-133.5 -179.5t-158.5 -150.5t-188.5 -101t-222.5 -38.5q-51 0 -102 12.5t-98 37.5t-76.5 71t-29.5 106z" />
<glyph unicode="J" horiz-adv-x="1300" d="M35 -160q0 91 67 193t170 183.5t238 135.5t260 54q43 0 119 -13q23 50 65 164q34 99 83 192.5t104.5 168.5t102.5 132t101 107.5t74.5 68.5t47.5 39q5 4 6 5q10 10 2 10q-2 0 -5 -1.5t-8.5 -4t-11.5 -4.5q-43 -13 -127 -13q-30 0 -87.5 15.5t-134.5 31t-155 15.5 q-86 0 -160 -33t-122.5 -84t-83.5 -113t-50.5 -119t-15.5 -104q0 -30 4.5 -58t15.5 -58t34.5 -48t56.5 -18q9 0 11 4t0 8l-3 4q-15 26 -15 54q0 42 31 74t72 32q42 0 75 -29.5t33 -76.5q0 -69 -52 -122.5t-132 -53.5q-117 0 -176 79.5t-59 223.5q0 136 90 271.5t233.5 221.5 t290.5 86q64 0 218 -42t208 -42q53 0 100 23t73.5 46t27.5 23q11 0 19.5 -19t8.5 -54q0 -31 -41 -76t-107.5 -115t-107.5 -137q-65 -104 -111 -188t-65 -127t-47.5 -111.5t-46.5 -108.5q-45 -99 -109 -208q53 -40 80 -93.5t27 -99.5q0 -89 -43.5 -148t-99.5 -59 q-40 0 -65 26.5t-25 61.5q0 55 38 72q8 -16 31 -16q27 0 42 18.5t15 44.5q-3 52 -57 96q-78 -121 -164 -224.5t-180 -187.5t-194 -132t-191 -48q-104 0 -163.5 58.5t-59.5 146.5zM139 -154q0 -106 129 -106q138 3 293.5 157.5t280.5 395.5q-50 8 -70 8q-92 0 -188.5 -32.5 t-174 -84t-140 -112t-96.5 -121t-34 -105.5z" />
<glyph unicode="K" horiz-adv-x="2064" d="M322 115q0 72 50.5 121t104.5 49t95.5 -30t41.5 -87q0 -46 -26.5 -70t-59.5 -24q-25 0 -39 14q15 15 15 31q0 14 -11.5 22.5t-23.5 8.5q-18 0 -30.5 -13.5t-12.5 -36.5q0 -13 8.5 -29t27.5 -35t60 -31.5t96 -12.5q60 0 114 12.5t98.5 32.5t87 53t75 67t67 83.5t60 92 t56 102t52 105t52.5 110t53 108.5q150 291 418 491q8 7 2 15q-43 -25 -141 -25q-62 0 -175 33t-177 33q-95 0 -176 -32.5t-134 -83.5t-91 -114.5t-54.5 -124.5t-16.5 -114q0 -75 37 -129t93 -54q9 0 6 13q-21 35 -21 65q0 42 30.5 71t72.5 29t72 -29.5t30 -74.5 q0 -72 -45.5 -125t-140.5 -53q-97 0 -167.5 77t-70.5 218q0 110 54.5 220.5t140 193.5t194.5 135.5t213 52.5q68 0 232 -46q160 -45 211 -44h2q33 1 64.5 10.5t53.5 23.5t39.5 27.5t28 23t12.5 9.5q12 0 20.5 -19t8.5 -55q0 -22 -36.5 -63.5t-103.5 -116t-116 -145.5 q-47 -69 -156 -293q31 -2 61 -2q101 0 201 20q128 26 225.5 76.5t173 113t115 128.5t39.5 123q0 31 -18.5 53t-52.5 22q-42 0 -74 -37q-21 30 -21 70q0 49 40 87t108 38q65 0 110.5 -54.5t45.5 -135.5q0 -94 -48.5 -186.5t-136 -171t-217 -139t-282.5 -89.5 q-21 -174 -21 -352q0 -106 13.5 -183.5t44 -136t84 -88t130.5 -29.5q42 0 78 10.5t55.5 21.5t22.5 11q4 0 4 -14q0 -47 -26 -80.5t-68.5 -49.5t-83.5 -23t-84 -7q-111 0 -193 60.5t-123.5 164.5t-41.5 238q0 147 8 234t35 204q-34 -4 -72.5 -4t-81.5 4q-43 -86 -80.5 -154.5 t-90.5 -151.5t-105 -145.5t-119.5 -125t-137.5 -102t-156.5 -64.5t-178.5 -25q-51 0 -102 12.5t-98 38t-76 71.5t-29 106z" />
<glyph unicode="L" horiz-adv-x="1511" d="M-63 51q0 42 66.5 86.5t168.5 44.5q122 0 199 -30q201 142 350 464q-202 0 -321 107.5t-119 259.5q0 75 32 144.5t82.5 117.5t112 76.5t119.5 28.5q56 0 97 -16t62 -42t31 -54.5t10 -59.5q0 -53 -34.5 -93.5t-85.5 -40.5q-43 0 -73 26t-30 75q0 30 15.5 54t29.5 28 q6 1 10.5 6t4.5 8q0 8 -27 8q-88 0 -170 -77.5t-82 -186.5q0 -102 94.5 -178t257.5 -76h35q88 185 187.5 326t195 223t183.5 122t169 40q68 0 106 -47t38 -115q0 -69 -32 -147.5t-96.5 -157.5t-151.5 -149t-207.5 -125.5t-254.5 -82.5q-108 -190 -210 -320t-220 -194 q13 -3 73 -16t82.5 -17.5t66.5 -13t73 -11.5t53 -3q91 0 170 12t132.5 31.5t96.5 43.5t69 47.5t43 43t25 31.5t9 12q8 0 15.5 -17t7.5 -38q0 -26 -22 -65t-65.5 -81.5t-99.5 -79.5t-133 -61t-157 -24q-90 0 -186.5 20.5t-161.5 45t-125.5 45t-88.5 20.5q-50 -28 -141.5 -46 t-157.5 -18q-51 0 -85.5 25t-34.5 61zM967 754q143 31 279 118.5t218 195.5t82 200q0 35 -19.5 54t-53.5 19q-53 0 -117 -48.5t-131.5 -135t-130 -185t-127.5 -218.5z" />
<glyph unicode="M" horiz-adv-x="1888" d="M-156 143q0 66 39.5 109t96.5 43h4q41 -1 66.5 -20.5t33.5 -41.5t8 -45q0 -33 -24 -59.5t-58 -26.5q-9 0 -16.5 2t-11.5 2q-11 0 -11 -10q0 -19 30 -37t69 -18q88 0 159.5 30t122 82.5t92 120.5t77 146.5t71 158.5t79.5 157.5t95.5 143t126.5 116.5t166 75q2 0 7.5 1 t6.5 1q3 0 6.5 -3.5t3.5 -6.5q0 -9 -18 -27q-80 -75 -135 -154t-111 -200q-35 -76 -59.5 -127t-61 -120.5t-66 -116t-69.5 -102.5t-77.5 -93t-85 -74.5t-96 -59t-107 -35t-121.5 -13.5q-100 0 -166 58t-66 144zM109 821q0 81 29 167.5t92 171.5t150.5 151.5t216 107.5 t277.5 41q88 0 171 -28t148.5 -79t105.5 -129t40 -171q0 -69 -39 -177t-81.5 -191t-109 -204.5t-85.5 -158.5q-7 -16 11 -16q24 -1 38 19q1 1 2 3q27 46 81 141q66 117 102 178t106 168t122 166.5t132 136t155.5 116t173.5 68.5t203 29q67 0 155.5 -23t88.5 -53q0 -4 -5 -20 t-13.5 -31.5t-14.5 -13.5q-73 18 -109 18q-24 0 -32 -8q-96 -107 -194 -244t-187 -290t-145 -310t-56 -276q0 -120 66.5 -175t177.5 -55q24 0 54 7t50.5 14.5t22.5 7.5q4 0 4 -4q0 -46 -75 -92.5t-156 -46.5q-147 0 -243.5 82.5t-96.5 234.5q0 120 67 288.5t169 331 t213 306.5t208 240q-120 0 -232.5 -58t-221 -175.5t-210 -275.5t-212.5 -376q-122 -238 -377 -238q-47 0 -47 23q0 8 5 19t15.5 27t14.5 25q41 70 67.5 116.5t78.5 149.5t83.5 183.5t57.5 180t26 177.5q0 72 -21.5 134.5t-64 112t-111 78t-155.5 28.5q-108 0 -213 -49 t-181 -125t-123 -171t-47 -184q0 -72 32.5 -111.5t80.5 -39.5q62 0 62 22q0 2 -7 2q-23 0 -38 24t-15 58q0 41 30.5 65.5t65.5 24.5q51 0 82 -33.5t31 -80.5q0 -81 -63.5 -142t-145.5 -61q-42 0 -80 12.5t-75 41t-59.5 84.5t-22.5 134z" />
<glyph unicode="N" horiz-adv-x="1464" d="M-158 152q0 66 39 108.5t96 42.5h5q31 -1 53.5 -11.5t33.5 -27.5t16 -33.5t5 -33.5q0 -33 -24 -59.5t-58 -26.5q-9 0 -16.5 2t-11.5 2q-3 0 -7 -3.5t-4 -7.5q0 -19 30 -37t69 -18q88 0 159.5 30t122 82.5t92 120.5t77 146.5t71 158.5t79.5 157.5t95.5 143t126.5 116.5 t166 75q2 0 7.5 1t6.5 1q3 0 6.5 -3.5t3.5 -6.5q0 -9 -18 -27q-80 -75 -135 -154t-111 -200q-35 -76 -59.5 -127t-61 -120.5t-66 -116t-69.5 -102.5t-77.5 -93t-85 -74.5t-96 -59t-107 -35t-121.5 -13.5q-100 0 -166 58.5t-66 144.5zM92 838q0 81 29 167.5t92 171.5 t151 151.5t216.5 107.5t277.5 41q216 -1 342.5 -124t126.5 -317q0 -55 -37 -172t-81.5 -231t-81.5 -235.5t-37 -184.5q0 -109 30 -113h3t2.5 0.5t2 1l1.5 1.5t2 3t1.5 4.5t1.5 6l2 7t3 9.5l4 12q31 97 74.5 207t106.5 240t133.5 251.5t158 236t177.5 199t195 136t207 51.5 q71 0 108.5 -26.5t37.5 -69.5q0 -30 -16.5 -53t-34.5 -23q-15 0 -19 4q2 8 2 19q0 39 -90 39q-76 0 -158.5 -46.5t-159 -125t-153 -181.5t-142.5 -217.5t-124.5 -230.5t-103 -222.5t-74.5 -193t-41 -141.5q-13 -72 -58 -72q-78 0 -137 80.5t-59 210.5q0 99 25.5 213 t55.5 201t55.5 195t25.5 196q0 91 -28 159t-78.5 107.5t-113 58.5t-137.5 19q-108 0 -213 -49t-180.5 -125t-122.5 -170.5t-47 -183.5q0 -72 32.5 -114t80.5 -42q17 0 32 5t22 11.5t7 10.5q0 2 -6 2q-21 0 -37 23t-16 48q0 42 30.5 71.5t65.5 29.5q51 0 82 -33.5t31 -81.5 q0 -81 -63.5 -142t-145.5 -61q-42 0 -80 12.5t-75.5 41t-60 85t-22.5 134.5z" />
<glyph unicode="O" horiz-adv-x="1423" d="M2 244q0 114 61.5 254.5t155.5 265.5t205.5 232t212.5 167q57 31 113 31q22 0 22 -8t-14 -19q-118 -98 -245.5 -258t-223.5 -350.5t-96 -327.5q0 -235 208 -235q107 0 227 49t231 132t213 196t177.5 236.5t120.5 259t45 257.5q0 90 -38.5 149.5t-106.5 59.5 q-51 0 -84 -18l-2 -2q16 -40 16 -109q0 -97 -32.5 -201.5t-86.5 -191.5t-132.5 -143t-162.5 -56q-55 0 -92 42t-37 114q0 149 113 319.5t279 270.5q-85 143 -271 143q-88 0 -145.5 -41t-57.5 -84q0 -25 16 -40t38 -15q5 0 12 4t10 4q6 0 10.5 -11t4.5 -20q0 -34 -32 -61 t-83 -27q-58 0 -98.5 38t-40.5 96q0 46 23.5 91.5t67 84t116 62.5t161.5 24q119 0 213.5 -54t147.5 -143q45 25 129 25q122 0 198 -90.5t76 -243.5q0 -145 -40.5 -293t-114 -282.5t-181 -252.5t-235.5 -204.5t-284.5 -136.5t-321.5 -50q-99 0 -171 27t-114 76.5t-61 113 t-19 144.5zM762 772q0 -51 43 -51q64 0 132 72t111.5 180t43.5 207q0 42 -9 82q-137 -90 -229 -239.5t-92 -250.5z" />
<glyph unicode="P" horiz-adv-x="1603" d="M41 102q1 68 41 111q39 41 93 41h5q41 -1 67 -20.5t34 -41.5t8 -45q0 -33 -24 -59.5t-58 -26.5q-9 0 -17 2.5t-12 2.5q-3 0 -6.5 -3.5t-3.5 -7.5q0 -19 29.5 -37t68.5 -18q66 0 125 23.5t103.5 62.5t86.5 94.5t72.5 114.5t62.5 129t56.5 131t54.5 126.5t56 109.5 q38 67 87.5 127t111.5 113t137.5 84.5t152.5 31.5q27 0 27 -10q0 -6 -6 -9q-103 -71 -177.5 -157t-138.5 -219q-130 -271 -169 -343q-151 -280 -310 -399q-148 -110 -330 -110q-109 0 -168 56.5t-59 145.5zM324 778q0 124 63.5 246.5t171 218t263 154.5t327.5 59 q118 0 228.5 -30.5t201.5 -89.5t146 -156t55 -219q0 -91 -40.5 -175t-104.5 -142q-65 -57 -145 -91q-78 -33 -154 -33h-5q-55 1 -93 11.5t-57 30.5t-26.5 33.5t-13.5 35.5q-2 7 -2 14q0 29 33 60q23 19 28 12q0 -23 32 -55.5t87 -32.5q68 0 131.5 55t101 139t37.5 168 q0 161 -118 261t-326 100q-128 0 -244.5 -37t-200.5 -97t-147 -134t-94 -149t-31 -140q0 -35 5 -66t16.5 -62.5t36 -50t59.5 -18.5q7 0 8.5 7t-4.5 11q-33 23 -33 68q0 36 27.5 57t60.5 21q51 0 80 -33t30 -86q0 -64 -46 -105q-44 -40 -121 -40h-4q-94 2 -156.5 74 t-62.5 206z" />
<glyph unicode="Q" horiz-adv-x="1503" d="M260 455q0 112 45 233.5t120.5 231t178 209.5t213 172.5t230 115.5t225.5 43q93 0 167.5 -32t120.5 -87t70.5 -123.5t24.5 -144.5q0 -139 -73.5 -304.5t-191.5 -312.5t-270.5 -271.5t-304.5 -190.5q55 -62 160 -116t188 -54q45 0 80 14t50 31t27 31t19 14q9 0 21 -19 t12 -36q0 -67 -42 -115t-103.5 -69t-132.5 -21q-42 0 -88.5 16.5t-83 38.5t-79.5 58t-68.5 61.5t-61.5 62.5t-47 48q-90 -29 -185 -29q-71 0 -141 37t-70 80q0 42 49.5 73t129.5 31q176 0 301 -68q123 80 250 208t230 270.5t168.5 295t65.5 271.5q0 113 -69 174t-174 61 t-228.5 -59.5t-233 -156t-201 -209.5t-145 -230t-53.5 -207q0 -79 51.5 -123.5t137.5 -44.5q88 0 185 69t156 166q51 82 51 149q0 11 -1 22l-2 -4q-33 -74 -92 -74q-46 0 -69 26.5t-23 59.5q0 53 44 89t101 36q77 0 115.5 -41.5t38.5 -105.5q0 -86 -54 -177.5t-134.5 -160 t-175 -112.5t-173.5 -44q-110 0 -183 70t-73 174z" />
<glyph unicode="R" horiz-adv-x="1599" d="M113 152q0 66 39 108.5t96 42.5h4q31 -1 53.5 -11.5t33.5 -27.5t16 -33.5t5 -33.5q0 -33 -23.5 -59.5t-57.5 -26.5q-9 0 -17 2t-12 2q-3 0 -6.5 -3.5t-3.5 -7.5q0 -19 29.5 -37t68.5 -18q89 0 162 34t125 92.5t97 134.5t85 161.5t81 172t93.5 167.5t114 146.5 t150.5 111.5t196 59q15 2 19.5 -5.5t1.5 -16.5l-3 -8q-10 -5 -26.5 -14t-65 -44.5t-92.5 -78t-97.5 -115.5t-91.5 -156q-123 -268 -187 -376q-136 -229 -298 -311q-106 -54 -235 -54q-120 0 -187 57.5t-67 145.5zM391 803q0 125 61.5 244t168 211.5t262 149t331.5 56.5 q155 0 286 -52.5t212.5 -153.5t81.5 -230q0 -167 -114 -289t-285 -155q-20 -64 -38 -180.5t-18 -190.5q0 -51 7 -104.5t26 -114.5t48.5 -107t79.5 -77t114 -31q36 0 70 12.5t53.5 24.5t21.5 12q8 0 8 -10q0 -57 -63.5 -106.5t-153.5 -49.5q-166 0 -272.5 128.5t-106.5 363.5 q0 198 60 403h-25q-51 0 -61 12q-23 23 -23 56q0 20 15 20q8 0 23 -1t22 -1q113 0 202 37.5t141 97t78.5 126.5t26.5 134q0 81 -37 145t-100 102t-140 57.5t-163 19.5q-156 0 -289.5 -49t-220.5 -128t-135.5 -175.5t-48.5 -194.5q0 -73 29.5 -126.5t70.5 -53.5q1 0 2.5 0.5 t2 2.5t-2.5 5q-1 2 -5 9.5t-7.5 18t-3.5 23.5q0 46 36 74.5t76 28.5q44 0 76.5 -33.5t32.5 -83.5q0 -57 -56.5 -103.5t-146.5 -46.5q-34 0 -69.5 17t-67 49t-52 86.5t-20.5 120.5z" />
<glyph unicode="S" horiz-adv-x="1288" d="M113 248q0 38 15.5 80t44 81.5t78.5 65t111 25.5q67 0 108.5 -42t41.5 -96q0 -53 -36 -96t-83 -43q-48 0 -71 47q18 6 30.5 23.5t12.5 36.5q0 18 -10.5 29.5t-28.5 11.5q-39 0 -71 -42.5t-32 -95.5q0 -92 87.5 -162.5t254.5 -70.5q96 0 176.5 28.5t131 74t78.5 99.5 t28 107q0 64 -26.5 126.5t-67 111.5t-87 105t-87 106.5t-67 117.5t-26.5 136q0 82 41 163t110 144.5t170.5 103t213.5 39.5t195.5 -24t131 -65.5t70.5 -92t23 -109.5q0 -94 -61.5 -159.5t-151.5 -65.5q-60 0 -105 32.5t-45 94.5q0 47 29 81t76 34q37 0 62.5 -26t25.5 -58 q0 -9 -4 -21q-1 -4 3.5 -8t10.5 -4q9 0 22.5 10.5t26.5 38.5t13 64q0 79 -75 131.5t-196 52.5q-181 0 -293 -87t-112 -214q0 -51 20 -103.5t52.5 -98.5t71.5 -92.5t78 -94t71.5 -95t52.5 -103.5t20 -111q0 -128 -83.5 -235.5t-227.5 -169.5t-313 -62q-79 0 -153 21 t-136.5 61.5t-100.5 109t-38 154.5z" />
<glyph unicode="T" horiz-adv-x="913" d="M-82 102q0 68 40 111q39 41 94 41h5q41 -1 67 -20.5t34 -41.5t8 -45q0 -33 -24 -59.5t-58 -26.5q-9 0 -17 2.5t-12 2.5q-3 0 -6.5 -3.5t-3.5 -7.5q0 -18 29 -34.5t69 -16.5q87 0 162 41t126 103t100 151t81.5 168.5t74 173.5t73.5 150q38 67 87.5 127t111.5 113 t137.5 84.5t152.5 31.5q27 0 27 -10q0 -6 -6 -9q-103 -71 -177.5 -157t-138.5 -219q-130 -271 -169 -343q-151 -280 -310 -399q-148 -110 -330 -110q-109 0 -168 56.5t-59 145.5zM184 877q0 85 37 176.5t107 175.5t162 151t213 107.5t249 40.5q75 0 215.5 -37.5t280.5 -75.5 t211 -39h8q44 0 83 10q43 11 69.5 23.5t54 34.5t36 31t23.5 26l4 6q13 0 22 -12t9 -27t-6 -24q-40 -64 -85.5 -107.5t-93.5 -63.5t-88 -27t-87 -7q-74 0 -171 23.5t-179 52t-191 53t-203 25.5q-101 0 -195 -37.5t-161.5 -95.5t-118.5 -126.5t-76.5 -132t-25.5 -110.5 q0 -62 21.5 -115t70.5 -69q7 -2 13.5 2.5t2.5 13.5q-8 16 -8 37q0 28 26 53t62 25q47 0 76 -30t29 -85q0 -51 -46 -89t-110 -38q-96 0 -168 73.5t-72 207.5z" />
<glyph unicode="U" horiz-adv-x="1800" d="M14 981q0 139 85 250t230 172t322 61q43 0 110.5 -22.5t127 -49t127 -49t110.5 -22.5q50 0 91 19t61 41.5t36 41.5t23 19q11 0 19 -17.5t8 -52.5q0 -79 -75.5 -200.5t-182.5 -250t-214.5 -258t-183 -258t-75.5 -217.5q0 -64 34 -102.5t101 -38.5q65 0 138 44t143.5 118.5 t145.5 171t150 203.5t151 214t155.5 203.5t157 171t160.5 118.5t161 44t117 -10q14 -3 14 -12q0 -4 -4.5 -10.5t-13.5 -16.5t-11 -12q-95 -96 -219.5 -265.5t-241.5 -360t-197.5 -384t-80.5 -313.5q0 -123 68.5 -189.5t175.5 -66.5q24 0 54 7.5t50.5 14.5t22.5 7q4 0 4 -5 q0 -47 -74 -93t-170 -46q-143 0 -235.5 86.5t-92.5 231.5q0 104 76 284.5t186.5 363.5t232.5 351.5t216 263.5q4 4 4 6q-3 15 -12 15q-2 0 -5 -1t-5 -1q-58 -30 -122.5 -94t-125 -145t-126 -178t-131.5 -196t-135.5 -196.5t-145 -182.5t-152 -150t-163.5 -102.5t-175 -37.5 q-132 0 -207.5 71.5t-75.5 169.5q0 89 38 184.5t100 181.5t137.5 171t155.5 164t149 149.5t122.5 138.5t71.5 121q-100 -49 -209 -49q-48 0 -101.5 20.5t-96.5 45t-112.5 45t-143.5 20.5q-105 0 -202 -47t-158.5 -132.5t-61.5 -186.5q0 -72 23.5 -118t47.5 -63q4 -4 13 -4 t6 13q-6 15 -6 32q0 38 30.5 66.5t73.5 28.5t74 -32t31 -75q0 -62 -46 -106.5t-108 -44.5q-45 0 -87 19t-78 55.5t-57.5 100t-21.5 144.5z" />
<glyph unicode="V" horiz-adv-x="1431" d="M55 905q0 98 46.5 197.5t125.5 178t193 128t239 49.5q67 0 231 -49t230 -49q46 0 91.5 16.5t73 36.5t48 36.5t23.5 16.5q13 0 27 -19.5t14 -53.5q0 -22 -22 -64.5t-60 -75.5q-155 -140 -247.5 -276t-125.5 -254q-30 -105 -54 -215.5t-41 -205.5t-22 -118q-8 -36 -18 -65 t-15.5 -43t-5.5 -17q0 -10 15 -10q96 18 248.5 186.5t289.5 399.5q100 168 178 287.5t165.5 229.5t165 176.5t163.5 105.5t174 39q75 0 118.5 -38t43.5 -94q0 -53 -31.5 -96t-95.5 -43q-68 0 -93 47q-10 21 -4 25q1 1 3 0q16 -8 32.5 6t16.5 39q0 24 -14 34.5t-31 10.5 q-68 0 -157 -66t-179 -175t-174 -234.5t-158 -259.5q-421 -727 -823 -727h-4q-12 0 -21.5 7t-9.5 19q0 20 17 43q40 52 64.5 108.5t33 128.5t10.5 118q1 18 1 45q0 40 -2 97q-3 96 -3 136q0 67 23 138.5t59 132.5t84.5 121t95.5 105.5t96 84.5q36 29 86 65q14 10 9 11 q-4 0 -15 -2q-93 -17 -162 -17q-54 0 -183 36.5t-218 39.5h-16q-76 -1 -142 -25q-74 -28 -123.5 -74t-86 -104.5t-53.5 -117.5t-17 -113q0 -75 35.5 -125.5t91.5 -50.5q9 0 12.5 5t-2.5 11q-27 27 -27 66q0 43 31.5 70.5t75.5 27.5q42 0 72 -31.5t30 -79.5q0 -69 -51 -121.5 t-131 -52.5q-103 0 -173.5 76.5t-70.5 224.5z" />
<glyph unicode="W" horiz-adv-x="1816" d="M-66 901q0 81 28.5 160.5t85.5 150.5t134.5 126t183 87t224.5 33q84 0 230 -48t224 -48q43 0 78 14t52.5 31t33.5 31t27 14q9 0 20.5 -15t10.5 -28q-1 -7 -6 -17t-15.5 -24.5t-19.5 -26t-26.5 -31t-26.5 -29.5t-30.5 -32.5t-27.5 -29.5q-2 -3 -36 -40t-64.5 -72.5 t-80.5 -95t-93 -117t-93 -126.5t-88.5 -136.5t-71.5 -135t-51 -132.5t-18 -120q0 -91 30.5 -126.5t92.5 -35.5q60 0 122 32t102.5 73t66.5 76.5t26 45.5q4 73 46.5 193t100.5 233.5t129 195.5q70 81 125 81h1q44 -2 44 -56.5t-44 -162.5q-82 -199 -275 -490q-1 -22 -1 -41 q0 -72 17 -117q22 -57 73 -57q81 0 152 64t163 204q71 116 125 226t102 256q0 1 -6 25.5t-13 76.5t-7 111q0 86 20.5 177.5t61.5 158.5t90 67q18 0 31 -7t21 -22.5t12.5 -29t6 -38.5t2 -37.5t0.5 -37.5q0 -83 -29.5 -204.5t-70.5 -229.5q27 -6 51 -6q146 0 261 153l41 55 q13 13 15 -12q1 -9 1 -24q0 -26 -13 -58q-5 -12 -15.5 -30.5t-39 -55t-61.5 -65t-85 -50.5t-108 -22q-40 0 -86 12q-16 -49 -54.5 -137.5t-108.5 -213t-148 -231t-179 -182t-196 -75.5q-82 0 -127 65t-45 156q0 5 -1.5 6.5t-2.5 0.5l-2 -1q-91 -107 -192 -160t-191 -53 q-97 0 -148 68t-51 200q0 100 43 219.5t109 229t158.5 229t176.5 212.5t177 186q-33 -7 -79 -8h-9q-42 0 -88 8q-13 3 -79 21t-126.5 27t-136.5 9q-91 0 -175 -32t-149 -89q-64 -58 -100 -142q-32 -74 -32 -158q0 -12 1 -23q4 -65 24.5 -105.5t43.5 -56.5q8 -4 10 -4 q9 0 6 12q-8 18 -8 36q1 27 19 51q30 40 87 40q40 0 71.5 -32.5t31.5 -76.5q0 -60 -48 -98.5t-120 -38.5q-43 0 -82 17t-71.5 51.5t-51.5 93.5t-19 135z" />
<glyph unicode="X" horiz-adv-x="1720" d="M51 135q0 87 48 135.5t124 48.5q24 0 52 -18.5t28 -56.5q0 -10 -4 -22.5t-9.5 -23t-10.5 -19.5t-9 -15l-4 -6q0 -1 -3.5 4t-16 11.5t-29.5 6.5q-18 0 -31.5 -14.5t-13.5 -38.5q0 -57 50 -89t149 -32q220 0 428 138t372 421q-74 4 -92 4q-54 0 -88 -8.5t-43.5 -15.5 t-27.5 -25q-2 -2 -5 5q-8 17 -8 44q0 40 17.5 65.5t53.5 38t77.5 17t103.5 4.5q12 0 34 -1t32 -1q33 100 48 172.5t15 163.5q0 133 -75 225.5t-195 92.5q-91 0 -173.5 -31.5t-142.5 -82t-104.5 -112.5t-67 -124.5t-22.5 -116.5q0 -56 15 -96t39 -59t46 -26.5t45 -7.5 q18 0 29.5 7t14.5 12.5t3 9.5q0 9 -10 12q-37 26 -37 66q0 43 32 70.5t77 27.5q48 0 79 -34t31 -91q0 -62 -67 -119t-158 -57q-99 0 -170 72t-71 198q0 84 29 170t86 164t133 139t177.5 97t212.5 36q196 0 322.5 -114.5t126.5 -317.5q0 -139 -66 -286v-5q1 0 3 3 q159 263 408.5 437.5t479.5 174.5q75 0 119.5 -32.5t44.5 -69.5q0 -51 -40 -84q-25 -19 -32 -7l-2 5q-2 5 -3.5 9t-5 11t-8.5 12.5t-11.5 12.5t-15.5 12t-20 9t-25.5 6.5t-30.5 2.5q-74 0 -171.5 -38t-202.5 -108.5t-213 -185t-190 -253.5q41 -3 73 -3q50 0 82 7 q50 11 87 47q2 2 4 2q8 0 8 -27q0 -86 -55 -119.5t-160 -33.5q-46 0 -108 6q-47 -62 -93 -215.5t-46 -278.5q0 -120 61.5 -195t179.5 -75q36 0 66.5 7t49 15t48.5 25q10 5 10 -8q0 -65 -74 -119.5t-178 -54.5q-89 0 -157 27t-108.5 74.5t-60.5 108t-20 132.5q0 176 103 411 q2 5 0 8.5t-5.5 3.5t-5.5 -3q-153 -229 -383.5 -366.5t-472.5 -137.5q-133 0 -219 62t-86 171z" />
<glyph unicode="Y" horiz-adv-x="1615" d="M35 958q0 95 51 188t135 164.5t201 115.5t242 44q78 0 166 -28.5t170.5 -57t146.5 -28.5q38 0 74 8t61 20t44 24t28 20l10 8q12 0 12 -33q0 -80 -51 -139q-59 -71 -162 -176.5t-191 -196t-173 -186.5t-135 -182t-50 -150q0 -33 15.5 -54.5t41.5 -29t38.5 -9t27.5 -1.5 q84 0 177 50t179.5 130.5t176 177.5t176.5 193.5t169.5 177t168.5 130.5t160 50q76 0 137 -70q-100 -79 -201.5 -193.5t-174 -213t-165.5 -253.5t-136.5 -234.5t-126.5 -236.5q-10 -19 -15 -28q172 -82 172 -225q0 -62 -42.5 -109t-101.5 -47q-86 0 -117 47q-10 19 -4 23 q8 -2 16 -2q25 0 52 20q35 26 35 84q0 28 -22.5 57t-47.5 39q-185 -261 -386.5 -382t-442.5 -121q-157 0 -239.5 62t-82.5 169q0 82 66.5 165t176 147t259.5 104.5t307 40.5q94 0 236 -23q36 55 140 221t166.5 260.5t173.5 240t224 263.5q-4 2 -12 2q-23 0 -55 -22 q-49 -29 -115.5 -93.5t-135 -141t-147.5 -164.5t-164 -168t-172 -146t-184 -105.5t-188 -39.5q-103 0 -164.5 62t-61.5 167q0 79 42 164.5t110.5 161.5t151 151.5t167 143t155.5 126t119.5 109.5t55.5 86q-4 -1 -49 -17.5t-85 -22.5q-22 -3 -52 -3q-22 0 -47 2 q-62 4 -184 45t-183 41q-198 0 -329.5 -111t-131.5 -264q0 -67 32.5 -121.5t74.5 -54.5q14 0 6 15q-11 20 -11 40q0 25 17 49q31 44 84 44q38 0 66 -30t28 -69q0 -67 -48 -110t-132 -43q-89 0 -156 77.5t-67 204.5zM174 -436q0 -63 46.5 -89t131.5 -26q177 0 346.5 118 t323.5 339q-64 24 -154 24q-130 0 -258.5 -32.5t-223.5 -84t-153.5 -118t-58.5 -131.5z" />
<glyph unicode="Z" horiz-adv-x="1591" d="M-59 -10q0 34 32.5 61t86 42.5t115.5 23.5t128 8q19 0 40.5 -2t36 -4.5t39 -6.5t36.5 -6q189 184 350 420q-45 9 -90 9q-87 0 -125 -41q-6 -11 -12 -11q-9 0 -9 27q0 71 50 98t133 27q15 0 66.5 -1t58.5 -1q66 96 116.5 164.5t115.5 145t136 140.5t150 117 q-85 -20 -178 -20q-83 0 -180.5 29.5t-198 59t-189.5 29.5q-119 0 -228 -71t-174 -184t-65 -232q0 -66 26 -113t50 -55q1 0 4.5 -2t5.5 -2q11 0 8 10q-8 18 -8 36q0 27 19 53q31 42 88 42q44 0 75 -32.5t31 -77.5q0 -62 -48 -102t-111 -40q-85 0 -144 44.5t-84.5 112 t-25.5 151.5q0 105 58 215t152.5 197.5t225.5 143.5t266 56q71 0 149.5 -24t135 -53t121.5 -53t112 -24h2q51 1 102 12.5t87 27.5t65 32.5t44 27.5l14 11q4 0 10 -6t12 -25t6 -47q0 -26 -30.5 -64t-88 -95t-126 -127t-161 -185t-175.5 -244h75q42 0 75 11t48.5 21.5 t16.5 10.5q4 0 4 -24q0 -40 -17.5 -66.5t-50 -39t-65 -17t-74.5 -4.5q-19 0 -50 1t-44 1q-89 -122 -201 -243t-213 -183l-4 2q21 -5 74 -16.5t80.5 -17.5t68.5 -13.5t71 -11t54 -3.5q91 0 170 12t132.5 32t96.5 43.5t69 47t43 43.5t25 32t9 12q8 0 15 -17.5t7 -38.5 q0 -26 -22 -65t-65.5 -81.5t-99.5 -79.5t-133 -61t-157 -24q-89 0 -177 19t-144 41.5t-115 41.5t-98 19q-19 -11 -50.5 -27t-113 -42.5t-144.5 -26.5q-204 0 -204 90z" />
<glyph unicode="[" horiz-adv-x="608" d="M-68 -227q0 39 235.5 431t443 723t292.5 462q53 82 100.5 108.5t112.5 26.5q42 0 81.5 0.5t66.5 1t48 1t33 1t13 0.5q18 0 18 -12q0 -16 -19 -36t-36 -20h-166q-52 0 -78 -30q-103 -122 -455.5 -720t-488.5 -860q-8 -20 -8 -30q0 -31 35 -31q51 0 124.5 -1t112.5 -1 q17 0 17 -12q0 -16 -20.5 -36t-41.5 -20h-338q-82 0 -82 54z" />
<glyph unicode="\" horiz-adv-x="759" d="M152 1262q0 51 27.5 123.5t56.5 72.5q12 0 23 -39q27 -99 173 -1000q31 -197 84 -525q4 -32 4 -50q0 -53 -20.5 -106t-36.5 -53q-17 0 -39 106q-272 1446 -272 1471z" />
<glyph unicode="]" horiz-adv-x="1067" d="M-434 -270q0 18 13.5 39.5t33.5 21.5h203q38 0 66 17t61 55q44 51 291.5 428t479.5 748t232 397q0 24 -35 24h-223q-22 0 -6.5 29.5t37.5 37.5q4 1 8 1h283q82 0 82 -53q0 -55 -392.5 -693.5t-578.5 -926.5q-53 -82 -100.5 -109t-112.5 -27h-336q-6 0 -6 11z" />
<glyph unicode="^" />
<glyph unicode="_" horiz-adv-x="903" d="M41 -182q0 41 45 93t76 52l495 -10q42 0 74 3.5t49.5 9t30 12t17.5 12t8.5 9t5.5 3.5q8 -2 8 -14q0 -32 -43 -85t-76 -53q-69 0 -279.5 4.5t-287.5 4.5q-26 0 -46 -6t-30 -15t-16.5 -18t-9.5 -15t-5 -6q-16 0 -16 19z" />
<glyph unicode="`" d="M289 1092q0 23 13.5 41t37.5 18q11 0 19.5 -2.5t16.5 -10t13.5 -14.5t13.5 -22t14 -27t16.5 -35.5t19.5 -40.5q15 -31 40 -66.5t41.5 -56.5t16.5 -22q0 -3 -7.5 -8.5t-11.5 -5.5q-25 0 -82.5 38.5t-109 100t-51.5 113.5z" />
<glyph unicode="a" horiz-adv-x="856" d="M-49 168q0 82 50.5 186t128 193t181 150t199.5 61q49 0 83 -21t50 -55q60 76 135 76q44 0 72.5 -14.5t28.5 -32.5l-12 -5q-12 -4 -40 -30t-59 -76q-20 -31 -104 -175t-101 -175q-33 -63 -33 -90q0 -43 39 -43q172 0 455 399q2 4 6 4q3 0 7 -6.5t7 -23t3 -39.5 q0 -31 -66 -115q-110 -145 -246 -240.5t-262 -95.5q-64 0 -97.5 30t-33.5 79q-53 -48 -114.5 -77.5t-114.5 -29.5q-80 0 -121 48t-41 118zM127 229q0 -98 74 -98q22 0 57 14.5t83.5 56t80.5 99.5q15 26 73.5 129t77.5 137q11 22 11 37q0 32 -23 56t-59 24 q-66 0 -156.5 -85.5t-154.5 -194.5t-64 -175z" />
<glyph unicode="b" horiz-adv-x="671" d="M-100 129q0 42 30 109.5t67.5 128.5t104.5 167.5t107 176.5q-52 9 -82.5 40.5t-30.5 79.5q0 46 29.5 79.5t64.5 33.5q20 0 35 -5t21 -12t10.5 -14.5t3.5 -12.5l-2 -5q-16 0 -34.5 -10.5t-18.5 -34.5q0 -33 51 -53q16 24 45.5 65t91.5 123.5t128 158.5t138 149.5 t141.5 118t119.5 44.5q43 0 77.5 -32.5t34.5 -80.5q0 -75 -75.5 -184.5t-178.5 -203.5t-214 -162.5t-177 -69.5q-41 -71 -137 -228t-139 -238.5t-43 -117.5q0 -23 13.5 -34t29.5 -11q47 0 106.5 33.5t109 79.5t87 92.5t49.5 75.5q4 9 -1 31t-5 36q0 54 9.5 87t33.5 79 q16 31 25 46t28.5 40.5t41.5 37t48 11.5q24 0 38.5 -21.5t14.5 -43.5q0 -66 -28 -132t-57 -107t-29 -44q8 -8 43 -8q42 0 79 15t67.5 45t49 54t43.5 62l10 8q4 0 11.5 -20t8.5 -45.5t-15 -48.5q-53 -71 -114.5 -108.5t-154.5 -37.5q-14 0 -41.5 5.5t-40.5 11.5 q-18 -30 -74.5 -97t-123.5 -120q-69 -53 -149 -84t-130 -31q-70 0 -110.5 35.5t-40.5 97.5zM434 809q107 44 231 148t207.5 214t83.5 172q0 15 -10.5 26t-25.5 11q-65 0 -210 -171.5t-276 -399.5z" />
<glyph unicode="c" horiz-adv-x="657" d="M-18 166q0 82 51 186t129.5 193.5t181.5 151t197 61.5q60 0 97.5 -32.5t37.5 -80.5q0 -56 -33 -95.5t-88 -39.5q-28 0 -51 16t-23 45q0 28 25 52t49 24q0 2 -1 5t-10.5 7.5t-25.5 4.5q-67 0 -152.5 -75.5t-145.5 -183t-60 -192.5q0 -50 29.5 -75t82.5 -25q65 0 138.5 35 t130 81.5t115 109.5t87.5 100.5t54 72.5q10 10 14 10q12 0 12 -37q0 -48 -12 -65q-284 -420 -645 -420q-82 0 -133 41.5t-51 124.5z" />
<glyph unicode="d" horiz-adv-x="872" d="M-66 162q0 66 32 146.5t88.5 157.5t126 142t153 104.5t160.5 39.5q49 0 83 -21t50 -55l293 512q14 39 10 53t-16.5 23t-12.5 12q0 7 10 14q40 25 97 25q66 0 90 -34q11 -15 11 -36q0 -26 -17 -61q-3 -6 -9 -15q-4 -8 -17 -29.5t-33 -56.5l-36 -63l-114 -199 q-50 -84 -123 -211q-20 -31 -108 -182.5t-105 -183.5q-33 -63 -33 -90q0 -43 39 -43q172 0 455 399q2 4 6 4q3 0 6.5 -7t6.5 -23.5t3 -39.5q0 -31 -65 -114q-110 -145 -246 -240.5t-262 -95.5q-64 0 -97.5 29.5t-33.5 78.5q-53 -47 -114.5 -76.5t-115.5 -29.5q-80 0 -121 48 t-41 118zM111 223q0 -98 73 -98q22 0 57.5 14.5t84 56t80.5 99.5q15 26 73.5 129t77.5 137q10 20 10 37q0 32 -23 56t-59 24q-66 0 -156.5 -85.5t-154 -194t-63.5 -175.5z" />
<glyph unicode="e" horiz-adv-x="583" d="M-59 166q0 82 51 186t129.5 193.5t181.5 151t197 61.5q52 0 83 -31t31 -84t-38.5 -107.5t-100.5 -97.5q-61 -42 -147 -68q-74 -22 -150 -23q-12 0 -24 1q-35 -72 -35 -131q0 -104 112 -104q73 0 155 42.5t146.5 102.5t118.5 120.5t83 103.5l30 42q5 10 20 -7 q15 -18 15 -40q0 -24 -25 -63q-58 -83 -127.5 -155t-151.5 -131.5t-178 -93.5t-192 -34q-82 0 -133 41.5t-51 124.5zM195 424q81 0 163.5 37t131.5 85.5t49 86.5q0 22 -13 35.5t-39 13.5q-63 0 -152 -86t-140 -172z" />
<glyph unicode="f" horiz-adv-x="675" d="M-297 -367q0 55 30.5 142.5t70 169.5t109 203.5t114 194t121.5 194t96 153.5q-50 14 -81.5 47t-31.5 78q0 44 28.5 82.5t76.5 38.5q40 0 51 -25q1 -3 -8 -8t-19 -16.5t-10 -28.5q0 -50 51 -63q208 325 371 494t266 169q55 0 86 -34.5t31 -90.5q0 -115 -94 -252t-243 -243 t-296 -136q-586 -944 -586 -1056q0 -62 51 -62q54 0 176.5 146.5t223.5 332.5q-11 18 -18 67.5t-7 98.5q0 73 26.5 145.5t65 116.5t74.5 44t54 -32t18 -85q0 -68 -23.5 -151.5t-46.5 -132.5l-24 -50q50 0 95.5 21.5t82.5 61.5t60.5 72.5t51.5 77.5q6 9 9 9q20 0 20 -70 q0 -57 -46 -118.5t-120.5 -103.5t-148.5 -42q-34 0 -52 10q-143 -250 -279 -385t-239 -135q-137 0 -137 151zM467 801q107 43 220.5 126.5t197.5 194.5t84 207q0 49 -37 49q-40 0 -94 -47t-111 -126t-103 -149.5t-95.5 -153.5t-61.5 -101z" />
<glyph unicode="g" horiz-adv-x="743" d="M-344 -457q0 85 61.5 161.5t154 127t193 82.5t185.5 37l67 121q-99 -72 -186 -72q-80 0 -121 48t-41 118q0 82 50.5 186t128 193t181 150t199.5 61q49 0 83.5 -21t50.5 -55q60 76 135 76q44 0 72 -14.5t28 -32.5l-12 -5q-12 -4 -40 -30t-59 -76q-20 -31 -103.5 -174.5 t-100.5 -175.5q-15 -27 -72 -132t-92 -169q69 0 113 -34.5t44 -92.5q0 -46 -33.5 -79.5t-82.5 -33.5q-27 0 -45.5 11.5t-18.5 21.5q31 20 31 67q0 23 -13 37t-27 16l-13 3q-41 -68 -81 -124t-97 -118t-115 -104t-132.5 -69.5t-152.5 -27.5q-64 0 -101.5 33t-37.5 90z M-268 -446q0 -27 16 -43.5t49 -16.5q75 0 160.5 64t148 146.5t99.5 162.5q-80 0 -191 -45.5t-196.5 -121t-85.5 -146.5zM145 227q0 -98 74 -98q22 0 57 14.5t83.5 56t80.5 99.5q15 27 74 130t78 136q10 20 10 37q0 32 -23 56t-59 24q-66 0 -156.5 -85.5t-154.5 -194.5 t-64 -175z" />
<glyph unicode="h" horiz-adv-x="784" d="M-117 78q0 32 38.5 115t93.5 180t110.5 189t94 154.5t38.5 63.5q-58 7 -98.5 47t-40.5 86q0 43 29 70t75 27q26 0 49 -10t23 -21q0 -3 -15.5 -20.5t-15.5 -36.5q0 -44 47 -58q172 257 324.5 420.5t249.5 163.5q49 0 75.5 -25t26.5 -71q0 -59 -48.5 -143.5t-124.5 -165.5 t-179.5 -149.5t-202.5 -94.5l-141 -221q-2 -3 0 -3l6 3l4 4q98 97 168.5 136.5t134.5 39.5q56 0 91.5 -28.5t35.5 -74.5q0 -65 -35 -140.5t-93 -169t-81 -144.5q-8 -20 -8 -31q0 -21 14 -35t41 -14q30 0 80 39.5t104.5 102t101.5 120.5t88 111q12 17 18 24q5 8 12 8 q9 0 15.5 -13.5t6.5 -29.5q0 -35 -45 -98q-260 -379 -463 -379q-70 0 -107.5 35t-37.5 88t33 122.5t72.5 124t72.5 109.5t33 82q0 16 -12 27.5t-33 11.5q-60 0 -133.5 -54t-134 -132t-107.5 -164t-63 -152q-7 -31 20 -49q6 -3 6 -10q0 -9 -10 -16q-40 -27 -117 -27 q-38 0 -61 23.5t-25 52.5zM489 899q82 35 161.5 96.5t135 126t89.5 126.5t34 102q0 7 -0.5 9.5t-2 7.5t-6.5 7t-13 2q-49 0 -166.5 -144.5t-231.5 -332.5z" />
<glyph unicode="i" horiz-adv-x="462" d="M-84 121q0 45 31 98q24 41 86 147t96 165.5t43 78.5q14 28 14 49q0 19 -14 31.5t-14 14.5q0 7 10 14q38 24 96 24q46 0 71 -21t25 -56q0 -32 -20 -68q-11 -20 -98.5 -167.5t-130.5 -233.5q-11 -19 -11 -37q0 -39 47 -39q158 0 431 368q23 33 34 33q9 0 14 -16t5 -29 t-3 -25t-12 -27.5t-14.5 -23t-21 -27.5t-19.5 -26q-49 -64 -105 -121.5t-122.5 -110t-139 -83.5t-139.5 -31q-58 0 -98.5 31t-40.5 88zM352 940q0 53 44.5 98t99.5 45q27 0 44 -18.5t17 -48.5q0 -51 -41.5 -95t-93.5 -44q-28 0 -49 17t-21 46z" />
<glyph unicode="j" horiz-adv-x="331" d="M-776 -453q0 66 42 130.5t109 113.5t146.5 88t157.5 60.5t141 25.5q35 55 189 323t196 343q14 25 14 51q0 19 -14.5 31t-14.5 14q0 5 13 14q36 21 78 25h16q46 0 71 -19t25 -53q0 -30 -24 -73q-184 -327 -383 -666h6q66 0 107.5 -34t41.5 -91q0 -46 -33.5 -79.5 t-82.5 -33.5q-27 0 -45.5 11.5t-18.5 21.5q25 10 25 57q0 21 -15 37.5t-37 16.5q-41 -68 -80.5 -123.5t-95.5 -115.5t-113.5 -101t-131 -67.5t-150.5 -26.5q-62 0 -100.5 32.5t-38.5 87.5zM-700 -438q0 -27 16 -43.5t49 -16.5q43 0 93.5 29t91 67.5t88.5 96.5t73.5 94.5 t57.5 83.5q-56 -7 -135.5 -37t-154 -72.5t-127 -97.5t-52.5 -104zM354 977q0 53 44.5 98t99.5 45q27 0 44 -18.5t17 -48.5q0 -51 -42 -95.5t-93 -44.5q-28 0 -49 17.5t-21 46.5z" />
<glyph unicode="k" horiz-adv-x="843" d="M-109 70q0 7 9 34q11 26 353.5 615.5t350.5 605.5q17 42 14 57t-15.5 25t-12.5 14q0 6 10 13q38 24 96 24q70 0 92 -37q8 -14 8 -31q0 -31 -24 -75q-9 -16 -236.5 -406t-248.5 -430q0 -6 2 -8q4 4 38 37t52 50t57.5 52t67.5 55.5t69 48.5t74 43t71.5 26.5t72.5 11.5 q55 0 89.5 -33.5t34.5 -79.5q0 -52 -33 -91.5t-85 -39.5q-30 0 -54 23t-24 55q0 33 24 54.5t54 21.5q10 0 10 8t-10 8q-67 0 -145.5 -48.5t-170.5 -127.5q-12 -74 -12 -117q0 -56 6.5 -105.5t22 -95t44 -72t68.5 -26.5q32 0 72.5 26t77.5 65t79 91t73 96.5t63.5 90 t46.5 63.5q10 12 22.5 4.5t16.5 -30.5q1 -2 1 -6q0 -9 -4 -25q-4 -24 -16 -41q-6 -7 -38.5 -54.5t-65 -93.5t-84.5 -105.5t-100.5 -103.5t-108.5 -75t-113 -31q-56 0 -100 47.5t-65 114.5t-21 135q0 63 8 129q0 6 -4 2q-1 -1 -17 -12.5t-41.5 -32.5t-55.5 -49t-64 -69.5 t-61 -86.5q-39 -70 -39 -94q0 -20 14 -34t14 -17q0 -12 -35 -24.5t-69 -12.5q-51 0 -78 19.5t-27 54.5z" />
<glyph unicode="l" horiz-adv-x="423" d="M-145 115q0 48 32 102q171 304 281 483q-49 14 -78 45.5t-29 77.5q0 44 28.5 82.5t76.5 38.5q40 0 51 -24q1 -3 -8 -8t-19 -17t-10 -29q0 -50 51 -63q126 197 256 356q247 301 402 301q48 0 74 -33t26 -77q0 -103 -60 -213t-153.5 -198t-210.5 -153.5t-229 -85.5 q-40 -69 -127 -231t-109 -197q-41 -69 -41 -108q0 -19 16 -33t42 -14q49 0 115 41t126 99.5t113 117t88 100.5t39 43q16 3 16 -47q0 -42 -18 -63q-63 -79 -121 -141.5t-134.5 -128t-159 -102t-161.5 -36.5q-165 0 -165 115zM410 819q66 22 136.5 62.5t135.5 94t117 113 t83 125.5t31 125q0 37 -36 37q-19 0 -44.5 -15t-54.5 -43t-58 -60.5t-62.5 -77t-61 -82t-59.5 -85.5t-51.5 -77.5t-44.5 -68.5t-31 -48z" />
<glyph unicode="m" horiz-adv-x="1161" d="M-127 74q0 60 59 159q18 31 105 173q107 167 131 229q12 30 12 45q0 20 -13 33t-13 14q0 11 23 19t54 8q42 0 72.5 -16t30.5 -50q0 -43 -55 -117q-2 -3 0 -3l6 3l4 4q98 97 168.5 137t134.5 40q60 0 95.5 -28.5t35.5 -74.5q0 -16 -6 -31q-3 -8 -2 -8q4 2 6 4 q169 129 278 129q60 0 92.5 -33.5t32.5 -88.5q0 -42 -36.5 -116t-92.5 -168.5t-77 -141.5q-9 -18 -9 -31q0 -23 15.5 -38t40.5 -15q56 0 171.5 130t188.5 246q26 43 37 43q22 0 22 -43q0 -35 -6 -47q0 -8 -29.5 -54.5t-81 -111.5t-111.5 -127t-131 -105.5t-130 -43.5 q-74 0 -116 33.5t-42 91.5q0 53 33 122.5t72.5 124t72.5 109.5t33 82q0 49 -49 49q-70 0 -148.5 -71t-134.5 -163t-93.5 -175t-37.5 -113q0 -20 19 -29q8 -3 8 -12q0 -7 -6 -10q-5 -5 -15 -11.5t-41.5 -18t-64.5 -11.5q-86 0 -86 88q0 34 53.5 129.5t114.5 194t70 124.5 q4 12 4 21q0 20 -12.5 33.5t-32.5 13.5q-80 0 -177.5 -90t-168.5 -206t-93 -206q-7 -30 21 -49q6 -3 6 -10q0 -9 -10 -16q-40 -27 -117 -27q-39 0 -61.5 24t-22.5 54z" />
<glyph unicode="n" horiz-adv-x="829" d="M-104 74q0 60 59 159q32 56 104 173q131 205 142 262q4 21 -2.5 32.5t-14.5 17t-8 9.5q0 10 23.5 18.5t50.5 8.5q50 0 78 -16.5t28 -45.5q0 -23 -10 -47t-18.5 -37.5t-26.5 -36.5q-2 -3 0 -3l6 3l4 4q98 97 168.5 137t134.5 40q56 0 91.5 -28.5t35.5 -74.5 q0 -65 -35 -140.5t-93 -169t-81 -144.5q-8 -16 -8 -31q0 -49 62 -49q29 0 73 33t83.5 75t92 109t80 105t66.5 93q29 0 29 -53q0 -35 -21 -61q-4 -6 -31.5 -44.5t-44.5 -61.5t-52.5 -66.5t-62.5 -72t-67 -64t-75 -56.5t-77 -36t-81 -15q-70 0 -108 35t-38 88t33 122.5 t72.5 124t72.5 109.5t33 82q0 16 -12 27.5t-33 11.5q-60 0 -133.5 -54t-134 -132t-107.5 -164t-63 -152q-7 -31 20 -49q6 -3 6 -10q0 -9 -10 -16q-40 -27 -116 -27q-39 0 -61.5 24t-22.5 54z" />
<glyph unicode="o" horiz-adv-x="679" d="M-35 170q0 82 50.5 185.5t128.5 192.5t181.5 149.5t198.5 60.5q67 0 107.5 -35t40.5 -92q0 -75 -37 -156t-100 -178q9 -2 19 -2q43 0 106 46q77 57 159 173q6 8 15 8q16 0 16 -55q0 -32 -25 -66q-84 -107 -179 -159q-87 -47 -171 -47h-16q-85 -97 -160 -144t-168 -47 q-83 0 -124.5 43.5t-41.5 122.5zM135 195q0 -86 84 -86q70 0 164 106q-59 34 -59 92q0 43 30.5 75t71.5 32q48 0 76 -25q31 41 60.5 115t29.5 108q0 36 -20 55t-56 19q-50 0 -117.5 -51.5t-125 -125.5t-98 -161t-40.5 -153z" />
<glyph unicode="p" horiz-adv-x="776" d="M-453 -492q1 18 15.5 52t41 81.5t51 89.5t59.5 100.5t53 90.5q204 351 337 586q68 116 68 166q0 42 -31 59q-6 3 -6 10q0 8 8 13q35 22 90 22q39 0 65 -27t26 -65q0 -14 -7 -35l1 -1q5 1 16 12q103 96 209 96h6q78 -1 121 -55t43 -132q0 -136 -76.5 -259t-198.5 -199 q-18 -12 -18 -19q0 -3 1.5 -5t4.5 -1q69 9 143.5 50.5t130.5 89.5t113.5 113t83.5 100t51 71q10 10 15 10q12 0 12 -37q0 -48 -12 -65q-284 -420 -644 -420q-132 0 -196 43q-27 16 -27 51q0 23 13 23q5 0 34.5 -4t51.5 -4q90 1 176.5 61.5t140 156t53.5 191.5q0 58 -26 90.5 t-66 32.5q-59 0 -121 -54t-108 -134q-62 -106 -175.5 -304t-200.5 -348.5t-112 -193.5q-30 -50 -30 -90q0 -12 9 -19.5t19 -7.5h2q6 0 6 -8q0 -5 -8 -10q-66 -41 -121 -41q-45 0 -67 20q-19 18 -19 51v6z" />
<glyph unicode="q" horiz-adv-x="729" d="M-63 164q0 82 50.5 186t128 193t181 150t199.5 61q49 0 83 -21t50 -55q60 76 135 76q43 0 71.5 -14.5t28.5 -32.5l-12 -5q-12 -4 -39.5 -30t-58.5 -76q-141 -219 -308 -537q-9 -18 -69 -114t-106 -181.5t-46 -119.5q0 -58 49 -58q43 0 141.5 104.5t143.5 190.5 q2 7 15 -14q6 -11 8 -19q3 -11 3 -23q0 -31 -20 -67q-22 -36 -57.5 -79.5t-90 -96.5t-125.5 -88t-140 -35q-38 0 -74.5 37t-36.5 101q0 38 17.5 82t64.5 126q21 37 71 124.5t72 125.5q-76 -57 -168 -57q-80 0 -120.5 48t-40.5 118zM109 211q0 -43 19 -70.5t54 -27.5 q118 0 228 190l120 209q35 65 35 104q0 64 -76 64q-66 0 -158 -89t-157 -201t-65 -179z" />
<glyph unicode="r" horiz-adv-x="667" d="M-51 90q0 44 68.5 165.5t137 241t68.5 160.5q0 22 -7 35t-17 13q-9 0 -9 8q0 7 15 14q1 1 10.5 6t15.5 7.5t16.5 6t22.5 5.5t25 2q43 0 60.5 -23t17.5 -67q0 -28 -21 -66q127 156 256 156q54 0 84.5 -38t30.5 -81q0 -46 -35 -82.5t-78 -36.5q-33 0 -55.5 21.5t-22.5 54.5 q0 7 2.5 14.5t5.5 13t7.5 11.5t7.5 9l7 7l5 4l2 6q0 7 -8 7q-40 0 -117.5 -77t-150 -177t-127.5 -201.5t-55 -145.5q0 -22 28 -22q8 0 8 -8q0 -3 -10 -13q-32 -20 -80 -20q-44 0 -76 22t-32 68z" />
<glyph unicode="s" horiz-adv-x="696" d="M-4 123q0 20 13.5 40.5t25.5 20.5q1 0 4.5 -8.5t12 -21t21 -25t35 -21t50.5 -8.5q105 0 166 80.5t61 188.5q0 71 -27 129q-12 -17 -28 -39.5t-24.5 -34.5t-17.5 -24t-15 -15t-9 0q-10 10 -16 39.5t0 38.5q69 95 69 102q-1 7 -1 14q0 42 21 88q24 54 59.5 94.5t75 67.5 t67.5 27q47 0 47 -53q0 -40 -54 -120t-104 -114q-2 -6 -2 -16q0 -19 17.5 -49t38 -59t38 -73t17.5 -87q0 -87 -91 -185q-6 0 -6 -4t9 -4q97 26 172.5 74t136.5 147q0 1 6 10.5t11.5 14.5t10.5 4q8 -2 13.5 -18t5.5 -37q0 -45 -23 -74q-74 -96 -208 -161.5t-318 -65.5 q-100 0 -180 40t-80 97z" />
<glyph unicode="t" horiz-adv-x="407" d="M-106 121q0 104 296 553q-92 2 -104 2q-25 0 -41 -8q-12 -5 -15 2t1 14q7 18 20 37q23 33 55 41q25 6 100 6h44q25 42 56.5 105t35.5 75q7 21 0.5 35.5t-13 17.5t0.5 11q32 24 80 24q47 0 76.5 -19t29.5 -52q0 -31 -24 -74q-16 -31 -72 -123q-3 0 6 0q35 0 86 -2 q81 0 96 18q6 0 6 -12q-21 -98 -118 -98h-136q-43 -74 -231 -402q-41 -69 -41 -108q0 -20 9.5 -33.5t27.5 -13.5q49 0 109 34.5t111.5 82.5t102.5 107.5t81.5 101.5t50.5 73q2 4 6 4q3 0 7.5 -8.5t8.5 -26.5t4 -41q0 -20 -69 -108q-110 -145 -246.5 -240.5t-263.5 -95.5 q-58 0 -95.5 31.5t-37.5 89.5z" />
<glyph unicode="u" horiz-adv-x="856" d="M-88 119q0 45 31 98q222 387 231 404q14 28 14 47t-14 32t-14 15q0 7 10 14q40 25 94 25q48 0 75.5 -18.5t27.5 -53.5q0 -29 -25 -74q-30 -48 -117.5 -200t-118.5 -213q-10 -17 -10 -37q0 -39 47 -39q46 0 98 35t100 94t84.5 113.5t72.5 117.5q46 81 67.5 122t25 50.5 t3.5 16.5q0 19 -14.5 32t-14.5 15q0 7 10 14q40 25 95 25q48 0 75 -18.5t27 -53.5q0 -30 -24 -74q-30 -48 -117.5 -200t-118.5 -213q-10 -17 -10 -37q0 -39 47 -39q50 0 111.5 37t122 98.5t107 117.5t89.5 115q11 14 19.5 26.5t11 15.5t4.5 3q6 0 11 -19t5 -38 q0 -8 -0.5 -15t-3 -14.5t-4.5 -12.5t-6.5 -13.5t-7 -12.5t-9.5 -14t-9.5 -13.5t-12 -15.5t-12.5 -16q-49 -64 -105.5 -122t-123 -110.5t-140 -84t-139.5 -31.5q-59 0 -99.5 31t-40.5 90q-145 -121 -266 -121q-59 0 -99 30.5t-40 88.5z" />
<glyph unicode="v" horiz-adv-x="675" d="M-43 147q0 34 25 93t51.5 106.5t77.5 132.5q49 84 68.5 129t19.5 82q0 21 -8 31t-19 10q-8 0 -8 8q0 6 8 11q66 41 115 41q45 0 68.5 -24.5t23.5 -66.5q0 -53 -84 -198q-160 -270 -160 -328q0 -70 68 -70t149 68q109 93 172 201q-54 45 -63 112q-6 38 -6 71q0 55 16 99 q41 115 127 115q43 0 63 -50q16 -41 16 -97q-1 -12 -1 -26q-4 -72 -29 -138l-20 -51q19 -7 47 -7q21 0 41 6.5t35.5 16.5t28.5 22.5t22.5 25t16 22.5t10.5 17l3 7l9 17q11 22 14.5 26t9.5 -2q19 -19 19 -57q0 -30 -13 -60q-2 -5 -9.5 -15.5t-25.5 -28.5t-39 -33.5t-54 -27 t-68 -11.5q-40 0 -82 10l-23 -39q-61 -99 -155.5 -179.5t-192.5 -105.5q-31 -8 -92 -8q-40 0 -76 11t-66 45t-30 87z" />
<glyph unicode="w" horiz-adv-x="958" d="M-96 141q0 48 39 127t114 205q49 84 68.5 129t19.5 82q0 41 -26 41q-8 0 -8 8q0 5 8 10q66 41 114 41q45 0 69 -24t24 -66q0 -53 -84 -198q-160 -270 -160 -328q0 -70 68 -70t149 68q0 22 4 53.5t21.5 90t46.5 112.5q60 113 109.5 167t97.5 54q36 0 36 -53 q0 -13 -1.5 -27t-3.5 -25.5t-6.5 -26t-7 -23.5t-9 -23.5t-9.5 -21.5t-10.5 -22t-10 -19t-10.5 -18.5t-9 -16.5q-31 -58 -79.5 -123.5t-78.5 -89.5q0 -7 10 -25q28 -51 109 -51q31 0 75 19t86 61q89 89 134 194q-61 45 -70 121q-6 36 -6 68q0 55 16 102q36 115 127 115 q43 0 63 -51q16 -42 16 -97q-1 -13 -1 -26q-4 -72 -29 -138l-14 -36l-6 -15q16 -6 47 -6q21 0 41 6.5t35.5 16.5t28.5 22.5t22.5 25t16 22.5t10.5 17l4 7l8 16q11 23 14.5 26.5t9.5 -1.5q19 -19 19 -50v-8q-6 -75 -71.5 -125.5t-137.5 -50.5q-40 0 -74 9q-58 -130 -137 -209 q-44 -47 -110.5 -80t-118.5 -33q-125 0 -170 86q-120 -88 -250 -88q-40 0 -76 11t-66 45t-30 87z" />
<glyph unicode="x" horiz-adv-x="866" d="M-41 72q0 19 18 34q4 3 10.5 -3.5t22 -14.5t39.5 -6q37 4 76 24t81.5 58.5t77 75.5t83.5 94q11 16 13 103q0 15 1 29q0 64 -6 89q-6 35 -29 35q-18 -1 -47.5 -28.5t-52.5 -57.5t-53 -72t-37 -51q-12 -16 -24 11q-7 17 -7 38q0 25 12 45q173 254 273 254q27 0 46 -12 t28.5 -35t14 -47t3.5 -57.5t-3.5 -57.5t-6.5 -55q82 102 180.5 188t167.5 86q114 0 114 -110q0 -57 -31 -98.5t-81 -41.5q-29 0 -51.5 17t-22.5 47q0 35 19 59t47 29q8 3 8 10q-2 6 -13 6q-38 0 -118 -70t-140.5 -138.5t-60.5 -73.5q0 -30 3 -67t11 -89t28.5 -86.5 t49.5 -34.5q41 0 95 37t107.5 98.5t98.5 121.5t86 124q8 11 22.5 35t24 37.5t13.5 13.5q12 0 12 -35q0 -60 -35 -114q-29 -46 -63.5 -94.5t-85.5 -108.5t-102 -105.5t-111 -76.5t-113 -31q-96 0 -131.5 52t-38.5 194l-14 -15q-185 -225 -322 -225q-86 0 -86 66z" />
<glyph unicode="y" horiz-adv-x="749" d="M-293 -553q0 90 105 231q78 107 203 202t257 126q8 14 26 43t31 49.5t13 22.5v2q-145 -121 -266 -121q-59 0 -99 30.5t-40 88.5q0 47 30 98q207 361 230 404q14 28 14 47t-14.5 32t-14.5 15q0 7 11 14q40 25 94 25q48 0 75 -18.5t27 -53.5q0 -30 -24 -74 q-27 -44 -114.5 -197.5t-119.5 -215.5q-10 -17 -10 -37q0 -39 47 -39q145 0 356 358q92 168 92 191q0 19 -14 32t-14 15q0 7 10 14q40 25 94 25q48 0 75.5 -18.5t27.5 -53.5q0 -29 -25 -74q-19 -30 -174 -307t-160 -289q69 0 113.5 -34.5t44.5 -92.5q0 -46 -34 -79t-83 -33 q-27 0 -45 11t-18 21q32 25 32 72q0 23 -13 36.5t-27 16.5l-13 2q-8 -13 -24 -40q-29 -48 -45 -74.5t-48.5 -78t-55.5 -83t-58.5 -77.5t-64.5 -75t-67 -62.5t-72.5 -52.5t-74 -31.5t-78.5 -12.5q-48 0 -73 26.5t-25 73.5zM-213 -537q0 -18 10 -31.5t25 -13.5 q48 0 106.5 50.5t108 122.5t92.5 144t67 123l25 50q-88 -25 -192.5 -113t-173 -183.5t-68.5 -148.5z" />
<glyph unicode="z" horiz-adv-x="724" d="M-391 -508q0 96 76.5 185.5t187.5 149t231.5 95t214.5 35.5q15 30 23.5 50t18.5 55t2 62.5t-33 45.5q-38 -22 -56 -32t-60.5 -25t-76.5 -15q-32 0 -51.5 15.5t-19.5 42.5q0 40 60 75.5t126 38.5h20q29 0 56 -4q69 48 120.5 91.5t82 80.5t45.5 58t31 52.5t18 35.5q4 8 0 8 q-3 0 -7 -4q-11 -11 -43.5 -36.5t-90.5 -65t-131 -67.5t-136 -28q-104 0 -104 109q0 58 30 128.5t80.5 122.5t100.5 52q17 0 30 -15.5t13 -50.5q0 -114 -129 -243l-9 -9h2q46 0 112.5 28t129 68.5t118 80.5t91.5 68t37 28q18 0 34.5 -10t16.5 -27q0 -103 -115 -253 t-243 -232q60 -42 79 -126q6 -26 6 -54q0 -60 -28 -124q51 -14 75.5 -49t24.5 -73q0 -53 -33.5 -88t-72.5 -35q-23 0 -39 8t-20 16l-5 8q22 5 38 24.5t16 43.5q0 15 -8.5 29t-22.5 20q-60 -112 -174 -222t-243 -180.5t-226 -70.5q-79 0 -124.5 34.5t-45.5 94.5zM-315 -494 q0 -33 24 -50t64 -17q55 0 125.5 41.5t133 101.5t116.5 123.5t86 111.5t32 62q0 1 -2 1h-2q-6 -1 -10 -1q-64 0 -161 -35t-187 -87.5t-154.5 -121.5t-64.5 -129z" />
<glyph unicode="{" horiz-adv-x="696" d="M37 -352q0 62 34 149t76 152q2 2 49.5 80t105.5 178t79 143q31 64 31 111q0 22 -4.5 35.5t-16.5 18.5t-21 6t-29 1h-9q-13 0 -13 8q0 21 23 21q177 0 242 106q268 440 354 566q75 110 181 173.5t212 63.5h99q10 0 10 -6q0 -10 -10 -21.5t-27 -11.5q-96 0 -195 -85 t-166 -201q-113 -194 -276 -441q-115 -172 -283 -172q-27 0 -29 -4q-1 -2 -1 -4q0 -4 8 -8q76 -48 65 -148q-4 -37 -24.5 -88t-51.5 -105t-57.5 -96t-55 -84t-30.5 -46q-6 -6 -41.5 -60.5t-75.5 -141t-40 -140.5q0 -41 11.5 -76t25 -52.5t25 -30.5t11.5 -16 q0 -9 -11.5 -13.5t-18.5 -4.5q-53 0 -104.5 80t-51.5 164z" />
<glyph unicode="|" horiz-adv-x="1032" d="M-95 -558.5q-2 8.5 6.5 27.5t16.5 33.5t23 40.5l1190 1975q32 53 122.5 113.5t125.5 60.5q29 0 -15 -77q-5 -10 -18 -32l-1190 -1976q-32 -52 -122.5 -113t-125.5 -61q-11 0 -13 8.5z" />
<glyph unicode="}" horiz-adv-x="839" d="M-438 -518q9 18 30 18q51 1 97 24.5t86.5 70t68 87.5t64.5 105q44 75 182.5 290.5t196.5 303.5q35 53 115 91t145 38q35 0 35 8q0 3 -2.5 5t-7 4.5t-7.5 4.5q-41 31 -58.5 60t-17.5 78q0 26 9 58.5t21.5 61t31.5 62.5t32 54.5t30 46.5t20 30q5 5 47 73t87.5 158.5 t45.5 128.5q0 87 -41 154q-4 6 -4 10t3.5 8.5t8.5 4.5l13 -7q75 -83 102 -141.5t27 -109.5q0 -107 -119 -289q-1 -1 -25.5 -42t-60 -102.5t-58.5 -103.5q-38 -68 -38 -117q0 -46 26 -67t64 -21q12 0 12 -8q0 -4 -6 -10q-8 -8 -19 -8h-18q-46 0 -82.5 -13.5t-87.5 -54.5 q-47 -38 -144.5 -185.5t-209.5 -331t-142 -228.5q-77 -113 -158 -166.5t-184 -53.5q-107 0 -110 21z" />
<glyph unicode="~" d="M322 420q4 18 33.5 56t82.5 75t103 37q61 0 118 -19.5t101 -39t76 -19.5q39 0 73.5 18t52.5 39.5t32 39.5t18 18q10 0 10 -17q0 -10 -9.5 -33t-28.5 -53.5t-44 -58.5t-61 -47t-74 -19q-53 0 -155.5 40t-127.5 40q-40 0 -73.5 -8t-53 -19t-33 -22.5t-21.5 -18.5t-11 -6 q-11 0 -8 17z" />
<glyph unicode="&#xa1;" horiz-adv-x="681" d="M-367 -766q0 5 5 8.5t21.5 12.5t33.5 20q37 25 89 103.5t142 263.5q43 87 81.5 157.5t85 141t89 118.5t88.5 77.5t88 29.5q18 0 23.5 -2t3.5 -8q-1 -3 -4.5 -5t-11.5 -5.5t-15 -8.5q-154 -110 -289 -538q-35 -109 -71.5 -186.5t-67.5 -120.5t-67 -67.5t-63.5 -31 t-63.5 -6.5q-48 0 -72.5 13.5t-24.5 33.5zM350 469q32 47 73 62.5t77 -3.5q36 -20 37.5 -64t-31.5 -93q-32 -45 -77 -57t-77 14q-68 50 -2 141z" />
<glyph unicode="&#xa2;" horiz-adv-x="663" d="M-41 -223l145 239q-88 42 -88 150q0 80 48.5 181t123.5 189t174.5 151t192.5 69l123 205h78l-127 -211q38 -12 60 -40.5t22 -64.5q0 -55 -37.5 -95t-93.5 -40q-33 0 -57.5 22t-24.5 52q0 36 25 58t52 22q4 0 7.5 3t3.5 5q0 10 -23 10q-57 -4 -124.5 -56t-120 -123.5 t-88 -152t-35.5 -137.5q0 -50 29.5 -75t82.5 -25t111.5 23t109.5 59.5t100 80.5t87.5 88.5t68 81t44.5 59.5l16 23q5 0 9.5 -12.5t4.5 -30.5q0 -48 -12 -65q-56 -83 -121.5 -153.5t-146.5 -132.5t-178.5 -98t-198.5 -36h-27l-137 -223h-78z" />
<glyph unicode="&#xa3;" horiz-adv-x="1595" d="M-162 86q0 39 29 69.5t71.5 45t78 21.5t59.5 7q22 0 43 -2t36.5 -5t27.5 -6t18.5 -5t7.5 -2q92 72 201 326l-254 -3l53 76q0 -2 231 -2q42 170 105.5 302t131.5 210.5t147 129t146 69t134 18.5q111 0 175 -54.5t64 -143.5q0 -81 -40.5 -158t-101.5 -129t-133 -83.5 t-136 -31.5q-24 0 -41 10.5t-17 30.5q0 12 9 27q130 3 222.5 104t92.5 219q0 63 -39.5 96t-87.5 33q-57 0 -111.5 -26t-97.5 -65t-86 -99.5t-72.5 -113.5t-61 -124t-48.5 -114t-37 -99l289 2l-49 -71l-265 -2q-39 -90 -109.5 -189.5t-135.5 -169.5q26 -11 93.5 -48.5 t125 -60t108.5 -22.5q61 0 117 23t93.5 55.5t66 65.5t43.5 56l14 23q7 0 18 -18.5t11 -28.5q0 -119 -111 -220t-245 -101q-56 0 -111 20t-97 48t-79 56t-70 48t-57 20q-35 -38 -114 -65t-148 -27q-45 0 -76 22.5t-31 55.5z" />
<glyph unicode="&#xa5;" horiz-adv-x="1783" d="M205 -324q0 98 58.5 163t154.5 65q53 0 85 -35t32 -82q0 -49 -28.5 -83t-78.5 -34q-29 0 -50 17t-31 34t-13 17q-8 0 -16.5 -22.5t-8.5 -45.5q0 -36 18 -74.5t50.5 -73t86.5 -57t118 -22.5q156 0 294.5 103t227.5 298q-26 0 -95 4t-110 5t-86 -6t-61 -23q-13 4 -13 24 q0 32 49.5 66.5t112.5 34.5h254l6 8q89 238 142 383q-55 -46 -89 -72.5t-88 -63.5t-96.5 -57t-97 -34.5t-107.5 -14.5q-104 0 -171.5 65t-67.5 159q0 82 31 167.5t81 157t110 139t120.5 120t110.5 92t81 62.5t31 25l-49 -6q-21 -2 -39 -2q-42 0 -150.5 32t-162.5 32 q-73 0 -131 -25t-91 -64.5t-50 -83.5t-17 -87q0 -72 31 -103q2 -2 2 -4q0 -13 -27 -16q-48 -5 -77 37q-23 33 -23 90q0 166 127 287.5t297 121.5q47 0 96.5 -16t85.5 -35.5t91.5 -35.5t113.5 -17q40 0 76.5 15.5t57 33.5t38 33.5t24.5 15.5q10 0 17.5 -21.5t3.5 -50.5 t-23 -45q-97 -82 -188.5 -172t-187 -200.5t-154 -220.5t-58.5 -195q0 -62 45 -97.5t101 -35.5q57 0 147.5 44.5t167 106.5t98.5 111q71 158 147 282t140 192.5t114.5 103t84.5 34.5q14 0 25.5 -12.5t11.5 -30.5q0 -59 -101.5 -216.5t-300.5 -377.5q-34 -37 -56 -137.5 t-38 -230.5t-27 -174q269 -10 302 18q10 -42 -37.5 -82.5t-91.5 -40.5l-197 2q-87 -221 -288.5 -359t-444.5 -138q-161 0 -271 99.5t-110 231.5z" />
<glyph unicode="&#xa6;" horiz-adv-x="1189" d="M-74 -479.5q2 7.5 4.5 13t8.5 15.5l473 787q13 20 80 43.5t102 23.5q36 0 6 -43l-473 -784q-11 -22 -78.5 -46t-103.5 -24q-11 0 -16 3.5t-3 11zM575 606l474 787q13 21 80 45t102 24q15 0 18 -7t0 -15.5t-12 -22.5l-473 -784q-11 -22 -78.5 -46t-103.5 -24q-33 0 -7 43z " />
<glyph unicode="&#xa7;" d="M113 -152q0 75 50.5 130t110.5 55q55 0 84 -32t29 -85q0 -43 -27 -72.5t-71 -29.5q-21 0 -39.5 11.5t-26 21.5t-10.5 18q-8 -20 -8 -43q0 -64 61.5 -106t134.5 -42q53 0 108 22t101 60.5t75.5 98t29.5 127.5q0 78 -20 161t-43.5 143.5t-43.5 140.5t-20 151t24.5 136 t90 130.5t165.5 107.5q19 148 138 263.5t272 115.5q128 0 202 -58.5t74 -158.5q0 -53 -34.5 -96t-85.5 -43q-54 0 -85.5 29.5t-31.5 70.5q0 38 27.5 71.5t78.5 33.5q-42 59 -161 59q-39 0 -78.5 -15t-75 -44.5t-58 -79.5t-22.5 -113q0 -65 21.5 -140t48 -134.5t48 -143 t21.5 -163.5q0 -159 -83.5 -276.5t-217.5 -170.5q-32 -98 -90.5 -172.5t-125.5 -114.5t-128.5 -59t-115.5 -19q-124 0 -208.5 67t-84.5 187zM756 645q0 -63 20 -134t44 -127t44 -144t19 -183q125 71 125 238q0 69 -21 153t-47 149.5t-47 140.5t-21 128q-5 -2 -12.5 -6 t-27.5 -21.5t-35.5 -39.5t-28 -63.5t-12.5 -90.5z" />
<glyph unicode="&#xa8;" d="M449 1014q0 50 37 88.5t87 38.5q52 0 52 -56q0 -45 -35.5 -86t-81.5 -41q-59 0 -59 56zM690 1014q0 50 37.5 88.5t87.5 38.5q51 0 51 -56q0 -45 -35.5 -86t-80.5 -41q-60 0 -60 56z" />
<glyph unicode="&#xa9;" horiz-adv-x="1206" d="M215 608q0 134 81.5 260.5t216.5 205.5t282 79q168 0 251.5 -69t83.5 -187q0 -105 -59 -205.5t-163 -165.5t-222 -65q-83 0 -134.5 36t-51.5 101q0 75 46.5 159t122.5 141.5t152 57.5q40 0 66 -22t26 -53q0 -38 -18.5 -58t-46.5 -20q-19 0 -31 10.5t-12 28.5q0 17 16 37 q13 17 8 22v-2q-31 20 -84 -24.5t-93 -117.5t-40 -128q0 -47 29.5 -74t83.5 -27q67 0 138.5 52t119 136t47.5 167q0 100 -58 156.5t-169 56.5q-77 0 -162 -41t-154 -106.5t-114 -155t-45 -177.5q0 -126 83.5 -201t225.5 -75q125 0 227 45t189 150q7 9 18 -11q14 -27 2 -51 q-15 -30 -56.5 -66.5t-100 -71t-138.5 -58t-160 -23.5q-180 0 -291.5 95.5t-111.5 258.5z" />
<glyph unicode="&#xaa;" horiz-adv-x="884" d="M172 862q0 64 38.5 143.5t98.5 148.5t140 116t155 47q76 0 103 -60q47 60 104 60q33 0 54.5 -12t21.5 -25q0 -1 -8.5 -4t-30 -22.5t-45.5 -57.5q-2 -3 -25 -39t-33.5 -53.5t-33 -54.5t-35 -60.5t-27 -52.5t-21.5 -49t-7 -33q0 -55 63 -55q54 0 129.5 60t110.5 120 q3 4 6 10t5.5 9t6.5 3q7 0 14 -15t7 -28q0 -15 -17 -36q-26 -37 -68.5 -79t-114 -82t-136.5 -40q-54 0 -94.5 28t-40.5 66q0 8 -7 8q-3 0 -6 -2t-5 -4l-1 -2q-92 -82 -176 -82q-62 0 -93.5 37t-31.5 92zM303 897q0 -33 15 -53.5t42 -20.5q94 0 177 146l94 161q24 40 24 80 q0 50 -55 50q-51 0 -123 -69t-123 -156t-51 -138z" />
<glyph unicode="&#xab;" horiz-adv-x="600" d="M137 584q0 22 37 22q74 0 158 35.5t153 88.5t121.5 105t79.5 93q3 6 8 6q13 0 13 -29q0 -13 -17.5 -46.5t-50.5 -77t-73.5 -86t-92.5 -76.5t-102 -46q-9 -3 -9 -8q0 -2 5 -12q43 -82 43 -178q0 -74 -21 -142t-51 -111t-61.5 -69t-53.5 -26q-6 0 -9 3.5t3 10.5 q76 101 76 201q0 109 -40.5 198.5t-94.5 118.5q-21 13 -21 25z" />
<glyph unicode="&#xad;" horiz-adv-x="864" d="M145 346q0 41 45 93.5t76 52.5l320 -11q42 0 74 3.5t49.5 9t30 12t17 12t8 9t5.5 3.5q8 -2 8 -14q0 -32 -43 -84.5t-76 -52.5q-69 0 -191.5 4t-199.5 4q-26 0 -46 -6t-30 -14.5t-16 -17.5t-9 -15t-5 -6q-17 0 -17 18z" />
<glyph unicode="&#xae;" horiz-adv-x="1579" d="M100 629q0 100 51.5 196.5t135 168.5t196.5 116.5t230 44.5q145 0 239.5 -75t94.5 -199q0 -74 -34 -147.5t-86.5 -127t-116 -86.5t-120.5 -33q-59 0 -93 44t-34 122q0 34 11 45t67 25q50 14 96.5 60.5t46.5 84.5q0 27 -32 27q-27 0 -70.5 -29t-85.5 -92 q-12 -18 -40.5 -61.5t-48.5 -73t-45.5 -63t-47 -51t-37.5 -17.5q-12 0 -29.5 9.5t-9.5 17.5q89 94 170 249q27 54 27 88q0 31 -25 31q-51 0 -115 -59q-8 0 -8 14q0 3 1 8.5t1 7.5q6 31 60.5 62t105.5 31t51 -62q0 -15 -3.5 -32.5t-7 -29.5t-3.5 -14q2 0 13.5 13.5t30 32.5 t40.5 37.5t51.5 32t56.5 13.5q47 0 66.5 -23.5t19.5 -57.5q0 -63 -68.5 -120t-148.5 -73q-6 -18 -6 -41q0 -37 19 -64.5t55 -27.5q43 0 95 48.5t90 128t38 155.5q0 93 -64 148.5t-190 55.5q-122 0 -236.5 -65.5t-185.5 -175t-71 -230.5q0 -55 20 -107t56.5 -95t95.5 -69 t131 -26q273 0 442 207q2 2 4 2q12 0 12 -43q0 -33 -39 -75t-101.5 -79.5t-150 -63t-173.5 -25.5q-181 0 -287.5 109.5t-106.5 277.5z" />
<glyph unicode="&#xb0;" horiz-adv-x="518" d="M79.5 1093.5q-22.5 46.5 12.5 114.5q35 69 106.5 116.5t139.5 47.5q69 0 92 -47.5t-12 -116.5q-37 -72 -108.5 -116.5t-139.5 -44.5t-90.5 46.5zM152.5 1141q14.5 -29 52.5 -29q39 0 83 28.5t64 67.5q20 40 5.5 69.5t-54.5 29.5q-38 0 -81.5 -29.5t-63.5 -69.5 q-20 -38 -5.5 -67z" />
<glyph unicode="&#xb1;" horiz-adv-x="890" d="M18 139q0 41 45 93.5t76 52.5l496 -11q42 0 74 3.5t49.5 9.5t30 12t17 12t8 9.5t5.5 3.5q8 -3 8 -15q0 -32 -42.5 -84.5t-75.5 -52.5q-69 0 -280 4t-288 4q-42 0 -66 -15t-31.5 -29.5t-8.5 -14.5q-17 0 -17 18zM51 500q0 45 44.5 92t84.5 45l205 -6q15 27 38 66.5 t31.5 56t16.5 37.5t8 36t-6 23.5t-12 9.5l-6 2q7 15 26 27t43 12q42 0 64 -22t22 -58q0 -16 -9.5 -38t-20 -40t-35 -56t-39.5 -62h90q59 0 96 12.5t50.5 24.5t15.5 12q8 -3 8 -15q0 -25 -11.5 -58.5t-43.5 -65t-76 -31.5q-51 0 -195 4q-37 -67 -53.5 -98.5t-31.5 -69 t-15 -57.5q0 -15 6 -23.5t12 -9.5l7 -2q-10 -22 -26 -30.5t-44 -8.5q-42 0 -64 22t-22 58q0 11 2.5 23.5t9.5 28.5t13 28.5t18 34t19.5 33.5t23.5 38l24 39q-26 0 -76 -1t-73 -1q-39 0 -62 -8t-31 -15.5t-9 -7.5q-17 0 -17 19z" />
<glyph unicode="&#xb2;" horiz-adv-x="755" d="M162 948q21 57 89.5 111.5t154.5 87.5q65 27 108 78.5t43 87.5q0 24 -16.5 40.5t-48.5 16.5q-55 0 -103.5 -45.5t-48.5 -85.5q0 -10 3.5 -18t6.5 -10.5t6 -2.5v2q-5 11 4 23t27 12q13 0 23 -11t10 -26q0 -17 -17 -30t-34 -13q-32 0 -50 18t-18 52q0 55 58.5 112.5 t148.5 57.5q49 0 85 -25.5t36 -66.5q0 -129 -240 -219q-50 -16 -93.5 -47.5t-57.5 -57.5q20 12 30 12q24 0 63 -8t58 -8q43 0 74 24t35 46q0 4 3 5t5 -1q10 -8 10 -29q0 -6 -11.5 -24t-31 -38.5t-51.5 -36.5t-66 -16q-17 0 -29.5 2t-26.5 6.5t-15 4.5q-27 10 -68 10 q-32 0 -35 -10l-6 -4q-4 2 -4 4q-10 10 -10 20z" />
<glyph unicode="&#xb3;" horiz-adv-x="720" d="M121 1014q0 30 17 48.5t42 18.5q18 0 28.5 -10.5t10.5 -26.5q0 -17 -9 -26.5t-22 -9.5q-21 0 -26 16q-2 0 -2 -2q0 -30 23 -50t61 -20q74 0 134 56.5t42 124.5q-34 -11 -76 -11q-36 0 -62 15.5t-26 42.5q0 25 28.5 37t51.5 12q67 0 108 -41q18 9 45 39.5t27 64.5 q0 37 -24 56.5t-64 19.5q-37 0 -65.5 -17.5t-28.5 -37.5q0 -5 2.5 -9.5t5.5 -6t4 -1.5h14q1 1 3 1.5t5 -2.5t3 -11q0 -11 -12 -23t-33 -12q-43 0 -43 45q0 42 41.5 76.5t113.5 34.5q40 0 70 -11t44.5 -25.5t23.5 -33t10.5 -28t1.5 -15.5q0 -11 -3.5 -24.5t-14 -32.5t-35 -40 t-60.5 -38q23 -30 23 -76q0 -64 -72 -115t-176 -51q-60 0 -94.5 30.5t-34.5 68.5zM295 1182q0 -23 49 -23q29 0 62 10q-36 25 -70 25q-41 0 -41 -12z" />
<glyph unicode="&#xb4;" d="M305 909q0 1 29 17.5t72.5 46.5t74.5 61q21 21 44 47t34.5 38.5t25.5 22t27 9.5q23 0 39.5 -14.5t16.5 -38.5q0 -52 -66.5 -103t-144 -78.5t-125.5 -27.5q-13 0 -20 7.5t-7 12.5z" />
<glyph unicode="&#xb6;" horiz-adv-x="1165" d="M-287 238q0 60 43 104.5t115 44.5q43 0 68.5 -27t25.5 -59q0 -26 -7 -44.5t-14 -24.5l-7 -5q-1 3 -3 7t-13 11t-27 7q-21 0 -35.5 -15t-14.5 -42q0 -31 33 -63t98 -32q76 0 153.5 39t138 97t121.5 133.5t101.5 139t79 123.5t54.5 79q1 10 -5 10q-1 0 -18 -13.5 t-45.5 -33.5t-63.5 -39.5t-80 -33t-87 -13.5q-23 0 -44 4.5t-47.5 18.5t-42.5 47.5t-16 82.5q0 51 30.5 120.5t82 143.5t126.5 146.5t158.5 129.5t182.5 92.5t194 35.5q39 0 70.5 -5t48 -12t28.5 -14t17.5 -10t9.5 0q39 25 79.5 39.5t70.5 18t54.5 3.5t37.5 -3l12 -3 q1 1 9.5 7.5t17.5 13t23.5 16t30.5 16.5t34.5 14t40 11t43.5 4q32 0 48.5 -17.5t16.5 -41.5q0 -18 -10 -31.5t-20 -17.5l-11 -4q-10 26 -51 26q-58 0 -139 -75.5t-173.5 -206t-180.5 -265.5t-192.5 -295.5t-176.5 -254.5q-77 -101 -177 -162.5t-202 -61.5q-41 0 -74 8l-7 -5 q-7 -5 -19.5 -13t-29 -18t-38 -20t-45 -18t-51.5 -13t-55 -5q-127 0 -201 63t-74 161zM344 190l2 -4q2 -2 12 -2q7 0 22.5 3.5t49.5 18.5t70 39.5t83.5 74t90.5 114.5q28 43 142 221t191.5 297t170.5 243.5t139 156.5h-17q-20 0 -46 -7t-66 -26.5t-90 -65.5t-99 -112 q-114 -154 -310.5 -464.5t-254.5 -385.5q-18 -23 -41.5 -46.5t-36 -36.5t-12.5 -18zM367 786q4 -51 51 -57q83 -12 211.5 87t183.5 190q37 60 74.5 114t65 88t50 60t33.5 38l11 11q-83 31 -174.5 9t-181.5 -87t-162 -144t-117 -160.5t-45 -137.5v-11z" />
<glyph unicode="&#xb7;" />
<glyph unicode="&#xb8;" d="M463 -240q-4 16 9.5 31.5t28.5 22.5l15 8q0 -4 1.5 -10.5t8 -23t15 -29t26 -23t39.5 -10.5q60 0 60 53q0 20 -19 40t-38 42t-19 47q0 53 82 94h151q-34 -8 -47 -12t-39.5 -13.5t-37.5 -21.5t-11 -27q0 -19 15.5 -35t33.5 -26t33.5 -30t15.5 -46q0 -42 -33 -73.5 t-73 -44.5t-74 -13q-64 0 -99.5 32t-43.5 68z" />
<glyph unicode="&#xb9;" horiz-adv-x="768" d="M256 725q0 27 17.5 64t37.5 66.5t58.5 74.5t57 65t56.5 60q37 34 72 78q-43 -35 -94 -62t-80 -27q-62 0 -62 41l11 1q11 0 30 3t43.5 10t54.5 22.5t59 38.5t60 61.5t56 87.5q6 -1 14.5 -4t22.5 -18t14 -38q0 -34 -49 -109t-108.5 -147.5t-108.5 -146.5t-49 -107 q0 -9 5.5 -15.5t14.5 -6.5q6 0 10 2q-1 -2 -3 -5t-9 -11t-16.5 -14.5t-25.5 -11.5t-34 -5q-27 0 -41 16t-14 37z" />
<glyph unicode="&#xba;" horiz-adv-x="649" d="M-63 1020q0 54 33 121t83.5 125t118 97.5t129.5 39.5q44 0 70 -22.5t26 -59.5q0 -34 -14.5 -74.5t-30.5 -69t-43 -71.5q68 0 168 120q6 6 8 9q4 4 9 4q16 0 16 -35q0 -15 -6 -24q-60 -78 -118.5 -108t-121.5 -30q-56 -64 -108 -97.5t-111 -33.5q-52 0 -80 32t-28 77z M47 1036q0 -55 55 -55q45 0 107 70q-39 20 -39 59q0 28 20 49t48 21q29 0 49 -17q20 28 39.5 76t19.5 70q0 49 -51 49q-44 0 -103 -55t-102 -132.5t-43 -134.5z" />
<glyph unicode="&#xbb;" horiz-adv-x="743" d="M74 55q0 13 17.5 46.5t50.5 77t73.5 86t92.5 76.5t102 46q8 3 8 8t-4 13q-43 82 -43 178q0 74 21 142t51 111.5t61 69t53 25.5q6 0 9 -3t-3 -11q-76 -101 -76 -201q0 -109 41 -199t95 -119q20 -12 20 -24q0 -23 -37 -23q-74 0 -158 -35.5t-153 -88t-121.5 -104.5 t-79.5 -93q-3 -6 -8 -6q-12 0 -12 28z" />
<glyph unicode="&#xbc;" horiz-adv-x="968" d="M102 70q0 62 56.5 162.5t141.5 207t184 227.5t184 224.5t141.5 197.5t56.5 146q0 10 -5.5 21t-11 16.5t-7.5 5.5q3 4 10 10t28 15.5t44 7.5q26 -1 39.5 -19t13.5 -45q0 -61 -77.5 -179t-188.5 -252t-222 -269t-188.5 -259t-77.5 -194q0 -14 6.5 -19t13.5 -3l7 2 q0 -74 -84 -74q-28 0 -46 20.5t-18 49.5zM221 668q0 43 26.5 95t69.5 105t88.5 104t92 108.5t71.5 101.5q3 5 1.5 7.5t-5.5 -3.5q-33 -42 -115 -99t-133 -57q-24 0 -37 15t-15 29t-1 26q5 -2 28 0.5t63.5 16t84 37t92.5 72t86 113.5l5 -2.5t10.5 -7.5t13 -13.5t10.5 -22 t5 -31.5q0 -9 -4 -22t-8 -22.5t-10 -22.5t-7 -15q-32 -52 -114 -168.5t-126.5 -196t-44.5 -131.5q0 -40 19 -49q-26 -45 -74 -45q-37 0 -54.5 22t-17.5 56zM373 145q0 36 72.5 137.5t164.5 172.5q96 76 221 131t191 55q20 0 20 -12q0 -7 -19.5 -27t-65 -73.5t-93.5 -122.5 q-61 -90 -114 -197q55 -19 71 -19q18 0 26 7.5t5.5 16.5t-10.5 13q28 8 39.5 -8.5t11.5 -36.5t-19 -46.5t-53 -26.5q-50 0 -108 20q-29 -69 -29 -94q0 -11 2 -19.5t5 -13.5t7 -8t8 -4t8 -1.5t6.5 -0.5h4t0.5 -1.5t-4 -4.5q-31 -35 -94 -35q-42 0 -67 27.5t-5 88.5 q11 41 41 97q-28 4 -45 4q-115 0 -148 -49q-30 0 -30 30zM473.5 219.5q5.5 -4.5 15 -3.5t17.5 5q60 17 108 17q19 0 29 -2q102 152 289 339q-17 -6 -46 -16.5t-102 -49.5t-127 -83q-43 -35 -74.5 -64.5t-53 -55.5t-28.5 -35t-22 -31q-11 -16 -5.5 -20.5z" />
<glyph unicode="&#xbd;" horiz-adv-x="1040" d="M102 70q0 62 56.5 162.5t141.5 207t184 227.5t184 224.5t141.5 197.5t56.5 146q0 10 -5.5 21t-11 16.5t-7.5 5.5q3 4 10 10t28 15.5t44 7.5q26 -1 39.5 -19t13.5 -45q0 -61 -77.5 -179t-188.5 -252t-222 -269t-188.5 -259t-77.5 -194q0 -14 6.5 -19t13.5 -3l7 2 q0 -74 -84 -74q-28 0 -46 20.5t-18 49.5zM221 668q0 43 26.5 95t69.5 105t88.5 104t92 108.5t71.5 101.5q3 5 1.5 7.5t-5.5 -3.5q-33 -42 -115 -99t-133 -57q-24 0 -37 15t-15 29t-1 26q5 -2 28 0.5t63.5 16t84 37t92.5 72t86 113.5l5 -2.5t10.5 -7.5t13 -13.5t10.5 -22 t5 -31.5q0 -9 -4 -22t-8 -22.5t-10 -22.5t-7 -15q-32 -52 -114 -168.5t-126.5 -196t-44.5 -131.5q0 -40 19 -49q-26 -45 -74 -45q-37 0 -54.5 22t-17.5 56zM358 6q10 58 45.5 106t84 79.5t104.5 60t110 55t98.5 55.5t71.5 71t27 93q0 38 -27.5 66.5t-74.5 28.5 q-104 0 -155 -75q-30 -43 -22 -72q4 -11 13 -11l3 11q4 12 15.5 24t32.5 12q24 0 35.5 -16.5t11.5 -38.5q0 -31 -22.5 -55.5t-57.5 -24.5q-36 0 -64 23t-28 67q0 86 78.5 152.5t185.5 66.5q90 0 143.5 -40t53.5 -107q0 -201 -342 -318q-144 -52 -207 -121q-2 -2 -2 -4 t2 -2.5t6 0.5q21 14 60 14q38 0 99 -29.5t83 -29.5q94 0 153 113q17 -14 17 -35q0 -17 -10.5 -43t-32.5 -57t-66.5 -52.5t-103.5 -21.5q-44 0 -111.5 41t-99.5 41q-11 0 -23 -6t-21 -14.5t-16.5 -17t-11.5 -13.5l-4 -5l-8 5q-8 4 -16 11t-7 13z" />
<glyph unicode="&#xbe;" horiz-adv-x="960" d="M0 768q0 34 25 59t61 25q32 0 49 -19t17 -45q0 -22 -12 -33.5t-29 -11.5q-15 0 -26 4.5t-15 9.5l-4 5q-3 3 -6 1.5t-3 -5.5q0 -36 39.5 -60t102.5 -24q102 0 170.5 66.5t68.5 158.5q0 18 -6 33q-46 -12 -113 -12q-55 0 -95 19t-40 58q0 26 32.5 42t82.5 16q65 0 147 -45 q9 5 31 21t50 52.5t28 71.5q0 43 -30 71.5t-89 28.5q-49 0 -90 -20.5t-41 -48.5q0 -11 7.5 -21t19.5 -10q7 0 13.5 3t9.5 6l3 3q4 -10 4 -28q0 -22 -21 -38t-50 -16q-45 0 -65.5 21.5t-20.5 52.5q0 51 64 96t163 45q42 0 78 -7t71 -24t55.5 -50t20.5 -80q0 -15 -4.5 -32 t-18 -43t-47.5 -54t-85 -52q41 -62 41 -122q0 -58 -31 -102.5t-81.5 -69t-105 -36.5t-110.5 -12q-83 0 -149 40t-66 112zM141 70q0 62 56.5 162.5t141.5 207t184 227.5t184 224.5t141.5 197.5t56.5 146q0 10 -5.5 21t-11 16.5t-7.5 5.5q3 4 10 10t28 15.5t44 7.5 q26 -1 39.5 -19t13.5 -45q0 -61 -77.5 -179t-188.5 -252t-222 -269t-188.5 -259t-77.5 -194q0 -14 7 -19t13 -3l7 2q0 -74 -84 -74q-28 0 -46 20.5t-18 49.5zM240 989q0 -7 20 -13.5t39 -6.5q48 0 94 16q-41 23 -84 23q-69 0 -69 -19zM373 145q0 36 72.5 137.5t164.5 172.5 q96 76 221 131t191 55q20 0 20 -12q0 -7 -19.5 -27t-65 -73.5t-93.5 -122.5q-61 -90 -114 -197q55 -19 71 -19q18 0 26 7.5t5.5 16.5t-10.5 13q28 8 39.5 -8.5t11.5 -36.5t-19 -46.5t-53 -26.5q-50 0 -108 20q-29 -69 -29 -94q0 -11 2 -19.5t5 -13.5t7 -8t8 -4t8 -1.5 t6.5 -0.5h4t0.5 -1.5t-4 -4.5q-31 -35 -94 -35q-42 0 -67 27.5t-5 88.5q11 41 41 97q-28 4 -45 4q-115 0 -148 -49q-30 0 -30 30zM473.5 219.5q5.5 -4.5 15 -3.5t17.5 5q60 17 108 17q19 0 29 -2q102 152 289 339q-17 -6 -46 -16.5t-102 -49.5t-127 -83q-43 -35 -74.5 -64.5 t-53 -55.5t-28.5 -35t-22 -31q-11 -16 -5.5 -20.5z" />
<glyph unicode="&#xbf;" horiz-adv-x="681" d="M-381 -553q0 38 14 75.5t33 68.5t55.5 67t66 61t81 60t82.5 54.5t88.5 55.5t83.5 52q97 62 144.5 126t47.5 115q0 16 -2.5 30.5t-4.5 21.5l-3 6q4 0 10 -0.5t22.5 -6.5t29 -16t22.5 -32t10 -52q0 -53 -34 -102.5t-88.5 -90.5t-120 -82t-131 -84t-120 -88.5t-88.5 -103.5 t-34 -121q0 -108 74 -165.5t170 -57.5q66 0 135 34t115.5 90.5t46.5 115.5q0 41 -16.5 64.5t-39.5 23.5q-49 0 -63 -41q-3 -10 -15 12q-12 20 -12 39q0 15 6.5 33t21 39.5t45.5 36t73 14.5q58 0 100.5 -46t42.5 -120q0 -112 -66.5 -203.5t-173.5 -140.5t-229 -49 q-186 0 -282.5 87t-96.5 220zM352 367.5q-3 43.5 29 93.5q32 51 84.5 67.5t87.5 -4.5q34 -23 31 -68.5t-35 -93.5q-33 -47 -77.5 -62.5t-80.5 5.5q-36 19 -39 62.5z" />
<glyph unicode="&#xc0;" horiz-adv-x="1918" d="M12 18q0 77 41 126t103 49q52 0 80 -30.5t28 -72.5q0 -41 -22 -70.5t-60 -29.5q-20 0 -32 6q-13 3 -13 -12q0 -12 11.5 -25.5t42.5 -26t73 -12.5q65 0 127.5 20.5t114.5 53.5t106 86.5t97.5 108.5t93.5 131t89 141.5t90 152.5q13 22 19 33q-37 2 -127 2q-67 0 -115 -32.5 t-48 -77.5q0 -29 22 -47q26 -16 58 0q6 8 9 -5q4 -21 -14 -49q-25 -35 -60 -46.5t-65 -5.5t-55 22q-61 42 -61 112q0 108 85 172t257 64q98 0 174 -8q52 86 95 152.5t99 143t108 132t117.5 109.5t130.5 88t143 54.5t161 20.5q136 0 226.5 -87.5t90.5 -213.5 q0 -103 -42 -194.5t-123.5 -165t-211.5 -122.5t-296 -63q-103 -177 -169.5 -321t-66.5 -199q0 -42 23.5 -62t56.5 -20q25 0 53.5 10.5t50 22.5t50.5 35.5t43 36t40 38.5l29 29q8 8 14 8t10.5 -11.5t4.5 -25.5q0 -12 -2 -20q-10 -28 -42.5 -66.5t-80 -78.5t-114.5 -67.5 t-134 -27.5q-205 0 -205 162q0 87 70.5 238t183.5 319q-60 5 -140 18t-110 17l-33 -57q-63 -110 -96.5 -165.5t-96 -151.5t-105.5 -147.5t-108 -118.5t-123 -100.5t-131 -58t-150 -24.5q-50 0 -96.5 12t-86 36t-63 64.5t-23.5 91.5zM1184 735q216 -19 270 -20 q138 188 268.5 313t202.5 125q17 0 17 -6q0 -4 -13 -17q-119 -122 -299 -409q135 16 247 72.5t180.5 149.5t68.5 204q0 84 -55.5 139t-157.5 55q-68 0 -132.5 -17t-119.5 -46t-110 -74.5t-100 -93.5t-94 -113.5t-88 -125.5t-85 -136zM1585 1798q0 23 13.5 41.5t37.5 18.5 q11 0 19.5 -2.5t16.5 -10t13.5 -14.5t13.5 -22t14 -27t16.5 -35.5t19.5 -40.5q15 -31 40 -66.5t41.5 -56.5t16.5 -22q0 -3 -7 -9t-11 -6q-25 0 -83 38.5t-109.5 100t-51.5 113.5z" />
<glyph unicode="&#xc1;" horiz-adv-x="2011" d="M12 18q0 77 41 126t103 49q52 0 80 -30.5t28 -72.5q0 -41 -22 -70.5t-60 -29.5q-20 0 -32 6q-13 3 -13 -12q0 -12 11.5 -25.5t42.5 -26t73 -12.5q65 0 127.5 20.5t114.5 53.5t106 86.5t97.5 108.5t93.5 131t89 141.5t90 152.5q13 22 19 33q-37 2 -127 2q-67 0 -115 -32.5 t-48 -77.5q0 -29 22 -47q26 -16 58 0q6 8 9 -5q4 -21 -14 -49q-25 -35 -60 -46.5t-65 -5.5t-55 22q-61 42 -61 112q0 108 85 172t257 64q98 0 174 -8q52 86 95 152.5t99 143t108 132t117.5 109.5t130.5 88t143 54.5t161 20.5q136 0 226.5 -87.5t90.5 -213.5 q0 -103 -42 -194.5t-123.5 -165t-211.5 -122.5t-296 -63q-103 -177 -169.5 -321t-66.5 -199q0 -42 23.5 -62t56.5 -20q25 0 53.5 10.5t50 22.5t50.5 35.5t43 36t40 38.5l29 29q8 8 14 8t10.5 -11.5t4.5 -25.5q0 -12 -2 -20q-10 -28 -42.5 -66.5t-80 -78.5t-114.5 -67.5 t-134 -27.5q-205 0 -205 162q0 87 70.5 238t183.5 319q-60 5 -140 18t-110 17l-33 -57q-63 -110 -96.5 -165.5t-96 -151.5t-105.5 -147.5t-108 -118.5t-123 -100.5t-131 -58t-150 -24.5q-50 0 -96.5 12t-86 36t-63 64.5t-23.5 91.5zM1184 735q216 -19 270 -20 q138 188 268.5 313t202.5 125q17 0 17 -6q0 -4 -13 -17q-119 -122 -299 -409q135 16 247 72.5t180.5 149.5t68.5 204q0 84 -55.5 139t-157.5 55q-68 0 -132.5 -17t-119.5 -46t-110 -74.5t-100 -93.5t-94 -113.5t-88 -125.5t-85 -136zM1962 1610q0 1 29 17.5t72.5 46.5 t74.5 61q20 20 43.5 46.5t35 38.5t25.5 21.5t27 9.5q23 0 39 -14.5t16 -38.5q0 -52 -66.5 -103t-143.5 -78.5t-125 -27.5q-13 0 -20 8t-7 13z" />
<glyph unicode="&#xc2;" horiz-adv-x="1918" d="M12 18q0 77 41 126t103 49q52 0 80 -30.5t28 -72.5q0 -41 -22 -70.5t-60 -29.5q-20 0 -32 6q-13 3 -13 -12q0 -12 11.5 -25.5t42.5 -26t73 -12.5q65 0 127.5 20.5t114.5 53.5t106 86.5t97.5 108.5t93.5 131t89 141.5t90 152.5q13 22 19 33q-37 2 -127 2q-67 0 -115 -32.5 t-48 -77.5q0 -29 22 -47q26 -16 58 0q6 8 9 -5q4 -21 -14 -49q-25 -35 -60 -46.5t-65 -5.5t-55 22q-61 42 -61 112q0 108 85 172t257 64q98 0 174 -8q52 86 95 152.5t99 143t108 132t117.5 109.5t130.5 88t143 54.5t161 20.5q136 0 226.5 -87.5t90.5 -213.5 q0 -103 -42 -194.5t-123.5 -165t-211.5 -122.5t-296 -63q-103 -177 -169.5 -321t-66.5 -199q0 -42 23.5 -62t56.5 -20q25 0 53.5 10.5t50 22.5t50.5 35.5t43 36t40 38.5l29 29q8 8 14 8t10.5 -11.5t4.5 -25.5q0 -12 -2 -20q-10 -28 -42.5 -66.5t-80 -78.5t-114.5 -67.5 t-134 -27.5q-205 0 -205 162q0 87 70.5 238t183.5 319q-60 5 -140 18t-110 17l-33 -57q-63 -110 -96.5 -165.5t-96 -151.5t-105.5 -147.5t-108 -118.5t-123 -100.5t-131 -58t-150 -24.5q-50 0 -96.5 12t-86 36t-63 64.5t-23.5 91.5zM1184 735q216 -19 270 -20 q138 188 268.5 313t202.5 125q17 0 17 -6q0 -4 -13 -17q-119 -122 -299 -409q135 16 247 72.5t180.5 149.5t68.5 204q0 84 -55.5 139t-157.5 55q-68 0 -132.5 -17t-119.5 -46t-110 -74.5t-100 -93.5t-94 -113.5t-88 -125.5t-85 -136zM1718 1534q0 6 18 14.5t71.5 36 t113.5 68.5q46 31 85 63.5t55.5 47t23.5 14.5q11 0 17.5 -20t24.5 -69t48 -98q9 -13 23.5 -33.5t22 -32t7.5 -14.5t-2 -4.5t-4 -1.5h-2q-42 1 -77 15.5t-55.5 34t-35 39t-19.5 32.5l-5 14q-69 -48 -156.5 -86t-132.5 -38q-10 0 -15.5 5.5t-5.5 12.5z" />
<glyph unicode="&#xc3;" horiz-adv-x="1875" d="M20 18q0 77 41 126t103 49q52 0 80 -30.5t28 -72.5q0 -41 -22 -70.5t-60 -29.5q-20 0 -32 6q-13 3 -13 -12q0 -12 11.5 -25.5t42.5 -26t73 -12.5q209 0 398 212q110 124 270 396q12 19 70 119q-37 2 -127 2q-67 0 -115.5 -33t-48.5 -77q0 -29 22 -47q26 -16 58 0 q6 8 9 -5q5 -21 -13 -49q-25 -35 -60.5 -46.5t-65.5 -5.5t-55 22q-61 42 -61 112q0 108 85 172t257 64q98 0 174 -8q52 86 95 152.5t99 143t108 132t117.5 109.5t130.5 88t143 54.5t161 20.5q137 0 227.5 -87.5t90.5 -213.5q0 -103 -42.5 -194.5t-124 -165t-211.5 -122.5 t-296 -63q-103 -177 -169.5 -321t-66.5 -199q0 -42 23.5 -62t56.5 -20q25 0 53.5 10.5t50 22.5t50.5 35.5t43 36t40 38.5l29 29q8 8 15 8q6 0 10 -11.5t4 -25.5q0 -12 -2 -20q-10 -28 -42.5 -66.5t-80 -78.5t-114.5 -67.5t-134 -27.5q-205 0 -205 162q0 87 70.5 238 t183.5 319q-60 5 -139.5 18t-109.5 17q-163 -280 -225 -374q-178 -268 -348 -371q-129 -78 -271 -78q-50 0 -96.5 12t-86 36t-63 64.5t-23.5 91.5zM1192 735q216 -19 270 -20q138 188 268.5 313t202.5 125q17 0 17 -6q0 -4 -13 -17q-119 -122 -299 -409q135 16 247 72.5 t180.5 149.5t68.5 204q0 84 -55.5 139t-157.5 55q-68 0 -132.5 -17t-119.5 -46t-110 -74.5t-100 -93.5t-94 -113.5t-88 -125.5t-85 -136zM1724 1640q0 15 34 42t86 50t95 23q51 0 120 -33.5t108 -33.5q28 0 53 8t41 19t28 22t19.5 18t9.5 6q9 -5 9 -10q0 -8 -15.5 -32 t-41 -53.5t-67 -52t-85.5 -22.5q-46 0 -126 39t-132 39q-36 0 -66 -8.5t-46 -17.5t-19 -9q-5 0 -5 6z" />
<glyph unicode="&#xc4;" horiz-adv-x="1929" d="M12 18q0 77 41 126t103 49q52 0 80 -30.5t28 -72.5q0 -41 -22 -70.5t-60 -29.5q-20 0 -32 6q-13 3 -13 -12q0 -12 11.5 -25.5t42.5 -26t73 -12.5q65 0 127.5 20.5t114.5 53.5t106 86.5t97.5 108.5t93.5 131t89 141.5t90 152.5q13 22 19 33q-37 2 -127 2q-67 0 -115 -32.5 t-48 -77.5q0 -29 22 -47q26 -16 58 0q6 8 9 -5q4 -21 -14 -49q-25 -35 -60 -46.5t-65 -5.5t-55 22q-61 42 -61 112q0 108 85 172t257 64q98 0 174 -8q52 86 95 152.5t99 143t108 132t117.5 109.5t130.5 88t143 54.5t161 20.5q136 0 226.5 -87.5t90.5 -213.5 q0 -103 -42 -194.5t-123.5 -165t-211.5 -122.5t-296 -63q-103 -177 -169.5 -321t-66.5 -199q0 -42 23.5 -62t56.5 -20q25 0 53.5 10.5t50 22.5t50.5 35.5t43 36t40 38.5l29 29q8 8 14 8t10.5 -11.5t4.5 -25.5q0 -12 -2 -20q-10 -28 -42.5 -66.5t-80 -78.5t-114.5 -67.5 t-134 -27.5q-205 0 -205 162q0 87 70.5 238t183.5 319q-60 5 -140 18t-110 17l-33 -57q-63 -110 -96.5 -165.5t-96 -151.5t-105.5 -147.5t-108 -118.5t-123 -100.5t-131 -58t-150 -24.5q-50 0 -96.5 12t-86 36t-63 64.5t-23.5 91.5zM1184 735q216 -19 270 -20 q138 188 268.5 313t202.5 125q17 0 17 -6q0 -4 -13 -17q-119 -122 -299 -409q135 16 247 72.5t180.5 149.5t68.5 204q0 84 -55.5 139t-157.5 55q-68 0 -132.5 -17t-119.5 -46t-110 -74.5t-100 -93.5t-94 -113.5t-88 -125.5t-85 -136zM1825 1640q0 50 37.5 88.5t87.5 38.5 q51 0 51 -55q0 -45 -35.5 -86t-81.5 -41q-59 0 -59 55zM2066 1640q0 50 37.5 88.5t87.5 38.5q52 0 52 -55q0 -45 -35.5 -86t-81.5 -41q-60 0 -60 55z" />
<glyph unicode="&#xc5;" horiz-adv-x="1875" d="M23 18q0 77 40.5 126t102.5 49q52 0 80 -30.5t28 -72.5q0 -41 -21.5 -70.5t-59.5 -29.5q-21 0 -33 6q-13 3 -13 -12q0 -12 11.5 -25.5t42.5 -26t73 -12.5q209 0 398 212q110 124 270 396q12 19 70 119q-37 2 -127 2q-67 0 -115.5 -33t-48.5 -77q0 -29 22 -47q26 -16 58 0 q6 8 9 -5q5 -21 -13 -49q-25 -35 -60.5 -46.5t-65.5 -5.5t-55 22q-61 42 -61 112q0 108 85 172t257 64q98 0 174 -8q52 86 95 152.5t99 143t108 132t117.5 109.5t130.5 88t143 54.5t161 20.5q137 0 227.5 -87.5t90.5 -213.5q0 -103 -42.5 -194.5t-124 -165t-211.5 -122.5 t-296 -63q-103 -177 -169.5 -321t-66.5 -199q0 -42 23.5 -62t56.5 -20q25 0 53.5 10.5t50 22.5t50.5 35.5t43 36t40 38.5l29 29q8 8 15 8q6 0 10 -11.5t4 -25.5q0 -12 -2 -20q-10 -28 -42.5 -66.5t-80 -78.5t-114.5 -67.5t-134 -27.5q-205 0 -205 162q0 87 70.5 238 t183.5 319q-60 5 -139.5 18t-109.5 17q-163 -280 -225 -374q-178 -268 -348 -371q-129 -78 -271 -78q-68 0 -127 20.5t-100 68t-41 115.5zM1194 735q216 -19 270 -20q138 188 268.5 313t202.5 125q17 0 17 -6q0 -4 -13 -17q-119 -122 -299 -409q135 16 247 72.5t180.5 149.5 t68.5 204q0 84 -55.5 139t-157.5 55q-68 0 -132.5 -17t-119.5 -46t-110 -74.5t-100 -93.5t-94 -113.5t-88 -125.5t-85 -136zM2039.5 1630.5q-22.5 47.5 12.5 114.5q35 69 106.5 116.5t139.5 47.5q69 0 92 -47.5t-12 -116.5q-37 -72 -109 -117t-139 -45q-68 0 -90.5 47.5z M2112.5 1678q14.5 -29 52.5 -29q39 0 83 28.5t64 67.5q20 40 5.5 69t-54.5 29q-38 0 -81.5 -29t-63.5 -69q-20 -38 -5.5 -67z" />
<glyph unicode="&#xc6;" horiz-adv-x="1921" d="M-190 37q0 78 41 127t104 49q52 0 80 -31t28 -73q0 -41 -21.5 -71t-59.5 -30q-21 0 -33 6q-6 1 -9 -2.5t-3 -9.5q0 -12 11.5 -26t42 -26.5t72.5 -12.5q66 0 128.5 22t111 50.5t105 90.5t91 104.5t90 134t81.5 138t84 153.5q16 29 24 44q-136 -3 -147 -6q-2 -1 -3 3 q0 20 23 52q21 31 45 31h125q47 86 87 152t92.5 142t102 131.5t112.5 109.5t127 88t142 54.5t161 20.5q68 0 135 -24.5t127 -49t112 -24.5q36 0 67.5 10.5t52.5 26t36 31t23 26.5l8 10q16 0 26.5 -10.5t10.5 -28.5q0 -28 -20 -65t-52.5 -72t-81 -59.5t-98.5 -24.5t-103 19.5 t-94 43t-108.5 43t-143.5 19.5q-48 0 -94.5 -16.5t-85.5 -41.5t-82.5 -71t-76 -87t-76 -108t-72.5 -116t-74 -129h227q41 86 104 165t127 133t128 95t111.5 60.5t72.5 19.5q16 0 16 -6q0 -10 -12 -17q-109 -71 -191.5 -182t-162.5 -266q100 1 175.5 2.5t113.5 3.5t61 3 t30.5 2t8.5 1q5 0 -0.5 -21.5t-21 -43t-35.5 -21.5q-195 0 -369 -2q-20 -40 -62.5 -128.5t-64.5 -131.5q-106 -176 -248 -305q35 -8 120 -30t139 -33t93 -11q7 -1 20 -0.5t50.5 8t73 23t81.5 51.5t83 88q4 7 16 -14q20 -36 6 -62q-43 -78 -152 -151.5t-206 -73.5 q-67 0 -128 14.5t-103 34.5t-77 39.5t-61.5 31t-44.5 7.5q-1 0 -3 -1t-3 -1q-148 -107 -238 -107q-34 0 -54.5 16.5t-20.5 39.5q0 26 36 61t98.5 62.5t123.5 27.5q31 0 65 -6q71 64 135.5 192.5t139.5 358.5l-238 -4q-48 -85 -77.5 -136.5t-78.5 -132t-84.5 -131t-87 -118 t-94 -109.5t-97.5 -88t-107 -71.5t-112 -42.5t-122 -17q-108 0 -189 53t-81 154z" />
<glyph unicode="&#xc7;" horiz-adv-x="1136" d="M23 500q0 111 47 238.5t124.5 245.5t182 228t215.5 191t229 129.5t219 48.5q70 0 124.5 -15t87 -39t54 -56.5t29.5 -63.5t8 -64q0 -81 -44 -130.5t-109 -49.5q-40 0 -71.5 32t-31.5 73q0 21 11 43q10 -21 39 -21t54.5 23t25.5 61q0 101 -154 101q-93 0 -195.5 -50.5 t-194.5 -134t-177 -194t-146.5 -227t-98 -237t-36.5 -220.5q0 -146 74 -220.5t196 -74.5q82 0 163 26.5t144.5 67t121.5 94t97.5 102t69.5 97.5q13 22 23 22q11 0 22 -19.5t11 -43.5q0 -15 -2 -21q-14 -45 -51.5 -101t-100 -115t-137.5 -108t-174 -80.5t-201 -31.5h-20 q-64 -104 -64 -123q0 -4 2 -4q27 15 82 15q45 0 82 -27.5t37 -89.5q0 -68 -59.5 -140t-138 -115.5t-138.5 -43.5q-58 0 -72 43q-4 10 -4 22q0 5 1.5 8t2.5 3h2q15 -3 31 -3q51 0 107.5 24t97.5 68.5t41 94.5q0 32 -18.5 48.5t-49.5 16.5q-26 0 -63 -20.5t-43 -20.5 q-10 0 -16.5 7.5t-6.5 17.5q0 6 2 10q27 58 94 215v15q-168 29 -252.5 149t-84.5 324z" />
<glyph unicode="&#xc8;" horiz-adv-x="1480" d="M53 260q0 124 80.5 245.5t201 202.5t245.5 105q-93 75 -93 172q0 103 60.5 195t157.5 154t218.5 98t243.5 36q129 0 233 -32t168 -86t98 -120.5t34 -139.5q0 -95 -55.5 -162.5t-131.5 -67.5q-62 0 -106.5 29t-44.5 92q0 45 26.5 79t65.5 34q5 0 7.5 -1t3 -2t0 -5t-0.5 -5 q0 -39 37 -39q2 0 6 0.5t14 5t17.5 12.5t14 24t6.5 38q0 40 -21 78.5t-65.5 74.5t-127.5 58.5t-194 22.5q-96 0 -188 -34t-158.5 -86.5t-107 -117.5t-40.5 -127q0 -83 52 -135q105 21 229 21q30 0 69.5 -5t89 -17t82.5 -37.5t33 -61.5q0 -49 -56 -80t-175 -31 q-120 0 -185.5 24t-136.5 76q-70 -20 -134.5 -58.5t-119.5 -93.5t-87.5 -132.5t-32.5 -165.5q0 -109 79 -188t197 -103q55 193 228.5 331t351.5 138q71 0 122.5 -39.5t51.5 -114.5q0 -78 -49 -158.5t-130.5 -145.5t-199 -106.5t-244.5 -41.5h-26q-4 -52 9 -91t37.5 -59 t48.5 -29.5t46 -9.5q37 0 60.5 16t23.5 38t-9.5 33.5t-19.5 15.5t-10 6q0 11 22 29.5t50 21.5q38 4 78 -21.5t40 -80.5q0 -64 -61.5 -120t-157.5 -56q-125 0 -208.5 88t-86.5 248q-126 6 -231.5 47.5t-174.5 124t-69 192.5zM676 -18q100 -18 228 32.5t216 132t88 148.5 q0 35 -22.5 54.5t-57.5 19.5q-61 0 -131.5 -27t-136.5 -75t-117 -123t-67 -162zM1073 1792q0 23 13.5 41t37.5 18q11 0 19.5 -2.5t16.5 -9.5t13.5 -14t13.5 -22t14 -27t17 -35.5t19 -40.5q15 -31 40 -66.5t41.5 -57t16.5 -22.5q0 -3 -7 -8.5t-11 -5.5q-25 0 -83 38.5 t-109.5 100t-51.5 113.5z" />
<glyph unicode="&#xc9;" horiz-adv-x="1480" d="M53 260q0 124 80.5 245.5t201 202.5t245.5 105q-93 75 -93 172q0 103 60.5 195t157.5 154t218.5 98t243.5 36q129 0 233 -32t168 -86t98 -120.5t34 -139.5q0 -95 -55.5 -162.5t-131.5 -67.5q-62 0 -106.5 29t-44.5 92q0 45 26.5 79t65.5 34q5 0 7.5 -1t3 -2t0 -5t-0.5 -5 q0 -39 37 -39q2 0 6 0.5t14 5t17.5 12.5t14 24t6.5 38q0 40 -21 78.5t-65.5 74.5t-127.5 58.5t-194 22.5q-96 0 -188 -34t-158.5 -86.5t-107 -117.5t-40.5 -127q0 -83 52 -135q105 21 229 21q30 0 69.5 -5t89 -17t82.5 -37.5t33 -61.5q0 -49 -56 -80t-175 -31 q-120 0 -185.5 24t-136.5 76q-70 -20 -134.5 -58.5t-119.5 -93.5t-87.5 -132.5t-32.5 -165.5q0 -109 79 -188t197 -103q55 193 228.5 331t351.5 138q71 0 122.5 -39.5t51.5 -114.5q0 -78 -49 -158.5t-130.5 -145.5t-199 -106.5t-244.5 -41.5h-26q-4 -52 9 -91t37.5 -59 t48.5 -29.5t46 -9.5q37 0 60.5 16t23.5 38t-9.5 33.5t-19.5 15.5t-10 6q0 11 22 29.5t50 21.5q38 4 78 -21.5t40 -80.5q0 -64 -61.5 -120t-157.5 -56q-125 0 -208.5 88t-86.5 248q-126 6 -231.5 47.5t-174.5 124t-69 192.5zM676 -18q100 -18 228 32.5t216 132t88 148.5 q0 35 -22.5 54.5t-57.5 19.5q-61 0 -131.5 -27t-136.5 -75t-117 -123t-67 -162zM1241 1612q0 1 29 17.5t72.5 46.5t74.5 61q20 20 43.5 46.5t35 38.5t25.5 21.5t27 9.5q23 0 39.5 -14.5t16.5 -38.5q0 -52 -66.5 -103t-144 -78.5t-125.5 -27.5q-13 0 -20 8t-7 13z" />
<glyph unicode="&#xca;" horiz-adv-x="1480" d="M53 260q0 124 80.5 245.5t201 202.5t245.5 105q-93 75 -93 172q0 103 60.5 195t157.5 154t218.5 98t243.5 36q129 0 233 -32t168 -86t98 -120.5t34 -139.5q0 -95 -55.5 -162.5t-131.5 -67.5q-62 0 -106.5 29t-44.5 92q0 45 26.5 79t65.5 34q5 0 7.5 -1t3 -2t0 -5t-0.5 -5 q0 -39 37 -39q2 0 6 0.5t14 5t17.5 12.5t14 24t6.5 38q0 40 -21 78.5t-65.5 74.5t-127.5 58.5t-194 22.5q-96 0 -188 -34t-158.5 -86.5t-107 -117.5t-40.5 -127q0 -83 52 -135q105 21 229 21q30 0 69.5 -5t89 -17t82.5 -37.5t33 -61.5q0 -49 -56 -80t-175 -31 q-120 0 -185.5 24t-136.5 76q-70 -20 -134.5 -58.5t-119.5 -93.5t-87.5 -132.5t-32.5 -165.5q0 -109 79 -188t197 -103q55 193 228.5 331t351.5 138q71 0 122.5 -39.5t51.5 -114.5q0 -78 -49 -158.5t-130.5 -145.5t-199 -106.5t-244.5 -41.5h-26q-4 -52 9 -91t37.5 -59 t48.5 -29.5t46 -9.5q37 0 60.5 16t23.5 38t-9.5 33.5t-19.5 15.5t-10 6q0 11 22 29.5t50 21.5q38 4 78 -21.5t40 -80.5q0 -64 -61.5 -120t-157.5 -56q-125 0 -208.5 88t-86.5 248q-126 6 -231.5 47.5t-174.5 124t-69 192.5zM676 -18q100 -18 228 32.5t216 132t88 148.5 q0 35 -22.5 54.5t-57.5 19.5q-61 0 -131.5 -27t-136.5 -75t-117 -123t-67 -162zM1049 1530q0 6 18 14.5t71 36t113 68.5q46 31 85 63.5t55.5 47t23.5 14.5q11 0 17.5 -20t24.5 -69t48 -98q9 -14 23.5 -34t22.5 -31.5t8 -14.5t-2.5 -4.5t-4.5 -1.5h-2q-42 1 -77 15.5 t-55.5 34t-35 39t-19.5 32.5l-5 14q-69 -48 -156.5 -86.5t-132.5 -38.5q-10 0 -15 6t-5 13z" />
<glyph unicode="&#xcb;" horiz-adv-x="1480" d="M53 260q0 124 80.5 245.5t201 202.5t245.5 105q-93 75 -93 172q0 103 60.5 195t157.5 154t218.5 98t243.5 36q129 0 233 -32t168 -86t98 -120.5t34 -139.5q0 -95 -55.5 -162.5t-131.5 -67.5q-62 0 -106.5 29t-44.5 92q0 45 26.5 79t65.5 34q5 0 7.5 -1t3 -2t0 -5t-0.5 -5 q0 -39 37 -39q2 0 6 0.5t14 5t17.5 12.5t14 24t6.5 38q0 40 -21 78.5t-65.5 74.5t-127.5 58.5t-194 22.5q-96 0 -188 -34t-158.5 -86.5t-107 -117.5t-40.5 -127q0 -83 52 -135q105 21 229 21q30 0 69.5 -5t89 -17t82.5 -37.5t33 -61.5q0 -49 -56 -80t-175 -31 q-120 0 -185.5 24t-136.5 76q-70 -20 -134.5 -58.5t-119.5 -93.5t-87.5 -132.5t-32.5 -165.5q0 -109 79 -188t197 -103q55 193 228.5 331t351.5 138q71 0 122.5 -39.5t51.5 -114.5q0 -78 -49 -158.5t-130.5 -145.5t-199 -106.5t-244.5 -41.5h-26q-4 -52 9 -91t37.5 -59 t48.5 -29.5t46 -9.5q37 0 60.5 16t23.5 38t-9.5 33.5t-19.5 15.5t-10 6q0 11 22 29.5t50 21.5q38 4 78 -21.5t40 -80.5q0 -64 -61.5 -120t-157.5 -56q-125 0 -208.5 88t-86.5 248q-126 6 -231.5 47.5t-174.5 124t-69 192.5zM676 -18q100 -18 228 32.5t216 132t88 148.5 q0 35 -22.5 54.5t-57.5 19.5q-61 0 -131.5 -27t-136.5 -75t-117 -123t-67 -162zM1139 1642q0 50 37.5 88.5t87.5 38.5q51 0 51 -55q0 -45 -35.5 -86t-81.5 -41q-59 0 -59 55zM1380 1642q0 50 37.5 88.5t87.5 38.5q51 0 51 -55q0 -45 -35.5 -86t-80.5 -41q-60 0 -60 55z" />
<glyph unicode="&#xcc;" horiz-adv-x="1224" d="M53 127q0 72 51 121t105 49q63 0 100 -32t37 -85q0 -31 -15.5 -53.5t-36.5 -31t-42 -7.5t-31 12q18 14 13.5 38t-27.5 24q-19 0 -31 -12t-12 -33q0 -51 47.5 -82t138.5 -31q60 0 114 12.5t98.5 32.5t87 53t75 67t67 83.5t60 92t56 102t52 105t52.5 110t53 108.5 q151 293 418 492q7 7 2 14q-46 -27 -144 -27q-62 0 -174 33t-176 33q-95 0 -176 -32.5t-134 -83t-90.5 -114t-54 -124t-16.5 -113.5q0 -75 36.5 -128.5t92.5 -53.5q9 0 6 12q-20 33 -20 65q0 42 30 71.5t72 29.5t72.5 -35.5t30.5 -85.5q0 -64 -49.5 -113t-139.5 -49 q-98 0 -166.5 80t-68.5 236q0 106 54.5 213t140 187t194.5 130.5t213 50.5q68 0 231 -45.5t213 -44.5q33 1 64.5 10.5t53.5 23.5t39.5 27.5t28.5 23t13 9.5q12 0 20.5 -18.5t8.5 -54.5q0 -22 -36.5 -64t-103.5 -116.5t-116 -145.5q-33 -49 -77.5 -135t-85 -172.5 t-96.5 -190.5t-113 -195.5t-134 -179.5t-159 -150.5t-188.5 -101t-222.5 -38.5q-40 0 -80.5 7t-81.5 24.5t-72.5 43t-51 65t-19.5 87.5zM1057 1798q0 23 13.5 41.5t37.5 18.5q11 0 19.5 -2.5t16.5 -10t13.5 -14.5t13.5 -22t14 -27t16.5 -35.5t19.5 -40.5q15 -31 40 -66.5 t41.5 -56.5t16.5 -22q0 -3 -7.5 -9t-11.5 -6q-25 0 -82.5 38.5t-109 100t-51.5 113.5z" />
<glyph unicode="&#xcd;" horiz-adv-x="1232" d="M61 127q0 -60 29.5 -106t76.5 -71t98 -37.5t102 -12.5q116 0 222.5 38.5t188.5 101t158.5 150.5t133.5 179.5t113 195.5t96.5 190.5t85 172.5t77.5 135q49 71 116 145.5t103.5 116.5t36.5 64q0 36 -8.5 54.5t-20.5 18.5q-2 0 -13 -9.5t-28.5 -23t-39.5 -27.5t-53.5 -23.5 t-64.5 -10.5q-50 -1 -213 44.5t-231 45.5q-104 0 -213 -50.5t-194.5 -130.5t-140 -187t-54.5 -213q0 -156 68.5 -236t166.5 -80q90 0 139.5 49t49.5 113q0 50 -30.5 85.5t-72.5 35.5t-72 -29.5t-30 -71.5q0 -31 21 -65q3 -12 -7 -12q-56 0 -92.5 53.5t-36.5 128.5 q0 53 16.5 113.5t54 124t90.5 114t134 83t176 32.5q64 0 176.5 -33t174.5 -33q44 0 79.5 6.5t49.5 13.5l14 7q0 4 1 1q4 -8 -3 -15q-267 -199 -418 -492q-22 -44 -53 -108.5t-52.5 -110t-52 -105t-56 -102t-60 -92t-67 -83.5t-75 -67t-87 -53t-98.5 -32.5t-114 -12.5 q-91 0 -138.5 31t-47.5 82q0 21 12 33t31 12q23 0 27.5 -24t-13.5 -38q10 -11 31 -12t42 7.5t36.5 31t15.5 53.5q0 53 -37 85t-100 32q-54 0 -105 -49t-51 -121zM1362 1618q0 1 29 17.5t72.5 46.5t74.5 61q21 21 44 47t34.5 38.5t25.5 22t27 9.5q23 0 39 -15t16 -39 q0 -52 -66.5 -103t-143.5 -78.5t-125 -27.5q-13 0 -20 8t-7 13z" />
<glyph unicode="&#xce;" horiz-adv-x="1228" d="M57 127q0 -48 19.5 -87.5t51 -65t72.5 -43t81.5 -24.5t80.5 -7q116 0 222.5 38.5t188.5 101t159 150.5t134 179.5t113 195.5t96.5 190.5t85 172.5t77.5 135q49 71 116 145.5t103.5 116.5t36.5 64q0 36 -8.5 54.5t-20.5 18.5q-2 0 -13 -9.5t-28.5 -23t-39.5 -27.5 t-53.5 -23.5t-64.5 -10.5q-50 -1 -213 44.5t-231 45.5q-104 0 -213 -50.5t-194.5 -130.5t-140 -187t-54.5 -213q0 -156 68.5 -236t166.5 -80q90 0 139.5 49t49.5 113q0 50 -30.5 85.5t-72.5 35.5t-72 -29.5t-30 -71.5q0 -32 20 -65q3 -12 -6 -12q-56 0 -92.5 53.5 t-36.5 128.5q0 53 16.5 113.5t54 124t90.5 114t134 83t176 32.5q64 0 176.5 -33t174.5 -33q44 0 79.5 6.5t49.5 13.5l14 7q0 4 1 1q4 -8 -3 -15q-267 -199 -418 -492q-22 -44 -53 -108.5t-52.5 -110t-52 -105t-56 -102t-60 -92t-67 -83.5t-75 -67t-87 -53t-98.5 -32.5 t-114 -12.5q-91 0 -138.5 31t-47.5 82q0 21 12 33t31 12q23 0 27.5 -24t-13.5 -38q10 -11 31 -12t42 7.5t36.5 31t15.5 53.5q0 53 -37 85t-100 32q-54 0 -105 -49t-51 -121zM1188 1526q0 6 18 14.5t71.5 36t113.5 68.5q46 31 85 63.5t55 46.5t23 14q11 0 18 -19.5t25 -68.5 t48 -98q9 -13 23.5 -33.5t22 -32t7.5 -14.5t-2 -4.5t-4 -1.5h-2q-42 1 -77.5 15.5t-55.5 34t-34.5 39t-20.5 32.5l-5 14q-69 -48 -156.5 -86.5t-132.5 -38.5q-10 0 -15 6t-5 13z" />
<glyph unicode="&#xcf;" horiz-adv-x="1228" d="M57 127q0 -48 19.5 -87.5t51 -65t72.5 -43t81.5 -24.5t80.5 -7q116 0 222.5 38.5t188.5 101t159 150.5t134 179.5t113 195.5t96.5 190.5t85 172.5t77.5 135q49 71 116 145.5t103.5 116.5t36.5 64q0 36 -8.5 54.5t-20.5 18.5q-2 0 -13 -9.5t-28.5 -23t-39.5 -27.5 t-53.5 -23.5t-64.5 -10.5q-50 -1 -213 44.5t-231 45.5q-104 0 -213 -50.5t-194.5 -130.5t-140 -187t-54.5 -213q0 -156 68.5 -236t166.5 -80q90 0 139.5 49t49.5 113q0 50 -30.5 85.5t-72.5 35.5t-72 -29.5t-30 -71.5q0 -32 20 -65q3 -12 -6 -12q-56 0 -92.5 53.5 t-36.5 128.5q0 53 16.5 113.5t54 124t90.5 114t134 83t176 32.5q64 0 176.5 -33t174.5 -33q44 0 79.5 6.5t49.5 13.5l14 7q0 4 1 1q4 -8 -3 -15q-267 -199 -418 -492q-22 -44 -53 -108.5t-52.5 -110t-52 -105t-56 -102t-60 -92t-67 -83.5t-75 -67t-87 -53t-98.5 -32.5 t-114 -12.5q-91 0 -138.5 31t-47.5 82q0 21 12 33t31 12q23 0 27.5 -24t-13.5 -38q10 -11 31 -12t42 7.5t36.5 31t15.5 53.5q0 53 -37 85t-100 32q-54 0 -105 -49t-51 -121zM1167 1640q0 50 37.5 88.5t87.5 38.5q51 0 51 -55q0 -45 -35.5 -86t-80.5 -41q-60 0 -60 55z M1409 1640q0 50 37.5 88.5t87.5 38.5q51 0 51 -55q0 -45 -35.5 -86t-81.5 -41q-59 0 -59 55z" />
<glyph unicode="&#xd0;" />
<glyph unicode="&#xd1;" horiz-adv-x="1536" d="M-158 152q0 66 39 108.5t96 42.5h5q31 -1 53.5 -11.5t33.5 -27.5t16 -33.5t5 -33.5q0 -33 -24 -59.5t-58 -26.5q-9 0 -16.5 2t-11.5 2q-3 0 -7 -3.5t-4 -7.5q0 -19 30 -37t69 -18q88 0 159.5 30t122 82.5t92 120.5t77 146.5t71 158.5t79.5 157.5t95.5 143t126.5 116.5 t166 75q2 0 7.5 1t6.5 1q3 0 6.5 -3.5t3.5 -6.5q0 -9 -18 -27q-80 -75 -135 -154t-111 -200q-35 -76 -59.5 -127t-61 -120.5t-66 -116t-69.5 -102.5t-77.5 -93t-85 -74.5t-96 -59t-107 -35t-121.5 -13.5q-100 0 -166 58.5t-66 144.5zM92 838q0 81 29 167.5t92 171.5 t151 151.5t216.5 107.5t277.5 41q216 -1 342.5 -124t126.5 -317q0 -55 -37 -172t-81.5 -231t-81.5 -235.5t-37 -184.5q0 -109 30 -113h3t2.5 0.5t2 1l1.5 1.5t2 3t1.5 4.5t1.5 6l2 7t3 9.5l4 12q31 97 74.5 207t106.5 240t133.5 251.5t158 236t177.5 199t195 136t207 51.5 q71 0 108.5 -26.5t37.5 -69.5q0 -30 -16.5 -53t-34.5 -23q-15 0 -19 4q2 8 2 19q0 39 -90 39q-76 0 -158.5 -46.5t-159 -125t-153 -181.5t-142.5 -217.5t-124.5 -230.5t-103 -222.5t-74.5 -193t-41 -141.5q-13 -72 -58 -72q-78 0 -137 80.5t-59 210.5q0 99 25.5 213 t55.5 201t55.5 195t25.5 196q0 91 -28 159t-78.5 107.5t-113 58.5t-137.5 19q-108 0 -213 -49t-180.5 -125t-122.5 -170.5t-47 -183.5q0 -72 32.5 -114t80.5 -42q17 0 32 5t22 11.5t7 10.5q0 2 -6 2q-21 0 -37 23t-16 48q0 42 30.5 71.5t65.5 29.5q51 0 82 -33.5t31 -81.5 q0 -81 -63.5 -142t-145.5 -61q-42 0 -80 12.5t-75.5 41t-60 85t-22.5 134.5zM1305 1630q0 15 34 42t86 50t95 23q51 0 119.5 -34t107.5 -34q28 0 53 8t41 19t28 22.5t19.5 18.5t9.5 6q9 -5 9 -10q0 -8 -15.5 -32t-41 -53.5t-67 -52t-85.5 -22.5q-46 0 -126 39t-132 39 q-36 0 -66 -8.5t-46 -17.5t-19 -9q-4 0 -4 6z" />
<glyph unicode="&#xd2;" horiz-adv-x="1425" d="M2 244q0 114 61.5 254.5t155.5 265.5t205.5 232t212.5 167q57 31 113 31q22 0 22 -8t-14 -19q-118 -98 -245.5 -258t-223.5 -350.5t-96 -327.5q0 -235 208 -235q107 0 227 49t231 132t213 196t177.5 236.5t120.5 259t45 257.5q0 90 -38.5 149.5t-106.5 59.5 q-51 0 -84 -18l-2 -2q16 -40 16 -109q0 -97 -32.5 -201.5t-86.5 -191.5t-132.5 -143t-162.5 -56q-55 0 -92 42t-37 114q0 149 113 319.5t279 270.5q-85 143 -271 143q-88 0 -145.5 -41t-57.5 -84q0 -25 16 -40t38 -15q5 0 12 4t10 4q6 0 10.5 -11t4.5 -20q0 -34 -32 -61 t-83 -27q-58 0 -98.5 38t-40.5 96q0 46 23.5 91.5t67 84t116 62.5t161.5 24q119 0 213.5 -54t147.5 -143q45 25 129 25q122 0 198 -90.5t76 -243.5q0 -145 -40.5 -293t-114 -282.5t-181 -252.5t-235.5 -204.5t-284.5 -136.5t-321.5 -50q-99 0 -171 27t-114 76.5t-61 113 t-19 144.5zM762 772q0 -51 43 -51q64 0 132 72t111.5 180t43.5 207q0 42 -9 82q-137 -90 -229 -239.5t-92 -250.5zM1116 1798q0 23 13.5 41.5t37.5 18.5q11 0 19.5 -2.5t16.5 -10t13.5 -14.5t13.5 -22t14 -27t16.5 -35.5t19.5 -40.5q15 -31 40 -66.5t41.5 -56.5t16.5 -22 q0 -3 -7 -9t-11 -6q-25 0 -83 38.5t-109.5 100t-51.5 113.5z" />
<glyph unicode="&#xd3;" horiz-adv-x="1423" d="M2 244q0 114 61.5 254.5t155.5 265.5t205.5 232t212.5 167q57 31 113 31q22 0 22 -8t-14 -19q-118 -98 -245.5 -258t-223.5 -350.5t-96 -327.5q0 -235 208 -235q107 0 227 49t231 132t213 196t177.5 236.5t120.5 259t45 257.5q0 90 -38.5 149.5t-106.5 59.5 q-51 0 -84 -18l-2 -2q16 -40 16 -109q0 -97 -32.5 -201.5t-86.5 -191.5t-132.5 -143t-162.5 -56q-55 0 -92 42t-37 114q0 149 113 319.5t279 270.5q-85 143 -271 143q-88 0 -145.5 -41t-57.5 -84q0 -25 16 -40t38 -15q5 0 12 4t10 4q6 0 10.5 -11t4.5 -20q0 -34 -32 -61 t-83 -27q-58 0 -98.5 38t-40.5 96q0 46 23.5 91.5t67 84t116 62.5t161.5 24q119 0 213.5 -54t147.5 -143q45 25 129 25q122 0 198 -90.5t76 -243.5q0 -145 -40.5 -293t-114 -282.5t-181 -252.5t-235.5 -204.5t-284.5 -136.5t-321.5 -50q-99 0 -171 27t-114 76.5t-61 113 t-19 144.5zM762 772q0 -51 43 -51q64 0 132 72t111.5 180t43.5 207q0 42 -9 82q-137 -90 -229 -239.5t-92 -250.5zM1241 1624q0 1 29 17.5t72.5 46.5t74.5 61q21 21 44 47t34.5 38.5t25.5 22t27 9.5q23 0 39.5 -15t16.5 -39q0 -52 -66.5 -102.5t-144 -78t-125.5 -27.5 q-13 0 -20 7.5t-7 12.5z" />
<glyph unicode="&#xd4;" horiz-adv-x="1423" d="M0 244q0 114 61.5 254.5t155.5 265.5t205.5 232t212.5 167q57 31 113 31q22 0 22 -8t-14 -19q-86 -71 -183.5 -184.5t-183.5 -242.5t-142.5 -267t-56.5 -242q0 -235 209 -235q107 0 227 49t231 132t213 196t177.5 236.5t120.5 259t45 257.5q0 90 -38.5 149.5t-106.5 59.5 q-51 0 -84 -18l-2 -2q16 -40 16 -109q0 -97 -32.5 -201.5t-86.5 -191.5t-132.5 -143t-162.5 -56q-55 0 -92 42t-37 114q0 149 113 319.5t279 270.5q-85 143 -271 143q-88 0 -145.5 -41t-57.5 -84q0 -25 16 -40t38 -15q5 0 12 4t10 4q6 0 10.5 -11t4.5 -20q0 -34 -32 -61 t-83 -27q-58 0 -98.5 38t-40.5 96q0 46 23.5 91.5t67 84t116 62.5t161.5 24q119 0 213.5 -54t147.5 -143q45 25 129 25q122 0 198 -90.5t76 -243.5q0 -145 -40.5 -293t-114 -282.5t-181 -252.5t-235.5 -204.5t-284.5 -136.5t-321.5 -50q-99 0 -171 27t-114 76.5t-61 113 t-19 144.5zM760 772q0 -51 43 -51q64 0 132 72t111.5 180t43.5 207q0 42 -9 82q-137 -90 -229 -239.5t-92 -250.5zM1196 1532q0 6 18 14.5t71.5 36t113.5 68.5q46 31 85 63.5t55.5 47t23.5 14.5q11 0 17.5 -20t24.5 -69t48 -98q9 -13 23.5 -33.5t22 -32t7.5 -14.5t-2 -4.5 t-4 -1.5h-2q-42 1 -77.5 15.5t-56 34t-34.5 39t-20 32.5l-5 14q-69 -48 -156 -86.5t-132 -38.5q-10 0 -15.5 6t-5.5 13z" />
<glyph unicode="&#xd5;" horiz-adv-x="1421" d="M0 244q0 114 61.5 254.5t155.5 265.5t205.5 232t212.5 167q57 31 113 31q22 0 22 -8t-14 -19q-86 -71 -183.5 -184.5t-183.5 -242.5t-142.5 -267t-56.5 -242q0 -235 209 -235q107 0 227 49t231 132t213 196t177.5 236.5t120.5 259t45 257.5q0 90 -38.5 149.5t-106.5 59.5 q-51 0 -84 -18l-2 -2q16 -40 16 -109q0 -97 -32.5 -201.5t-86.5 -191.5t-132.5 -143t-162.5 -56q-55 0 -92 42t-37 114q0 149 113 319.5t279 270.5q-85 143 -271 143q-88 0 -145.5 -41t-57.5 -84q0 -25 16 -40t38 -15q5 0 12 4t10 4q6 0 10.5 -11t4.5 -20q0 -34 -32 -61 t-83 -27q-58 0 -98.5 38t-40.5 96q0 46 23.5 91.5t67 84t116 62.5t161.5 24q119 0 213.5 -54t147.5 -143q45 25 129 25q122 0 198 -90.5t76 -243.5q0 -145 -40.5 -293t-114 -282.5t-181 -252.5t-235.5 -204.5t-284.5 -136.5t-321.5 -50q-99 0 -171 27t-114 76.5t-61 113 t-19 144.5zM760 772q0 -51 43 -51q64 0 132 72t111.5 180t43.5 207q0 42 -9 82q-137 -90 -229 -239.5t-92 -250.5zM1198 1630q0 15 34 42t86 50t95 23q51 0 119.5 -34t107.5 -34q28 0 53 8t41 19t28.5 22.5t20 18.5t9.5 6q8 -4 8 -10q0 -8 -15.5 -32t-41 -53.5t-67 -52 t-85.5 -22.5q-46 0 -126 39t-132 39q-36 0 -66 -8.5t-46 -17.5t-19 -9q-4 0 -4 6z" />
<glyph unicode="&#xd6;" horiz-adv-x="1425" d="M2 244q0 114 61.5 254.5t155.5 265.5t205.5 232t212.5 167q57 31 113 31q22 0 22 -8t-14 -19q-118 -98 -245.5 -258t-223.5 -350.5t-96 -327.5q0 -235 208 -235q107 0 227 49t231 132t213 196t177.5 236.5t120.5 259t45 257.5q0 90 -38.5 149.5t-106.5 59.5 q-51 0 -84 -18l-2 -2q16 -40 16 -109q0 -97 -32.5 -201.5t-86.5 -191.5t-132.5 -143t-162.5 -56q-55 0 -92 42t-37 114q0 149 113 319.5t279 270.5q-85 143 -271 143q-88 0 -145.5 -41t-57.5 -84q0 -25 16 -40t38 -15q5 0 12 4t10 4q6 0 10.5 -11t4.5 -20q0 -34 -32 -61 t-83 -27q-58 0 -98.5 38t-40.5 96q0 46 23.5 91.5t67 84t116 62.5t161.5 24q119 0 213.5 -54t147.5 -143q45 25 129 25q122 0 198 -90.5t76 -243.5q0 -145 -40.5 -293t-114 -282.5t-181 -252.5t-235.5 -204.5t-284.5 -136.5t-321.5 -50q-99 0 -171 27t-114 76.5t-61 113 t-19 144.5zM762 772q0 -51 43 -51q64 0 132 72t111.5 180t43.5 207q0 42 -9 82q-137 -90 -229 -239.5t-92 -250.5zM1311 1642q0 50 37.5 88.5t87.5 38.5q51 0 51 -55q0 -45 -35.5 -86t-81.5 -41q-59 0 -59 55zM1552 1642q0 50 37.5 88.5t87.5 38.5q52 0 52 -55 q0 -45 -35.5 -86t-81.5 -41q-60 0 -60 55z" />
<glyph unicode="&#xd8;" horiz-adv-x="1423" d="M-33 246q0 113 52 240t138 242t182 213.5t198 178.5q118 97 219 99q16 0 16 -11q0 -7 -50.5 -49t-136.5 -119t-151 -151q-115 -132 -195.5 -307t-80.5 -316q0 -206 139 -248q25 46 81 141t77 132q101 183 368.5 639.5t300.5 513.5q15 30 15 49t-14.5 31t-14.5 14 q0 7 10 14q40 25 97 25q62 0 84 -32.5t-5 -90.5q111 -3 185.5 -71t74.5 -191q0 -124 -45.5 -268t-123.5 -283t-188.5 -270t-234.5 -231.5t-268 -164.5t-282 -71v-19q0 -12 9 -19t19 -7h2q7 0 7 -9q0 -4 -9 -10q-66 -41 -120 -41q-45 0 -66.5 20t-19.5 58q0 7 8 35 q-140 25 -208.5 106t-68.5 228zM463 10q93 17 205.5 84t220.5 163.5t211 218.5t180.5 244.5t124.5 245t47 216.5q0 76 -38 122t-101 46q-39 0 -80 -9z" />
<glyph unicode="&#xd9;" horiz-adv-x="1800" d="M10 981q0 139 85 250t230 172t322 61q43 0 110.5 -22.5t127 -49t127 -49t110.5 -22.5q50 0 91 19t61 41.5t36 41.5t23 19q11 0 19 -17.5t8 -52.5q0 -79 -75.5 -200.5t-182.5 -250t-214.5 -258t-183 -258t-75.5 -217.5q0 -64 34 -102.5t101 -38.5q65 0 138 44t143.5 118.5 t145.5 171t150 203.5t151 214t155.5 203.5t157 171t160.5 118.5t161 44t117 -10q14 -3 14 -12q0 -4 -4.5 -10.5t-13.5 -16.5t-11 -12q-95 -96 -219.5 -265.5t-241.5 -360t-197.5 -384t-80.5 -313.5q0 -123 68.5 -189.5t175.5 -66.5q24 0 54 7.5t50.5 14.5t22.5 7q4 0 4 -5 q0 -47 -74 -93t-170 -46q-143 0 -235.5 86.5t-92.5 231.5q0 104 76 284.5t186.5 363.5t232.5 351.5t216 263.5q4 4 4 6q-3 15 -12 15q-2 0 -5 -1t-5 -1q-58 -30 -122.5 -94t-125 -145t-126 -178t-131.5 -196t-135.5 -196.5t-145 -182.5t-152 -150t-163.5 -102.5t-175 -37.5 q-132 0 -207.5 71.5t-75.5 169.5q0 89 38 184.5t100 181.5t137.5 171t155.5 164t149 149.5t122.5 138.5t71.5 121q-100 -49 -209 -49q-48 0 -101.5 20.5t-96.5 45t-112.5 45t-143.5 20.5q-105 0 -202 -47t-158.5 -132.5t-61.5 -186.5q0 -72 23.5 -118t47.5 -63q4 -4 13 -4 t6 13q-6 15 -6 32q0 38 30.5 66.5t73.5 28.5t74 -32t31 -75q0 -62 -46 -106.5t-108 -44.5q-45 0 -87 19t-78 55.5t-57.5 100t-21.5 144.5zM1440 1788q0 23 13.5 41t37.5 18q11 0 19.5 -2.5t16.5 -9.5t13.5 -14t13.5 -22t14 -27t17 -35.5t19 -40.5q15 -31 40 -66.5t41.5 -57 t16.5 -22.5q0 -3 -7.5 -8.5t-11.5 -5.5q-25 0 -82.5 38.5t-109 100t-51.5 113.5z" />
<glyph unicode="&#xda;" horiz-adv-x="1800" d="M10 981q0 139 85 250t230 172t322 61q43 0 110.5 -22.5t127 -49t127 -49t110.5 -22.5q50 0 91 19t61 41.5t36 41.5t23 19q11 0 19 -17.5t8 -52.5q0 -79 -75.5 -200.5t-182.5 -250t-214.5 -258t-183 -258t-75.5 -217.5q0 -64 34 -102.5t101 -38.5q65 0 138 44t143.5 118.5 t145.5 171t150 203.5t151 214t155.5 203.5t157 171t160.5 118.5t161 44t117 -10q14 -3 14 -12q0 -4 -4.5 -10.5t-13.5 -16.5t-11 -12q-95 -96 -219.5 -265.5t-241.5 -360t-197.5 -384t-80.5 -313.5q0 -123 68.5 -189.5t175.5 -66.5q24 0 54 7.5t50.5 14.5t22.5 7q4 0 4 -5 q0 -47 -74 -93t-170 -46q-143 0 -235.5 86.5t-92.5 231.5q0 104 76 284.5t186.5 363.5t232.5 351.5t216 263.5q4 4 4 6q-3 15 -12 15q-2 0 -5 -1t-5 -1q-58 -30 -122.5 -94t-125 -145t-126 -178t-131.5 -196t-135.5 -196.5t-145 -182.5t-152 -150t-163.5 -102.5t-175 -37.5 q-132 0 -207.5 71.5t-75.5 169.5q0 89 38 184.5t100 181.5t137.5 171t155.5 164t149 149.5t122.5 138.5t71.5 121q-100 -49 -209 -49q-48 0 -101.5 20.5t-96.5 45t-112.5 45t-143.5 20.5q-105 0 -202 -47t-158.5 -132.5t-61.5 -186.5q0 -72 23.5 -118t47.5 -63q4 -4 13 -4 t6 13q-6 15 -6 32q0 38 30.5 66.5t73.5 28.5t74 -32t31 -75q0 -62 -46 -106.5t-108 -44.5q-45 0 -87 19t-78 55.5t-57.5 100t-21.5 144.5zM1690 1618q0 1 29 17.5t72.5 46.5t74.5 61q21 21 44 47t34.5 38.5t25.5 22t27 9.5q23 0 39 -15t16 -39q0 -52 -66.5 -103t-144 -78.5 t-125.5 -27.5q-13 0 -19.5 8t-6.5 13z" />
<glyph unicode="&#xdb;" horiz-adv-x="1849" d="M6 981q0 139 85 250t230 172t322 61q43 0 110.5 -22.5t127 -49t127 -49t110.5 -22.5q50 0 91 19t61 41.5t36 41.5t23 19q11 0 19 -17.5t8 -52.5q0 -79 -75.5 -200.5t-182.5 -250t-214.5 -258t-183 -258t-75.5 -217.5q0 -64 34 -102.5t101 -38.5q65 0 138 44t143.5 118.5 t145.5 171t150 203.5t151 214t155.5 203.5t157 171t160.5 118.5t161 44q77 0 116 -10q15 -3 15 -12q0 -4 -4.5 -10.5t-13.5 -16.5t-11 -12q-95 -96 -219.5 -265.5t-241.5 -360t-197.5 -384t-80.5 -313.5q0 -123 68.5 -189.5t175.5 -66.5q24 0 53.5 7.5t50 14.5t22.5 7 q5 0 5 -5q0 -47 -74 -93t-170 -46q-143 0 -235.5 86.5t-92.5 231.5q0 104 76 284.5t186.5 363.5t232.5 351.5t216 263.5q4 4 4 6q-3 15 -12 15q-2 0 -5.5 -1t-5.5 -1q-58 -30 -122.5 -94t-125 -145t-125.5 -178t-131.5 -196t-135.5 -196.5t-144.5 -182.5t-152 -150 t-163.5 -102.5t-175 -37.5q-132 0 -207.5 71.5t-75.5 169.5q0 89 38 184.5t100 181.5t137.5 171t155.5 164t149 149.5t122.5 138.5t71.5 121q-100 -49 -209 -49q-48 0 -101.5 20.5t-97 45t-113 45t-143.5 20.5q-105 0 -201.5 -47t-158 -132.5t-61.5 -186.5q0 -72 23.5 -118 t47.5 -63q4 -4 13 -4t6 13q-6 15 -6 32q0 38 30.5 66.5t73.5 28.5q42 0 73 -32t31 -75q0 -62 -45.5 -106.5t-107.5 -44.5q-45 0 -87 19t-78 55.5t-57.5 100t-21.5 144.5zM1604 1534q0 6 18 14.5t71 36t113 68.5q46 31 85 63.5t55.5 47t23.5 14.5q11 0 17.5 -20t24.5 -69 t48 -98q9 -14 23.5 -34t22.5 -31.5t8 -14.5t-2 -4.5t-4 -1.5h-3q-42 1 -77 15.5t-55.5 34t-35 39t-19.5 32.5l-5 14q-69 -48 -156.5 -86t-132.5 -38q-10 0 -15 5.5t-5 12.5z" />
<glyph unicode="&#xdc;" horiz-adv-x="1800" d="M10 981q0 139 85 250t230 172t322 61q43 0 110.5 -22.5t127 -49t127 -49t110.5 -22.5q50 0 91 19t61 41.5t36 41.5t23 19q11 0 19 -17.5t8 -52.5q0 -79 -75.5 -200.5t-182.5 -250t-214.5 -258t-183 -258t-75.5 -217.5q0 -64 34 -102.5t101 -38.5q65 0 138 44t143.5 118.5 t145.5 171t150 203.5t151 214t155.5 203.5t157 171t160.5 118.5t161 44t117 -10q14 -3 14 -12q0 -4 -4.5 -10.5t-13.5 -16.5t-11 -12q-95 -96 -219.5 -265.5t-241.5 -360t-197.5 -384t-80.5 -313.5q0 -123 68.5 -189.5t175.5 -66.5q24 0 54 7.5t50.5 14.5t22.5 7q4 0 4 -5 q0 -47 -74 -93t-170 -46q-143 0 -235.5 86.5t-92.5 231.5q0 104 76 284.5t186.5 363.5t232.5 351.5t216 263.5q4 4 4 6q-3 15 -12 15q-2 0 -5 -1t-5 -1q-58 -30 -122.5 -94t-125 -145t-126 -178t-131.5 -196t-135.5 -196.5t-145 -182.5t-152 -150t-163.5 -102.5t-175 -37.5 q-132 0 -207.5 71.5t-75.5 169.5q0 89 38 184.5t100 181.5t137.5 171t155.5 164t149 149.5t122.5 138.5t71.5 121q-100 -49 -209 -49q-48 0 -101.5 20.5t-96.5 45t-112.5 45t-143.5 20.5q-105 0 -202 -47t-158.5 -132.5t-61.5 -186.5q0 -72 23.5 -118t47.5 -63q4 -4 13 -4 t6 13q-6 15 -6 32q0 38 30.5 66.5t73.5 28.5t74 -32t31 -75q0 -62 -46 -106.5t-108 -44.5q-45 0 -87 19t-78 55.5t-57.5 100t-21.5 144.5zM1700 1642q0 50 37.5 88.5t87.5 38.5q51 0 51 -55q0 -45 -35.5 -86t-81.5 -41q-59 0 -59 55zM1942 1642q0 50 37 88.5t87 38.5 q52 0 52 -55q0 -45 -35.5 -86t-81.5 -41q-59 0 -59 55z" />
<glyph unicode="&#xdd;" horiz-adv-x="1527" d="M35 958q0 95 51 188t135 164.5t201 115.5t242 44q78 0 166 -28.5t170.5 -57t146.5 -28.5q38 0 74 8t61 20t44 24t28 20l10 8q12 0 12 -33q0 -80 -51 -139q-59 -71 -162 -176.5t-191 -196t-173 -186.5t-135 -182t-50 -150q0 -33 15.5 -54.5t41.5 -29t38.5 -9t27.5 -1.5 q84 0 177 50t179.5 130.5t176 177.5t176.5 193.5t169.5 177t168.5 130.5t160 50q76 0 137 -70q-100 -79 -201.5 -193.5t-174 -213t-165.5 -253.5t-136.5 -234.5t-126.5 -236.5q-10 -19 -15 -28q172 -82 172 -225q0 -62 -42.5 -109t-101.5 -47q-86 0 -117 47q-10 19 -4 23 q33 -8 68 18t35 84q0 28 -22.5 57t-47.5 39q-185 -261 -386.5 -382t-442.5 -121q-157 0 -239.5 62t-82.5 169q0 82 66.5 165t176 147t259.5 104.5t307 40.5q94 0 236 -23q36 55 140 221t166.5 260.5t173.5 240t224 263.5q-4 2 -12 2q-23 0 -55 -22q-49 -29 -115.5 -93.5 t-135 -141t-147.5 -164.5t-164 -168t-172 -146t-184 -105.5t-188 -39.5q-103 0 -164.5 62t-61.5 167q0 79 42 164.5t110.5 161.5t151 151.5t167 143t155.5 126t119.5 109.5t55.5 86q-4 -1 -49 -17.5t-84.5 -22t-99.5 -1.5q-62 4 -184 45t-183 41q-198 0 -329.5 -111 t-131.5 -264q0 -67 32.5 -121.5t74.5 -54.5q14 0 6 15q-24 46 6.5 89.5t83.5 43.5q38 0 66 -30t28 -69q0 -67 -48 -110t-132 -43q-89 0 -156 77.5t-67 204.5zM174 -436q0 -63 46.5 -89t131.5 -26q177 0 346.5 118t323.5 339q-64 24 -154 24q-130 0 -258.5 -32.5t-223.5 -84 t-153.5 -118t-58.5 -131.5zM1585 1608q0 1 29 17.5t72.5 46.5t74.5 61q20 20 43.5 46.5t35 38.5t25.5 21.5t27 9.5q23 0 39.5 -14.5t16.5 -38.5q0 -52 -66.5 -103t-144 -78.5t-125.5 -27.5q-13 0 -20 8t-7 13z" />
<glyph unicode="&#xdf;" horiz-adv-x="919" d="M-827 -342q0 55 33 85t83 30q39 0 63.5 -24.5t24.5 -57.5q0 -8 -1.5 -15.5t-4 -13t-5 -9.5t-4 -6t-1.5 -1q0 5 -6.5 12.5t-18.5 7.5q-20 0 -32.5 -12.5t-12.5 -32.5q0 -25 20.5 -43t67.5 -18q50 0 106.5 32.5t109.5 84t113.5 131.5t112.5 159.5t114 184t109.5 189 t107.5 190.5t100 174q229 403 419 582t398 179q84 0 131 -46t47 -111q0 -48 -16.5 -96t-44.5 -87.5t-64.5 -77t-76.5 -68t-80 -56.5t-75.5 -45.5t-63.5 -33t-43.5 -21t-14.5 -7.5q79 -34 108 -86t29 -121q0 -82 -39 -176t-108.5 -180.5t-155.5 -157t-189 -113t-200 -42.5 q-53 0 -81 24.5t-28 54.5q0 27 13 44.5t28 17.5q10 0 15 -10q2 -22 19.5 -38t47.5 -16q98 1 218 105t202 248t82 256q0 59 -27.5 93t-72.5 34q-13 0 -28.5 -4t-38.5 -13t-25 -10q-6 -2 -9.5 2.5t-3.5 13.5q0 19 15 43t28 27q88 19 189 80.5t180.5 136.5t132.5 156t53 137 q0 34 -19 54t-50 20q-78 0 -165 -71t-207 -243.5t-286 -468.5q-79 -140 -124 -218.5t-129 -215t-143.5 -217t-145.5 -182.5t-157.5 -158t-157 -95.5t-165.5 -39.5q-84 0 -142 45t-58 125z" />
<glyph unicode="&#xe0;" horiz-adv-x="864" d="M-49 168q0 82 50.5 186t128 193t181 150t199.5 61q49 0 83 -21t50 -55q60 76 135 76q44 0 72.5 -14.5t28.5 -32.5l-12 -5q-12 -4 -40 -30t-59 -76q-20 -31 -104 -175t-101 -175q-33 -63 -33 -90q0 -43 39 -43q172 0 455 399q2 4 6 4q3 0 7 -6.5t7 -23t3 -39.5 q0 -31 -66 -115q-110 -145 -246 -240.5t-262 -95.5q-64 0 -97.5 30t-33.5 79q-53 -48 -114.5 -77.5t-114.5 -29.5q-80 0 -121 48t-41 118zM127 229q0 -98 74 -98q22 0 57 14.5t83.5 56t80.5 99.5q15 26 73.5 129t77.5 137q11 22 11 37q0 32 -23 56t-59 24 q-66 0 -156.5 -85.5t-154.5 -194.5t-64 -175zM610 1096q0 21 12 38t35 17q12 0 21 -4.5t15.5 -10t15 -20t14 -25.5t17 -36t20.5 -43q15 -28 37.5 -60.5t37.5 -52.5l15 -20q0 -3 -6 -9t-10 -6q-23 0 -76 35.5t-100.5 92.5t-47.5 104z" />
<glyph unicode="&#xe1;" horiz-adv-x="864" d="M-49 168q0 82 50.5 186t128 193t181 150t199.5 61q49 0 83 -21t50 -55q60 76 135 76q44 0 72.5 -14.5t28.5 -32.5l-12 -5q-12 -4 -40 -30t-59 -76q-20 -31 -104 -175t-101 -175q-33 -63 -33 -90q0 -43 39 -43q172 0 455 399q2 4 6 4q3 0 7 -6.5t7 -23t3 -39.5 q0 -31 -66 -115q-110 -145 -246 -240.5t-262 -95.5q-64 0 -97.5 30t-33.5 79q-53 -48 -114.5 -77.5t-114.5 -29.5q-80 0 -121 48t-41 118zM127 229q0 -98 74 -98q22 0 57 14.5t83.5 56t80.5 99.5q15 26 73.5 129t77.5 137q11 22 11 37q0 32 -23 56t-59 24 q-66 0 -156.5 -85.5t-154.5 -194.5t-64 -175zM641 940q0 1 29 17.5t72.5 46.5t74.5 61q21 21 44 47t34.5 38.5t25.5 22t27 9.5q23 0 39.5 -15t16.5 -39q0 -52 -66.5 -102.5t-144 -78t-125.5 -27.5q-13 0 -20 7.5t-7 12.5z" />
<glyph unicode="&#xe2;" horiz-adv-x="864" d="M-49 168q0 82 50.5 186t128 193t181 150t199.5 61q49 0 83 -21t50 -55q60 76 135 76q44 0 72.5 -14.5t28.5 -32.5l-12 -5q-12 -4 -40 -30t-59 -76q-20 -31 -104 -175t-101 -175q-33 -63 -33 -90q0 -43 39 -43q172 0 455 399q2 4 6 4q3 0 7 -6.5t7 -23t3 -39.5 q0 -31 -66 -115q-110 -145 -246 -240.5t-262 -95.5q-64 0 -97.5 30t-33.5 79q-53 -48 -114.5 -77.5t-114.5 -29.5q-80 0 -121 48t-41 118zM127 229q0 -98 74 -98q22 0 57 14.5t83.5 56t80.5 99.5q15 26 73.5 129t77.5 137q11 22 11 37q0 32 -23 56t-59 24 q-66 0 -156.5 -85.5t-154.5 -194.5t-64 -175zM418 854q0 6 18 14.5t71.5 36t113.5 68.5q46 31 85 63.5t55.5 47t22.5 14.5q11 0 17.5 -20t24.5 -69t48 -98q9 -14 23.5 -34t22.5 -31.5t8 -14.5t-2 -4.5t-4 -1.5h-2q-42 1 -77.5 15.5t-56 34.5t-34.5 39.5t-20 33.5l-5 13 q-69 -48 -156.5 -86.5t-132.5 -38.5q-10 0 -15 5.5t-5 12.5z" />
<glyph unicode="&#xe3;" horiz-adv-x="886" d="M-90 168q0 82 50.5 186t128 193t181 150t199.5 61q49 0 83 -21t50 -55q60 76 135 76q44 0 72.5 -14.5t28.5 -32.5l-12 -5q-12 -4 -40 -30t-59 -76q-20 -31 -104 -175t-101 -175q-33 -63 -33 -90q0 -43 39 -43q172 0 455 399q2 4 6 4q3 0 7 -6.5t7 -23t3 -39.5 q0 -31 -66 -115q-110 -145 -246 -240.5t-262 -95.5q-64 0 -97.5 30t-33.5 79q-53 -48 -114.5 -77.5t-114.5 -29.5q-80 0 -121 48t-41 118zM86 229q0 -98 74 -98q22 0 57 14.5t83.5 56t80.5 99.5q15 26 73.5 129t77.5 137q11 22 11 37q0 32 -23 56t-59 24q-66 0 -156.5 -85.5 t-154.5 -194.5t-64 -175zM362 956q0 15 34 42t86.5 50t95.5 23q51 0 119.5 -33.5t107.5 -33.5q28 0 53 8t41 19t28 22t19.5 18t9.5 6q9 -5 9 -10q0 -8 -15.5 -32t-41 -53.5t-67 -52t-85.5 -22.5q-46 0 -126 39t-132 39q-36 0 -66 -8.5t-46 -17.5t-19 -9q-5 0 -5 6z" />
<glyph unicode="&#xe4;" horiz-adv-x="864" d="M-49 168q0 82 50.5 186t128 193t181 150t199.5 61q49 0 83 -21t50 -55q60 76 135 76q44 0 72.5 -14.5t28.5 -32.5l-12 -5q-12 -4 -40 -30t-59 -76q-20 -31 -104 -175t-101 -175q-33 -63 -33 -90q0 -43 39 -43q172 0 455 399q2 4 6 4q3 0 7 -6.5t7 -23t3 -39.5 q0 -31 -66 -115q-110 -145 -246 -240.5t-262 -95.5q-64 0 -97.5 30t-33.5 79q-53 -48 -114.5 -77.5t-114.5 -29.5q-80 0 -121 48t-41 118zM127 229q0 -98 74 -98q22 0 57 14.5t83.5 56t80.5 99.5q15 26 73.5 129t77.5 137q11 22 11 37q0 32 -23 56t-59 24 q-66 0 -156.5 -85.5t-154.5 -194.5t-64 -175zM481 971q0 50 37.5 88.5t87.5 38.5q51 0 51 -56q0 -45 -35.5 -86t-80.5 -41q-60 0 -60 56zM723 971q0 50 37.5 88.5t87.5 38.5q51 0 51 -56q0 -45 -35.5 -86t-81.5 -41q-59 0 -59 56z" />
<glyph unicode="&#xe5;" horiz-adv-x="886" d="M-90 168q0 82 50.5 186t128 193t181 150t199.5 61q49 0 83 -21t50 -55q60 76 135 76q44 0 72.5 -14.5t28.5 -32.5l-12 -5q-12 -4 -40 -30t-59 -76q-20 -31 -104 -175t-101 -175q-33 -63 -33 -90q0 -43 39 -43q172 0 455 399q2 4 6 4q3 0 7 -6.5t7 -23t3 -39.5 q0 -31 -66 -115q-110 -145 -246 -240.5t-262 -95.5q-64 0 -97.5 30t-33.5 79q-53 -48 -114.5 -77.5t-114.5 -29.5q-80 0 -121 48t-41 118zM86 229q0 -98 74 -98q22 0 57 14.5t83.5 56t80.5 99.5q15 26 73.5 129t77.5 137q11 22 11 37q0 32 -23 56t-59 24q-66 0 -156.5 -85.5 t-154.5 -194.5t-64 -175zM581.5 936.5q-22.5 47.5 12.5 114.5q35 69 106.5 116t139.5 47q69 0 92 -47t-12 -116q-37 -72 -109 -117t-139 -45q-68 0 -90.5 47.5zM654 983.5q15 -29.5 53 -29.5q39 0 82.5 29t64.5 68q20 40 5.5 69t-54.5 29q-38 0 -82 -29t-64 -69 q-20 -38 -5 -67.5z" />
<glyph unicode="&#xe6;" horiz-adv-x="1075" d="M-49 168q0 82 50.5 186t128 193t181 150t199.5 61q49 0 83 -21t50 -55l19 28.5t22.5 30.5t27.5 17.5t46 9.5q82 0 82 -29q0 -6 -2 -10q64 25 120 25q52 0 83.5 -31t31.5 -84q0 -69 -60 -137.5t-163 -113t-215 -44.5h-23q-34 -69 -34 -131q0 -104 112 -104q53 0 111.5 23 t109.5 59.5t100 80.5t87.5 88.5t68 81t45.5 59.5l15 23q5 0 9.5 -12.5t4.5 -30.5q0 -48 -12 -65q-56 -83 -121.5 -153.5t-146.5 -132.5t-178.5 -98t-198.5 -36q-78 0 -129.5 37.5t-55.5 113.5q-148 -148 -286 -145q-80 1 -121 48.5t-41 117.5zM127 229q0 -98 74 -98 q22 0 57 14.5t83.5 56t80.5 99.5q50 92 74 131q88 154 88 172q0 32 -23 56t-59 24q-66 0 -156.5 -85.5t-154.5 -194.5t-64 -175zM655 420q81 0 163.5 37t131.5 85.5t49 86.5q0 49 -51 49q-63 0 -152.5 -86t-140.5 -172z" />
<glyph unicode="&#xe7;" horiz-adv-x="641" d="M-63 -231q-4 16 9.5 31.5t28.5 22.5l15 7q0 -4 1.5 -10.5t8 -23t15 -29t26 -23t39.5 -10.5q59 0 59 53q0 20 -19 40t-38 42t-19 47q0 53 82 94h152q-91 -22 -114 -39q-21 -15 -21 -34t15.5 -35.5t33.5 -26.5t33.5 -30t15.5 -46q0 -42 -33 -73.5t-73 -44.5t-74 -13 q-64 0 -99.5 32t-43.5 69zM-49 166q0 82 51 186t129.5 193.5t181.5 151t197 61.5q60 0 97.5 -32.5t37.5 -80.5q0 -56 -33 -95.5t-88 -39.5q-28 0 -50.5 16t-22.5 45q0 28 24.5 52t48.5 24q0 2 -1 5t-10.5 7.5t-25.5 4.5q-67 0 -152.5 -75.5t-145.5 -183t-60 -192.5 q0 -50 30 -75t83 -25q65 0 138.5 35t129.5 81.5t114.5 109.5t87.5 100.5t54 72.5q10 10 14 10q13 0 13 -37q0 -47 -13 -65q-284 -420 -645 -420q-82 0 -133 41.5t-51 124.5z" />
<glyph unicode="&#xe8;" horiz-adv-x="616" d="M-59 166q0 82 51 186t129.5 193.5t181.5 151t197 61.5q52 0 83 -31t31 -84t-38.5 -107.5t-100.5 -97.5t-147.5 -68.5t-173.5 -21.5q-35 -72 -35 -131q0 -104 112 -104q73 0 155 42.5t146.5 102.5t118.5 120.5t83 103.5l30 42q5 10 20 -7q15 -18 15 -40q0 -24 -25 -63 q-54 -82 -121 -153t-148.5 -131t-180 -95t-199.5 -35q-82 0 -133 41.5t-51 124.5zM195 424q81 0 163.5 37t131.5 85.5t49 86.5q0 22 -13 35.5t-39 13.5q-63 0 -152 -86t-140 -172zM360 1116q0 23 14 41.5t38 18.5q13 0 23 -4.5t17 -11t16 -22t15 -28t18.5 -40t22.5 -46.5 q15 -31 40 -66.5t42 -56.5t17 -22q0 -3 -7.5 -9t-11.5 -6q-25 0 -83 38.5t-109.5 100t-51.5 113.5z" />
<glyph unicode="&#xe9;" horiz-adv-x="616" d="M-59 166q0 82 51 186t129.5 193.5t181.5 151t197 61.5q52 0 83 -31t31 -84t-38.5 -107.5t-100.5 -97.5t-147.5 -68.5t-173.5 -21.5q-35 -72 -35 -131q0 -104 112 -104q73 0 155 42.5t146.5 102.5t118.5 120.5t83 103.5l30 42q5 10 20 -7q15 -18 15 -40q0 -24 -25 -63 q-54 -82 -121 -153t-148.5 -131t-180 -95t-199.5 -35q-82 0 -133 41.5t-51 124.5zM195 424q81 0 163.5 37t131.5 85.5t49 86.5q0 22 -13 35.5t-39 13.5q-63 0 -152 -86t-140 -172zM391 907q0 1 29 17.5t72.5 46.5t74.5 61q21 21 44 47t34.5 38.5t25.5 22t27 9.5 q23 0 39.5 -14.5t16.5 -38.5q0 -52 -66.5 -103t-144 -78.5t-125.5 -27.5q-13 0 -20 7.5t-7 12.5z" />
<glyph unicode="&#xea;" horiz-adv-x="616" d="M-59 166q0 82 51 186t129.5 193.5t181.5 151t197 61.5q52 0 83 -31t31 -84t-38.5 -107.5t-100.5 -97.5t-147.5 -68.5t-173.5 -21.5q-35 -72 -35 -131q0 -104 112 -104q73 0 155 42.5t146.5 102.5t118.5 120.5t83 103.5l30 42q5 10 20 -7q15 -18 15 -40q0 -24 -25 -63 q-54 -82 -121 -153t-148.5 -131t-180 -95t-199.5 -35q-82 0 -133 41.5t-51 124.5zM195 424q81 0 163.5 37t131.5 85.5t49 86.5q0 22 -13 35.5t-39 13.5q-63 0 -152 -86t-140 -172zM225 852q0 6 18 14.5t71.5 36t113.5 68.5q46 31 85 63.5t55.5 47t23.5 14.5q11 0 17.5 -20 t24.5 -69t48 -98q9 -13 23.5 -33.5t22 -32t7.5 -14.5t-2 -4.5t-4 -1.5h-2q-42 1 -77 15.5t-55.5 34t-35 39t-19.5 32.5l-5 14q-69 -48 -156.5 -86t-132.5 -38q-10 0 -15.5 5.5t-5.5 12.5z" />
<glyph unicode="&#xeb;" horiz-adv-x="616" d="M-59 166q0 82 51 186t129.5 193.5t181.5 151t197 61.5q52 0 83 -31t31 -84t-38.5 -107.5t-100.5 -97.5t-147.5 -68.5t-173.5 -21.5q-35 -72 -35 -131q0 -104 112 -104q73 0 155 42.5t146.5 102.5t118.5 120.5t83 103.5l30 42q5 10 20 -7q15 -18 15 -40q0 -24 -25 -63 q-54 -82 -121 -153t-148.5 -131t-180 -95t-199.5 -35q-82 0 -133 41.5t-51 124.5zM195 424q81 0 163.5 37t131.5 85.5t49 86.5q0 22 -13 35.5t-39 13.5q-63 0 -152 -86t-140 -172zM276 977q0 50 37.5 88.5t87.5 38.5q52 0 52 -55q0 -45 -35.5 -86t-81.5 -41q-60 0 -60 55z M518 977q0 50 37.5 88.5t87.5 38.5q51 0 51 -55q0 -45 -35.5 -86t-80.5 -41q-60 0 -60 55z" />
<glyph unicode="&#xec;" horiz-adv-x="462" d="M-84 121q0 45 31 98q230 397 237 412q15 30 15 49t-14.5 31t-14.5 14q0 7 10 14q40 25 96 25q46 0 73.5 -19.5t27.5 -52.5q0 -29 -25 -74q-8 -14 -59.5 -102t-96 -164.5t-49.5 -87.5q-1 -3 -9.5 -18.5t-17 -31.5t-9.5 -17q-11 -19 -11 -37q0 -39 47 -39q158 0 431 368 q31 46 32 46q12 0 19 -43q-1 -12 1 -17.5t-2 -16.5t-4.5 -15.5t-7 -15.5t-8.5 -15.5t-10 -15.5t-11.5 -15.5t-12.5 -16t-13 -16.5q-49 -64 -105 -121.5t-122.5 -110t-139 -83.5t-139.5 -31q-58 0 -98.5 31t-40.5 88zM141 1114q0 23 14 41.5t38 18.5q13 0 23 -4.5t17 -11 t16 -22t15 -28t18.5 -40t22.5 -46.5q15 -31 40 -66.5t41.5 -56.5t16.5 -22q0 -3 -7 -9t-11 -6q-25 0 -83 38.5t-109.5 100t-51.5 113.5z" />
<glyph unicode="&#xed;" horiz-adv-x="485" d="M-84 121q0 45 31 98q230 397 237 412q15 30 15 49t-14.5 31t-14.5 14q0 7 10 14q40 25 96 25q46 0 73.5 -19.5t27.5 -52.5q0 -29 -25 -74q-8 -14 -59.5 -102t-96 -164.5t-49.5 -87.5q-1 -3 -9.5 -18.5t-17 -31.5t-9.5 -17q-11 -19 -11 -37q0 -39 47 -39q158 0 431 368 q31 46 32 46q12 0 19 -43q-1 -12 1 -17.5t-2 -16.5t-4.5 -15.5t-7 -15.5t-8.5 -15.5t-10 -15.5t-11.5 -15.5t-12.5 -16t-13 -16.5q-49 -64 -105 -121.5t-122.5 -110t-139 -83.5t-139.5 -31q-58 0 -98.5 31t-40.5 88zM291 897q0 1 29 17.5t72.5 46.5t74.5 61q21 21 44 47 t34.5 38.5t25.5 22t27 9.5q23 0 39 -15t16 -39q0 -52 -66.5 -102.5t-144 -78t-125.5 -27.5q-13 0 -19.5 7.5t-6.5 12.5z" />
<glyph unicode="&#xee;" horiz-adv-x="462" d="M-84 121q0 45 31 98q230 397 237 412q15 30 15 49t-14.5 31t-14.5 14q0 7 10 14q40 25 96 25q46 0 73.5 -19.5t27.5 -52.5q0 -29 -25 -74q-8 -14 -59.5 -102t-96 -164.5t-49.5 -87.5q-1 -3 -9.5 -18.5t-17 -31.5t-9.5 -17q-11 -19 -11 -37q0 -39 47 -39q158 0 431 368 q31 46 32 46q12 0 19 -43q-1 -12 1 -17.5t-2 -16.5t-4.5 -15.5t-7 -15.5t-8.5 -15.5t-10 -15.5t-11.5 -15.5t-12.5 -16t-13 -16.5q-49 -64 -105 -121.5t-122.5 -110t-139 -83.5t-139.5 -31q-58 0 -98.5 31t-40.5 88zM111 854q0 6 18 14.5t71 36t113 68.5q46 31 85 63.5 t55.5 47t23.5 14.5q11 0 17.5 -20t24.5 -69t48 -98q9 -14 23.5 -34t22.5 -31.5t8 -14.5t-2.5 -4.5t-4.5 -1.5h-2q-42 1 -77 15.5t-55.5 34.5t-35 39.5t-19.5 33.5l-5 13q-69 -48 -156.5 -86.5t-132.5 -38.5q-10 0 -15 5.5t-5 12.5z" />
<glyph unicode="&#xef;" horiz-adv-x="462" d="M-84 121q0 45 31 98q230 397 237 412q15 30 15 49t-14.5 31t-14.5 14q0 7 10 14q40 25 96 25q46 0 73.5 -19.5t27.5 -52.5q0 -29 -25 -74q-8 -14 -59.5 -102t-96 -164.5t-49.5 -87.5q-1 -3 -9.5 -18.5t-17 -31.5t-9.5 -17q-11 -19 -11 -37q0 -39 47 -39q158 0 431 368 q31 46 32 46q12 0 19 -43q-1 -12 1 -17.5t-2 -16.5t-4.5 -15.5t-7 -15.5t-8.5 -15.5t-10 -15.5t-11.5 -15.5t-12.5 -16t-13 -16.5q-49 -64 -105 -121.5t-122.5 -110t-139 -83.5t-139.5 -31q-58 0 -98.5 31t-40.5 88zM197 979q0 50 37.5 88.5t87.5 38.5q51 0 51 -55 q0 -45 -35.5 -86t-81.5 -41q-59 0 -59 55zM438 979q0 50 37.5 88.5t87.5 38.5q51 0 51 -55q0 -45 -35.5 -86t-80.5 -41q-60 0 -60 55z" />
<glyph unicode="&#xf0;" horiz-adv-x="1024" />
<glyph unicode="&#xf1;" horiz-adv-x="862" d="M-100 74q0 60 59 159q32 56 104 173q131 205 142 262q4 21 -2.5 32.5t-14.5 17t-8 9.5q0 10 23.5 18.5t50.5 8.5q50 0 78 -16.5t28 -45.5q0 -23 -10 -47t-18.5 -37.5t-26.5 -36.5q-2 -3 0 -3l6 3l4 4q98 97 168.5 137t134.5 40q56 0 91.5 -28.5t35.5 -74.5 q0 -65 -34.5 -140.5t-92.5 -169.5t-81 -144q-9 -18 -9 -31q0 -49 62 -49q29 0 73 33t83.5 75t92 109t80 105t66.5 93q29 0 29 -53q0 -35 -21 -61q-4 -6 -31.5 -44.5t-44.5 -61.5t-52.5 -66.5t-62.5 -72t-67 -64t-75 -56.5t-77 -36t-81 -15q-70 0 -108 35t-38 88t33 122.5 t72.5 124t72.5 109.5t33 82q0 16 -12 27.5t-33 11.5q-60 0 -133.5 -54t-134 -132t-107.5 -164t-63 -152q-7 -31 20 -49q7 -3 7 -10q0 -9 -11 -16q-40 -27 -116 -27q-39 0 -61.5 24t-22.5 54zM297 950q0 15 34 42t86 50t95 23q51 0 119.5 -34t107.5 -34q28 0 53 8t41 19 t28.5 22.5t20 18.5t9.5 6q8 -4 8 -10q0 -8 -15.5 -32t-41 -53.5t-67 -52t-85.5 -22.5q-46 0 -126 39t-132 39q-36 0 -66 -8.5t-46 -17.5t-19 -9q-4 0 -4 6z" />
<glyph unicode="&#xf2;" horiz-adv-x="688" d="M-61 164q0 82 50.5 185.5t128.5 192.5t181.5 149.5t198.5 60.5q67 0 107 -35t40 -92q0 -75 -36 -154t-99 -176q39 0 77.5 17.5t77 54t58.5 59.5t55 66q8 8 15 8q10 0 17 -16.5t7 -37.5q0 -26 -10 -38q-91 -118 -179.5 -163.5t-185.5 -45.5q-86 -98 -166 -149.5 t-172 -51.5q-80 0 -122.5 48t-42.5 118zM109 188q0 -86 84 -86q68 0 163 107q-59 34 -59 92q0 43 30.5 75t71.5 32q48 0 76 -25q31 41 60.5 115t29.5 108q0 36 -20 55t-56 19q-67 0 -158 -84.5t-156.5 -202t-65.5 -205.5zM469 1098q0 23 13.5 41t37.5 18q11 0 19.5 -2.5 t16.5 -9.5t13.5 -14t13.5 -22t14 -27t17 -35.5t19 -40.5q15 -31 40 -66.5t41.5 -57t16.5 -22.5q0 -3 -7 -8.5t-11 -5.5q-25 0 -83 38.5t-109.5 100t-51.5 113.5z" />
<glyph unicode="&#xf3;" horiz-adv-x="688" d="M-61 164q0 82 50.5 185.5t128.5 192.5t181.5 149.5t198.5 60.5q67 0 107 -35t40 -92q0 -75 -36 -154t-99 -176q39 0 77.5 17.5t77 54t58.5 59.5t55 66q8 8 15 8q10 0 17 -16.5t7 -37.5q0 -26 -10 -38q-91 -118 -179.5 -163.5t-185.5 -45.5q-86 -98 -166 -149.5 t-172 -51.5q-80 0 -122.5 48t-42.5 118zM109 188q0 -86 84 -86q68 0 163 107q-59 34 -59 92q0 43 30.5 75t71.5 32q48 0 76 -25q31 41 60.5 115t29.5 108q0 36 -20 55t-56 19q-67 0 -158 -84.5t-156.5 -202t-65.5 -205.5zM440 909q0 1 29 17.5t72.5 46.5t74.5 61 q20 20 44 46.5t35.5 39t25.5 22t27 9.5q23 0 39 -14.5t16 -38.5q0 -52 -66.5 -103t-144 -78.5t-125.5 -27.5q-13 0 -20 7.5t-7 12.5z" />
<glyph unicode="&#xf4;" horiz-adv-x="688" d="M-61 164q0 82 50.5 185.5t128.5 192.5t181.5 149.5t198.5 60.5q67 0 107 -35t40 -92q0 -75 -36 -154t-99 -176q39 0 77.5 17.5t77 54t58.5 59.5t55 66q8 8 15 8q10 0 17 -16.5t7 -37.5q0 -26 -10 -38q-91 -118 -179.5 -163.5t-185.5 -45.5q-86 -98 -166 -149.5 t-172 -51.5q-80 0 -122.5 48t-42.5 118zM109 188q0 -86 84 -86q68 0 163 107q-59 34 -59 92q0 43 30.5 75t71.5 32q48 0 76 -25q31 41 60.5 115t29.5 108q0 36 -20 55t-56 19q-67 0 -158 -84.5t-156.5 -202t-65.5 -205.5zM301 858q0 6 18 14.5t71.5 36t113.5 68.5 q46 31 85 63.5t55.5 47t23.5 14.5q11 0 17.5 -20t24.5 -69t48 -98q9 -13 23 -33t22 -31.5t8 -14.5t-2 -4.5t-4 -1.5l-2 -1q-42 1 -77.5 15.5t-55.5 34.5t-34.5 39.5t-19.5 33.5l-6 13q-69 -48 -156 -86.5t-132 -38.5q-10 0 -15.5 5.5t-5.5 12.5z" />
<glyph unicode="&#xf5;" horiz-adv-x="704" d="M-135 164q0 82 50.5 185.5t128.5 192.5t181.5 149.5t198.5 60.5q67 0 107 -35t40 -92q0 -75 -36 -154t-99 -176q39 0 77.5 17.5t77 54t59.5 59.5t55 66q8 8 14 8q10 0 17 -16.5t7 -37.5q0 -26 -10 -38q-91 -119 -179 -164t-185 -45q-86 -98 -166 -149.5t-172 -51.5 q-80 0 -123 48t-43 118zM35 188q0 -86 84 -86q69 0 164 107q-60 34 -60 92q0 43 31 75t72 32q47 0 75 -25q31 41 61 115t30 108q0 36 -20 55t-56 19q-67 0 -158.5 -84.5t-157 -202t-65.5 -205.5zM256 950q0 15 34 42t86 50t95 23q51 0 119.5 -34t107.5 -34q28 0 53 8t41 19 t28.5 22.5t20 18.5t9.5 6q8 -4 8 -10q0 -8 -15.5 -32t-41 -53.5t-67 -52t-85.5 -22.5q-46 0 -126 39t-132 39q-36 0 -66 -8.5t-46 -17.5t-19 -9q-4 0 -4 6z" />
<glyph unicode="&#xf6;" horiz-adv-x="688" d="M-61 164q0 82 50.5 185.5t128.5 192.5t181.5 149.5t198.5 60.5q67 0 107 -35t40 -92q0 -75 -36 -154t-99 -176q39 0 77.5 17.5t77 54t58.5 59.5t55 66q8 8 15 8q10 0 17 -16.5t7 -37.5q0 -26 -10 -38q-91 -118 -179.5 -163.5t-185.5 -45.5q-86 -98 -166 -149.5 t-172 -51.5q-80 0 -122.5 48t-42.5 118zM109 188q0 -86 84 -86q68 0 163 107q-59 34 -59 92q0 43 30.5 75t71.5 32q48 0 76 -25q31 41 60.5 115t29.5 108q0 36 -20 55t-56 19q-67 0 -158 -84.5t-156.5 -202t-65.5 -205.5zM358 975q0 50 37.5 88.5t87.5 38.5q52 0 52 -55 q0 -45 -35.5 -86t-81.5 -41q-60 0 -60 55zM600 975q0 50 37.5 88.5t87.5 38.5q51 0 51 -55q0 -45 -35.5 -86t-81.5 -41q-59 0 -59 55z" />
<glyph unicode="&#xf7;" horiz-adv-x="911" d="M18 250q0 41 45 93t76 52l496 -10q42 0 74 3.5t49.5 9t30 12t17 12t8 9t5.5 3.5q8 -2 8 -14q0 -32 -42.5 -84.5t-75.5 -52.5q-69 0 -280 4t-288 4q-42 0 -66 -15t-31.5 -30t-8.5 -15q-17 0 -17 19zM227 72q0 47 40 88t89 41q25 0 40.5 -17.5t15.5 -44.5q0 -45 -38 -85 t-83 -40q-26 0 -45 15.5t-19 42.5zM465 563q0 48 39.5 88.5t89.5 40.5q25 0 40 -16.5t15 -44.5q0 -44 -38.5 -84.5t-84.5 -40.5q-25 0 -43 15.5t-18 41.5z" />
<glyph unicode="&#xf8;" horiz-adv-x="614" d="M-55 166q0 82 50.5 185.5t128.5 192.5t181.5 149.5t198.5 60.5h12q2 0 2 2q10 18 10 32q0 12 -9 20t-9 9q0 4 6 10q28 17 64 17q24 0 24 -15l-45 -84q43 -12 67.5 -43.5t24.5 -74.5q0 -77 -47 -182.5t-119 -201.5t-169 -166.5t-187 -76.5q-4 0 -4 -6q-8 -16 -8 -31 q1 -12 10.5 -18.5t9.5 -7.5q0 -10 -24 -21.5t-43 -11.5q-25 0 -25 16q0 10 35 82q-64 9 -99.5 55.5t-35.5 108.5zM115 190q0 -55 30 -73l52 86q42 76 90.5 159.5t106 180t81.5 137.5q-51 -10 -115.5 -64t-118 -125.5t-90 -154.5t-36.5 -146zM188 104h11q62 0 152 96.5 t155 217.5t65 190q0 60 -51 70z" />
<glyph unicode="&#xf9;" horiz-adv-x="856" d="M-88 119q0 45 31 98q222 387 231 404q14 28 14 47t-14 32t-14 15q0 7 10 14q40 25 94 25q48 0 75.5 -18.5t27.5 -53.5q0 -29 -25 -74q-30 -48 -117.5 -200t-118.5 -213q-10 -17 -10 -37q0 -39 47 -39q46 0 98 35t100 94t84.5 113.5t72.5 117.5q46 81 67.5 122t25 50.5 t3.5 16.5q0 19 -14.5 32t-14.5 15q0 7 10 14q40 25 95 25q48 0 75 -18.5t27 -53.5q0 -30 -24 -74q-30 -48 -117.5 -200t-118.5 -213q-10 -17 -10 -37q0 -39 47 -39q40 0 90.5 27.5t93 64t94.5 93.5t82.5 94.5t69.5 88.5q11 14 19 26.5t10 15.5t4 3q6 0 12 -19t6 -38 q0 -8 -0.5 -15t-3 -14.5t-4.5 -12.5t-6.5 -13.5t-7 -12.5t-9.5 -14t-9.5 -13.5t-12 -15.5t-12.5 -16q-49 -64 -105.5 -122t-123 -110.5t-140 -84t-139.5 -31.5q-59 0 -99.5 31t-40.5 90q-145 -121 -266 -121q-59 0 -99 30.5t-40 88.5zM317 1116q0 23 14 41.5t38 18.5 q13 0 23 -4.5t17 -11t16 -22t15 -28t18.5 -40t22.5 -46.5q15 -31 40 -66.5t42 -56.5t17 -22q0 -3 -7.5 -9t-11.5 -6q-25 0 -83 38.5t-109.5 100t-51.5 113.5z" />
<glyph unicode="&#xfa;" horiz-adv-x="856" d="M-88 119q0 45 31 98q222 387 231 404q14 28 14 47t-14 32t-14 15q0 7 10 14q40 25 94 25q48 0 75.5 -18.5t27.5 -53.5q0 -29 -25 -74q-30 -48 -117.5 -200t-118.5 -213q-10 -17 -10 -37q0 -39 47 -39q46 0 98 35t100 94t84.5 113.5t72.5 117.5q46 81 67.5 122t25 50.5 t3.5 16.5q0 19 -14.5 32t-14.5 15q0 7 10 14q40 25 95 25q48 0 75 -18.5t27 -53.5q0 -30 -24 -74q-30 -48 -117.5 -200t-118.5 -213q-10 -17 -10 -37q0 -39 47 -39q40 0 90.5 27.5t93 64t94.5 93.5t82.5 94.5t69.5 88.5q11 14 19 26.5t10 15.5t4 3q6 0 12 -19t6 -38 q0 -8 -0.5 -15t-3 -14.5t-4.5 -12.5t-6.5 -13.5t-7 -12.5t-9.5 -14t-9.5 -13.5t-12 -15.5t-12.5 -16q-49 -64 -105.5 -122t-123 -110.5t-140 -84t-139.5 -31.5q-59 0 -99.5 31t-40.5 90q-145 -121 -266 -121q-59 0 -99 30.5t-40 88.5zM399 934q0 1 29 17.5t72.5 46.5 t74.5 61q20 20 44 46.5t35.5 39t25.5 22t27 9.5q23 0 39 -15t16 -39q0 -52 -66.5 -103t-144 -78.5t-125.5 -27.5q-13 0 -20 8t-7 13z" />
<glyph unicode="&#xfb;" horiz-adv-x="856" d="M-88 119q0 45 31 98q222 387 231 404q14 28 14 47t-14 32t-14 15q0 7 10 14q40 25 94 25q48 0 75.5 -18.5t27.5 -53.5q0 -29 -25 -74q-30 -48 -117.5 -200t-118.5 -213q-10 -17 -10 -37q0 -39 47 -39q46 0 98 35t100 94t84.5 113.5t72.5 117.5q46 81 67.5 122t25 50.5 t3.5 16.5q0 19 -14.5 32t-14.5 15q0 7 10 14q40 25 95 25q48 0 75 -18.5t27 -53.5q0 -30 -24 -74q-30 -48 -117.5 -200t-118.5 -213q-10 -17 -10 -37q0 -39 47 -39q40 0 90.5 27.5t93 64t94.5 93.5t82.5 94.5t69.5 88.5q11 14 19 26.5t10 15.5t4 3q6 0 12 -19t6 -38 q0 -8 -0.5 -15t-3 -14.5t-4.5 -12.5t-6.5 -13.5t-7 -12.5t-9.5 -14t-9.5 -13.5t-12 -15.5t-12.5 -16q-49 -64 -105.5 -122t-123 -110.5t-140 -84t-139.5 -31.5q-59 0 -99.5 31t-40.5 90q-145 -121 -266 -121q-59 0 -99 30.5t-40 88.5zM274 854q0 6 18 14.5t71.5 36 t113.5 68.5q46 31 85 63.5t55.5 47t23.5 14.5q11 0 17.5 -20t24.5 -69t48 -98q9 -13 23.5 -33.5t22 -32t7.5 -14.5t-2 -4.5t-4 -1.5h-2q-42 1 -77 15.5t-55.5 34.5t-35 39.5t-19.5 33.5l-5 13q-69 -48 -156.5 -86.5t-132.5 -38.5q-10 0 -15.5 5.5t-5.5 12.5z" />
<glyph unicode="&#xfc;" horiz-adv-x="856" d="M-88 119q0 45 31 98q222 387 231 404q14 28 14 47t-14 32t-14 15q0 7 10 14q40 25 94 25q48 0 75.5 -18.5t27.5 -53.5q0 -29 -25 -74q-30 -48 -117.5 -200t-118.5 -213q-10 -17 -10 -37q0 -39 47 -39q46 0 98 35t100 94t84.5 113.5t72.5 117.5q46 81 67.5 122t25 50.5 t3.5 16.5q0 19 -14.5 32t-14.5 15q0 7 10 14q40 25 95 25q48 0 75 -18.5t27 -53.5q0 -30 -24 -74q-30 -48 -117.5 -200t-118.5 -213q-10 -17 -10 -37q0 -39 47 -39q40 0 90.5 27.5t93 64t94.5 93.5t82.5 94.5t69.5 88.5q11 14 19 26.5t10 15.5t4 3q6 0 12 -19t6 -38 q0 -8 -0.5 -15t-3 -14.5t-4.5 -12.5t-6.5 -13.5t-7 -12.5t-9.5 -14t-9.5 -13.5t-12 -15.5t-12.5 -16q-49 -64 -105.5 -122t-123 -110.5t-140 -84t-139.5 -31.5q-59 0 -99.5 31t-40.5 90q-145 -121 -266 -121q-59 0 -99 30.5t-40 88.5zM332 979q0 50 37.5 88.5t87.5 38.5 q51 0 51 -55q0 -45 -35.5 -86t-81.5 -41q-59 0 -59 55zM573 979q0 50 37.5 88.5t87.5 38.5q52 0 52 -55q0 -45 -35.5 -86t-81.5 -41q-60 0 -60 55z" />
<glyph unicode="&#xfd;" horiz-adv-x="749" d="M-293 -553q0 90 105 231q78 107 203 202t257 126q8 14 26 43t31 49.5t13 22.5v2q-145 -121 -266 -121q-59 0 -99 30.5t-40 88.5q0 47 30 98q207 361 230 404q14 28 14 47t-14.5 32t-14.5 15q0 7 11 14q40 25 94 25q48 0 75 -18.5t27 -53.5q0 -30 -24 -74 q-27 -44 -114.5 -197.5t-119.5 -215.5q-10 -17 -10 -37q0 -39 47 -39q145 0 356 358q92 168 92 191q0 19 -14 32t-14 15q0 7 10 14q40 25 94 25q48 0 75.5 -18.5t27.5 -53.5q0 -29 -25 -74q-19 -30 -174 -307t-160 -289q69 0 113.5 -34.5t44.5 -92.5q0 -46 -34 -79t-83 -33 q-27 0 -45 11t-18 21q32 25 32 72q0 23 -13 36.5t-27 16.5l-13 2q-8 -13 -24 -40q-29 -48 -45 -74.5t-48.5 -78t-55.5 -83t-58.5 -77.5t-64.5 -75t-67 -62.5t-72.5 -52.5t-74 -31.5t-78.5 -12.5q-48 0 -73 26.5t-25 73.5zM-213 -537q0 -18 10 -31.5t25 -13.5 q48 0 106.5 50.5t108 122.5t92.5 144t67 123l25 50q-88 -25 -192.5 -113t-173 -183.5t-68.5 -148.5zM451 932q0 1 29 17.5t72.5 46.5t74.5 61q21 21 44 47t34.5 38.5t25.5 22t27 9.5q23 0 39 -15t16 -39q0 -52 -66.5 -103t-144 -78.5t-125.5 -27.5q-13 0 -19.5 8t-6.5 13z " />
<glyph unicode="&#xff;" horiz-adv-x="749" d="M-293 -553q0 90 105 231q78 107 203 202t257 126q8 14 26 43t31 49.5t13 22.5v2q-145 -121 -266 -121q-59 0 -99 30.5t-40 88.5q0 47 30 98q207 361 230 404q14 28 14 47t-14.5 32t-14.5 15q0 7 11 14q40 25 94 25q48 0 75 -18.5t27 -53.5q0 -30 -24 -74 q-27 -44 -114.5 -197.5t-119.5 -215.5q-10 -17 -10 -37q0 -39 47 -39q145 0 356 358q92 168 92 191q0 19 -14 32t-14 15q0 7 10 14q40 25 94 25q48 0 75.5 -18.5t27.5 -53.5q0 -29 -25 -74q-19 -30 -174 -307t-160 -289q69 0 113.5 -34.5t44.5 -92.5q0 -46 -34 -79t-83 -33 q-27 0 -45 11t-18 21q32 25 32 72q0 23 -13 36.5t-27 16.5l-13 2q-8 -13 -24 -40q-29 -48 -45 -74.5t-48.5 -78t-55.5 -83t-58.5 -77.5t-64.5 -75t-67 -62.5t-72.5 -52.5t-74 -31.5t-78.5 -12.5q-48 0 -73 26.5t-25 73.5zM-213 -537q0 -18 10 -31.5t25 -13.5 q48 0 106.5 50.5t108 122.5t92.5 144t67 123l25 50q-88 -25 -192.5 -113t-173 -183.5t-68.5 -148.5zM395 977q0 50 37.5 88.5t87.5 38.5q51 0 51 -55q0 -45 -35.5 -86t-80.5 -41q-60 0 -60 55zM637 977q0 50 37.5 88.5t87.5 38.5q51 0 51 -55q0 -45 -35.5 -86t-81.5 -41 q-59 0 -59 55z" />
<glyph unicode="&#x152;" horiz-adv-x="1943" d="M-31 258q0 114 49 239t130.5 237.5t175 209t194.5 176.5q48 39 111 67.5t127 29.5q16 0 16 -11q0 -7 -50.5 -49t-136.5 -119t-151 -151q-117 -133 -195.5 -300.5t-78.5 -307.5q0 -133 71 -204t177 -71q121 0 279 99.5t317 263.5q46 204 149 403q108 212 297 389 q0 3 1 10.5t1 10.5q0 75 -45.5 122.5t-110.5 47.5q-68 0 -147 -27q14 -55 14 -119q0 -87 -32 -190t-84 -192t-126.5 -148.5t-150.5 -59.5q-64 0 -108 42t-44 114q0 154 114.5 329.5t281.5 274.5q-72 119 -275 119q-94 0 -143 -36t-49 -79q0 -27 8.5 -41t32.5 -14q6 0 13 4 t10.5 4t6.5 -8q13 -41 -19.5 -71.5t-102.5 -30.5q-47 0 -80 34t-33 95q0 98 98 172.5t271 74.5q124 0 214 -47.5t142 -130.5q95 37 182 37q98 0 170 -55t90 -154q185 144 279 144q61 0 117.5 -11.5t103.5 -11.5q33 0 65 18.5t51 40t36 36.5t26 10q20 -12 26.5 -33.5 t-3.5 -38.5q-47 -84 -124.5 -136.5t-174.5 -52.5q-57 1 -109.5 13t-70.5 12q-117 0 -220 -127q-18 -163 -104 -350q318 -10 500 -10q5 -3 2 -22.5t-21.5 -44.5t-40.5 -30q-37 -9 -493 0q-123 -225 -318 -417q3 -99 31 -148t100 -49q42 0 128 37.5t179.5 75.5t151.5 38 q114 0 172.5 -55t58.5 -139q0 -28 -10 -54t-20 -38l-10 -13q0 14 -4 29.5t-15.5 35t-30.5 34.5t-52.5 25t-76.5 10q-57 0 -117 -22t-106 -49t-117.5 -49t-148.5 -22q-104 0 -156 71t-55 196q-303 -250 -598 -250q-412 0 -412 358zM723 772q0 -23 12 -37t27 -14q63 0 134 80 t116.5 188.5t44.5 190.5q0 50 -8 94q-93 -59 -170.5 -156t-116.5 -188.5t-39 -157.5z" />
<glyph unicode="&#x153;" horiz-adv-x="1093" d="M-61 160q0 82 50.5 185.5t128.5 192.5t181.5 149.5t198.5 60.5q67 0 107 -35t40 -92q0 -15 -2 -21q168 158 326 158q52 0 83 -31t31 -84q0 -75 -54.5 -148.5t-132 -122.5t-161 -79t-143.5 -29q-4 -20 -4 -47q0 -104 112 -104q53 0 111.5 23t109.5 59.5t100 80.5 t87.5 88.5t68 81t45.5 59.5l15 23q5 0 9.5 -12.5t4.5 -30.5q0 -48 -12 -65q-56 -83 -121.5 -153.5t-146.5 -132.5t-178.5 -98t-198.5 -36q-80 0 -130.5 39t-53.5 117q-155 -162 -310 -162q-80 0 -120.5 48t-40.5 118zM111 184q0 -86 84 -86q47 0 107 51t120 132 q-60 23 -60 84q0 37 26 63.5t69 26.5q39 0 57 -21q53 106 53 168q0 74 -75 74q-67 0 -158.5 -84.5t-157 -202t-65.5 -205.5zM627 348q95 9 187 63.5t143.5 117t50.5 104.5q0 22 -13 35.5t-39 13.5q-68 0 -180.5 -115t-148.5 -219z" />
<glyph unicode="&#x178;" horiz-adv-x="1521" d="M35 958q0 95 51 188t135 164.5t201 115.5t242 44q78 0 166 -28.5t170.5 -57t146.5 -28.5q38 0 74 8t61 20t44 24t28 20l10 8q12 0 12 -33q0 -80 -51 -139q-59 -71 -162 -176.5t-191 -196t-173 -186.5t-135 -182t-50 -150q0 -33 15.5 -54.5t41.5 -29t38.5 -9t27.5 -1.5 q84 0 177 50t179.5 130.5t176 177.5t176.5 193.5t169.5 177t168.5 130.5t160 50q76 0 137 -70q-100 -79 -201.5 -193.5t-174 -213t-165.5 -253.5t-136.5 -234.5t-126.5 -236.5q-10 -19 -15 -28q172 -82 172 -225q0 -62 -42.5 -109t-101.5 -47q-86 0 -117 47q-10 19 -4 23 q33 -8 68 18t35 84q0 28 -22.5 57t-47.5 39q-185 -261 -386.5 -382t-442.5 -121q-157 0 -239.5 62t-82.5 169q0 82 66.5 165t176 147t259.5 104.5t307 40.5q94 0 236 -23q36 55 140 221t166.5 260.5t173.5 240t224 263.5q-4 2 -12 2q-23 0 -55 -22q-49 -29 -115.5 -93.5 t-135 -141t-147.5 -164.5t-164 -168t-172 -146t-184 -105.5t-188 -39.5q-103 0 -164.5 62t-61.5 167q0 79 42 164.5t110.5 161.5t151 151.5t167 143t155.5 126t119.5 109.5t55.5 86q-4 -1 -49 -17.5t-84.5 -22t-99.5 -1.5q-62 4 -184 45t-183 41q-198 0 -329.5 -111 t-131.5 -264q0 -67 32.5 -121.5t74.5 -54.5q14 0 6 15q-24 46 6.5 89.5t83.5 43.5q38 0 66 -30t28 -69q0 -67 -48 -110t-132 -43q-89 0 -156 77.5t-67 204.5zM174 -436q0 -63 46.5 -89t131.5 -26q177 0 346.5 118t323.5 339q-64 24 -154 24q-130 0 -258.5 -32.5t-223.5 -84 t-153.5 -118t-58.5 -131.5zM1524 1634q0 50 37.5 88.5t87.5 38.5q51 0 51 -55q0 -45 -35.5 -86t-81.5 -41q-59 0 -59 55zM1765 1634q0 50 37.5 88.5t87.5 38.5q52 0 52 -55q0 -45 -35.5 -86t-81.5 -41q-60 0 -60 55z" />
<glyph unicode="&#x2c6;" d="M322 1044q0 6 18 14.5t71 36t113 68.5q46 31 85 63.5t55.5 47t23.5 14.5q11 0 17.5 -19.5t24.5 -68.5t48 -98q9 -13 23.5 -33.5t22 -32t7.5 -14.5t-2 -4.5t-4 -1.5h-2q-42 1 -77 15.5t-55.5 34t-35 39t-19.5 33.5l-5 13q-69 -48 -156.5 -86.5t-132.5 -38.5q-10 0 -15 5.5 t-5 12.5z" />
<glyph unicode="&#x2dc;" d="M334 1145q0 15 34 42t86 50t95 23q51 0 119.5 -34t107.5 -34q28 0 53 8t41 19t28.5 22.5t20 18.5t9.5 6q8 -4 8 -11q0 -8 -15.5 -32t-41 -53t-67 -51.5t-85.5 -22.5q-46 0 -126 39t-132 39q-36 0 -66 -9t-46 -17.5t-19 -8.5q-4 0 -4 6z" />
<glyph unicode="&#x2000;" horiz-adv-x="954" />
<glyph unicode="&#x2001;" horiz-adv-x="1909" />
<glyph unicode="&#x2002;" horiz-adv-x="954" />
<glyph unicode="&#x2003;" horiz-adv-x="1909" />
<glyph unicode="&#x2004;" horiz-adv-x="636" />
<glyph unicode="&#x2005;" horiz-adv-x="477" />
<glyph unicode="&#x2006;" horiz-adv-x="318" />
<glyph unicode="&#x2007;" horiz-adv-x="318" />
<glyph unicode="&#x2008;" horiz-adv-x="238" />
<glyph unicode="&#x2009;" horiz-adv-x="381" />
<glyph unicode="&#x200a;" horiz-adv-x="106" />
<glyph unicode="&#x2010;" horiz-adv-x="864" d="M145 346q0 41 45 93.5t76 52.5l320 -11q42 0 74 3.5t49.5 9t30 12t17 12t8 9t5.5 3.5q8 -2 8 -14q0 -32 -43 -84.5t-76 -52.5q-69 0 -191.5 4t-199.5 4q-26 0 -46 -6t-30 -14.5t-16 -17.5t-9 -15t-5 -6q-17 0 -17 18z" />
<glyph unicode="&#x2011;" horiz-adv-x="864" d="M145 346q0 41 45 93.5t76 52.5l320 -11q42 0 74 3.5t49.5 9t30 12t17 12t8 9t5.5 3.5q8 -2 8 -14q0 -32 -43 -84.5t-76 -52.5q-69 0 -191.5 4t-199.5 4q-26 0 -46 -6t-30 -14.5t-16 -17.5t-9 -15t-5 -6q-17 0 -17 18z" />
<glyph unicode="&#x2012;" horiz-adv-x="864" d="M145 346q0 41 45 93.5t76 52.5l320 -11q42 0 74 3.5t49.5 9t30 12t17 12t8 9t5.5 3.5q8 -2 8 -14q0 -32 -43 -84.5t-76 -52.5q-69 0 -191.5 4t-199.5 4q-26 0 -46 -6t-30 -14.5t-16 -17.5t-9 -15t-5 -6q-17 0 -17 18z" />
<glyph unicode="&#x2013;" horiz-adv-x="702" d="M27 346q0 41 45 93.5t75 52.5l320 -11q42 0 74 3.5t49.5 9t30 12t17 12t8 9t5.5 3.5q8 -2 8 -14q0 -32 -42.5 -84.5t-75.5 -52.5q-69 0 -191.5 4t-199.5 4q-26 0 -46 -6t-30 -14.5t-16.5 -17.5t-9.5 -15t-5 -6q-16 0 -16 18z" />
<glyph unicode="&#x2014;" horiz-adv-x="1288" d="M27 346q0 44 40.5 95t79.5 51l920 -11q42 0 74 3.5t49.5 9t30 12t17 12t8 9t5.5 3.5q9 -2 9 -14q0 -32 -43 -84.5t-76 -52.5q-69 0 -491.5 4t-499.5 4q-26 0 -46 -6t-30 -14.5t-16.5 -17.5t-9.5 -15t-5 -6q-16 0 -16 18z" />
<glyph unicode="&#x2018;" horiz-adv-x="407" d="M274 688q0 60 61 142t143.5 141t139.5 59q20 0 36 -12t16 -27q0 -13 -4 -17t-11.5 -2.5t-19.5 -0.5q-60 -10 -131.5 -68.5t-100.5 -111.5q-7 -11 -5 -12q1 0 8 3q20 9 34 9q36 0 43 -40t-14 -71q-45 -76 -117 -76q-36 0 -57 26.5t-21 57.5z" />
<glyph unicode="&#x2019;" horiz-adv-x="321" d="M412 995q0 1 6 4q24 1 66.5 40t58.5 71q10 27 -6 35q-1 0 -15.5 2t-21.5 6q-27 11 -30.5 43t9.5 57q20 42 55 57t68 -1q32 -14 43 -44t6.5 -54.5t-14.5 -45.5q-30 -69 -84 -127.5t-115 -74.5h-12q-9 4 -13 14t-1 18z" />
<glyph unicode="&#x201a;" horiz-adv-x="389" d="M-41 -258q0 10 2.5 15t5 6.5t11 3t12.5 2.5q52 16 127.5 96.5t75.5 128.5l-5 -4q-5 -3 -17 -8t-26 -5q-23 0 -35 18.5t-12 45.5q0 48 39 91.5t84 43.5q39 0 59.5 -27.5t20.5 -64.5q0 -96 -101.5 -227.5t-183.5 -145.5q-54 0 -57 31z" />
<glyph unicode="&#x201c;" horiz-adv-x="503" d="M256 885q0 58 35.5 122.5t91.5 109t109 44.5q33 0 53 -18.5t20 -46.5q0 -15 -12 -29q-20 16 -43 16q-40 0 -77.5 -31t-43.5 -69q0 -2 6 0.5t17 6t20 3.5q23 0 35 -17t12 -42q0 -56 -43 -97.5t-98 -41.5q-37 0 -59.5 28.5t-22.5 61.5zM514 885q0 58 35 122.5t91 109 t110 44.5q33 0 53 -18.5t20 -46.5q0 -15 -12 -29q-20 16 -45 16q-39 0 -76 -31t-43 -69q0 -2 5.5 0.5t16.5 6t21 3.5q45 0 45 -59q0 -56 -42.5 -97.5t-96.5 -41.5q-37 0 -59.5 28.5t-22.5 61.5z" />
<glyph unicode="&#x201d;" horiz-adv-x="520" d="M94 860q0 15 12 29q21 -17 46 -17q38 0 75 31.5t43 69.5q0 2 -5.5 -0.5t-16.5 -6t-21 -3.5q-45 0 -45 59q0 56 43 97.5t97 41.5q37 0 59 -28.5t22 -61.5q0 -58 -34.5 -122.5t-90.5 -109t-110 -44.5q-33 0 -53.5 18.5t-20.5 46.5zM352 860q0 13 13 29q20 -17 43 -17 q40 0 77 31.5t43 69.5q0 2 -6 -0.5t-17 -6t-20 -3.5q-23 0 -35 17t-12 42q0 56 43.5 97.5t98.5 41.5q37 0 59.5 -28.5t22.5 -61.5q0 -58 -35.5 -122.5t-91.5 -109t-109 -44.5q-33 0 -53.5 18.5t-20.5 46.5z" />
<glyph unicode="&#x2022;" horiz-adv-x="768" d="M446 580q0 92 77 170.5t173 78.5q47 0 77 -32.5t30 -83.5q0 -88 -73.5 -166t-162.5 -78q-48 0 -84.5 30t-36.5 81z" />
<glyph unicode="&#x2026;" horiz-adv-x="1173" d="M113 63q0 53 44 98.5t99 45.5q27 0 44 -19t17 -49q0 -51 -41.5 -95t-93.5 -44q-28 0 -48.5 17t-20.5 46zM453 63q0 53 44 98.5t99 45.5q27 0 44 -19t17 -49q0 -51 -41.5 -95t-93.5 -44q-28 0 -48.5 17t-20.5 46zM795 63q0 53 44 98.5t99 45.5q27 0 44 -19t17 -49 q0 -51 -41.5 -95t-93.5 -44q-28 0 -48.5 17t-20.5 46z" />
<glyph unicode="&#x202f;" horiz-adv-x="381" />
<glyph unicode="&#x2039;" horiz-adv-x="788" d="M137 590q7 16 37 16q73 0 160 38t157 92t122.5 106t72.5 86q8 15 20 -4q7 -12 7 -25q0 -80 -126.5 -188.5t-230.5 -141.5q28 -40 41 -84.5t13 -119.5q0 -64 -31 -144.5t-76 -137t-82 -56.5q-3 0 -4.5 2t-1.5 4t-2 2q-1 0 17.5 28.5t40.5 84.5t22 108q0 207 -135 303 q-27 18 -21 31z" />
<glyph unicode="&#x203a;" horiz-adv-x="698" d="M57 47q0 37 37 85t89.5 89.5t104.5 77.5t89 57l37 21q-54 76 -54 223q0 57 31 133t76.5 131.5t81.5 55.5q3 0 4.5 -2t1.5 -4.5t2 -2.5q1 0 -17.5 -25t-40.5 -73.5t-22 -95.5q0 -115 38.5 -202t96.5 -128q27 -18 21 -31q-7 -16 -37 -16q-73 0 -160 -38t-157 -92 t-122.5 -106t-72.5 -86q-8 -15 -20 4q-7 12 -7 25z" />
<glyph unicode="&#x205f;" horiz-adv-x="477" />
<glyph unicode="&#x20ac;" horiz-adv-x="1347" d="M74 713q-7 0 1 26.5t33 53t60 26.5h29q22 50 47 92h-35q-23 0 -40 -8t-25.5 -16t-10.5 -8q-7 0 1 26.5t33 53t60 26.5q33 0 62 -2q162 247 403 421.5t441 174.5q71 0 126 -14.5t88 -36.5t53.5 -53.5t28 -61.5t7.5 -63q0 -82 -45 -135.5t-109 -53.5q-40 0 -71 32t-31 73 q0 23 10 43q10 -21 39 -21t54.5 23t25.5 61q0 101 -154 101q-164 0 -343 -141t-314 -353q77 0 259.5 -7t309.5 -1q26 0 46 6t29.5 12t10.5 6q8 0 -1.5 -26.5t-37 -52.5t-63.5 -25l-596 12q-5 -10 -22 -40t-25 -48q10 0 33.5 -1t33.5 -1q3 0 141.5 -3.5t272 -6t141.5 -0.5 q29 0 52.5 9t32.5 16t9 6q11 0 -2 -31q-22 -50 -67 -70q-20 -8 -41 -8l-637 10q-70 -173 -70 -301q0 -148 76 -233.5t195 -85.5q111 0 212.5 38.5t177 102t130.5 132.5t92 144q11 0 25 -23.5t14 -47.5q0 -15 -2 -21q-14 -49 -55 -107t-106 -117t-142 -107t-173 -78.5 t-190 -30.5q-204 0 -325 129.5t-121 368.5q0 117 49 250q-8 -1 -13.5 -1t-9 0.5t-4.5 0.5q-18 0 -32 -9t-21.5 -17.5t-9.5 -8.5z" />
<glyph unicode="&#x25fc;" horiz-adv-x="737" d="M0 0v737h737v-737h-737z" />
<glyph unicode="&#xfb01;" horiz-adv-x="1122" d="M-242 -358q0 86 58.5 239t169.5 362t205.5 376t235.5 405.5t191 325.5q15 30 15 49t-14.5 31t-14.5 14q0 7 10 14q40 25 97 25q92 0 92 -66q0 -33 -27 -80q-88 -154 -249.5 -429t-252.5 -433q-2 -4 -38 -66t-53.5 -92.5t-58.5 -101.5t-65 -117t-60.5 -113.5t-58.5 -115 t-44 -98.5t-32.5 -87.5t-10.5 -58.5q0 -51 34 -51q41 0 109.5 71.5t136 170t145 227.5t126.5 218t90 167q-48 56 -48 170q0 40 12.5 86.5t45 86.5t76.5 40q71 0 71 -123q0 -88 -55 -227q44 -15 84 -15q69 0 129 41t104 115q11 21 15.5 23.5t9.5 -4.5q14 -14 14 -62 q0 -63 -89 -128.5t-193 -65.5q-54 0 -109 22q-40 -82 -74.5 -149.5t-88 -164.5t-100.5 -172.5t-105.5 -156t-110.5 -134t-108 -88t-105 -34.5q-50 0 -80.5 39t-30.5 115zM573 121q0 45 31 98q27 46 90 153.5t101 173.5t47 85q14 28 14 49q0 19 -14.5 31t-14.5 14q0 7 11 14 q40 25 96 25q46 0 73 -19t27 -53q0 -30 -24 -74q-8 -14 -59.5 -102t-96 -164.5t-49.5 -87.5q-1 -3 -9.5 -18.5t-17.5 -31.5t-10 -17q-10 -18 -10 -37q0 -39 47 -39q157 0 430 368q31 46 33 46q11 0 18 -43q3 -5 1 -15.5t-1 -15t-3.5 -14.5t-5.5 -14t-7 -14t-8 -13.5 t-9.5 -13.5t-10.5 -14.5t-11 -14.5l-12 -15q-49 -64 -105 -121.5t-122.5 -110t-139 -83.5t-139.5 -31q-58 0 -99 31t-41 88zM1004 965q0 53 44 98t99 45q27 0 44 -19t17 -49q0 -51 -41.5 -95t-93.5 -44q-28 0 -48.5 17.5t-20.5 46.5z" />
<glyph unicode="&#xfb02;" horiz-adv-x="1177" d="M-242 -358q0 86 58.5 239t169.5 362t205.5 376t235.5 405.5t191 325.5q15 30 15 49t-14.5 31t-14.5 14q0 7 10 14q40 25 97 25q92 0 92 -66q0 -33 -27 -80q-88 -154 -249.5 -429t-252.5 -433q-2 -4 -38 -66t-53.5 -92.5t-58.5 -101.5t-65 -117t-60.5 -113.5t-58.5 -115 t-44 -98.5t-32.5 -87.5t-10.5 -58.5q0 -51 34 -51q41 0 109.5 71.5t136 170t145 227.5t126.5 218t90 167q-48 56 -48 170q0 40 12.5 86.5t45 86.5t76.5 40q71 0 71 -123q0 -88 -55 -227q44 -15 84 -15q69 0 129 41t104 115q11 21 15.5 23.5t9.5 -4.5q14 -14 14 -62 q0 -63 -89 -128.5t-193 -65.5q-54 0 -109 22q-40 -82 -74.5 -149.5t-88 -164.5t-100.5 -172.5t-105.5 -156t-110.5 -134t-108 -88t-105 -34.5q-50 0 -80.5 39t-30.5 115zM621 113q0 62 55 166q55 103 108.5 199t129.5 219.5t147 227t155.5 207t161.5 175t159 116.5t153 45 q75 0 107 -35t32 -81q0 -39 -28.5 -74t-82.5 -35q-33 0 -55.5 18.5t-22.5 45.5q0 29 14 46t28 23t14 8q0 9 -15 9q-96 0 -241 -158q-45 -49 -95 -116t-93 -130.5t-93.5 -145.5t-85 -142t-79 -141.5t-65.5 -121.5t-55 -104.5t-36 -69.5q-27 -54 -27 -82q0 -21 13 -36t38 -15 q27 0 57.5 11.5t61 33t59 45.5t59 58t54 61t50 63t41 55.5t33.5 47t21 29.5t6 -4.5t7.5 -20t3.5 -27.5q0 -25 -17 -59q-25 -45 -77 -110.5t-126.5 -140.5t-167.5 -127t-175 -52q-131 0 -131 119z" />
</font>
</defs>
</svg>
